G04 #@! TF.GenerationSoftware,KiCad,Pcbnew,(7.0.0)*
G04 #@! TF.CreationDate,2023-03-18T22:02:57+08:00*
G04 #@! TF.ProjectId,lul_left,6c756c5f-6c65-4667-942e-6b696361645f,rev?*
G04 #@! TF.SameCoordinates,Original*
G04 #@! TF.FileFunction,Profile,NP*
%FSLAX46Y46*%
G04 Gerber Fmt 4.6, Leading zero omitted, Abs format (unit mm)*
G04 Created by KiCad (PCBNEW (7.0.0)) date 2023-03-18 22:02:57*
%MOMM*%
%LPD*%
G01*
G04 APERTURE LIST*
G04 #@! TA.AperFunction,Profile*
%ADD10C,0.150000*%
G04 #@! TD*
G04 APERTURE END LIST*
D10*
X243158170Y-22367792D02*
X243133832Y-22342265D01*
X261339661Y-78105585D02*
X261331625Y-78069816D01*
X243325975Y-22678301D02*
X243316070Y-22643423D01*
X242900191Y-22184732D02*
X242866811Y-22171568D01*
X242832657Y-22160009D02*
X242797776Y-22150101D01*
X261354154Y-78252486D02*
X261353230Y-78215307D01*
X243223585Y-22451046D02*
X243203094Y-22422229D01*
X243133832Y-22342265D02*
X243108305Y-22317927D01*
X139218758Y-105528523D02*
X144991564Y-105531508D01*
X261354154Y-78252486D02*
X261354154Y-78252486D01*
X22842426Y-78249529D02*
X22842424Y-98123430D01*
X261310429Y-77999849D02*
X261297322Y-77965770D01*
X255090928Y-70355173D02*
X253353973Y-67599938D01*
X243276635Y-22543338D02*
X243260403Y-22511647D01*
X261321872Y-78034551D02*
X261310429Y-77999849D01*
X261161055Y-77749721D02*
X261135530Y-77722793D01*
X243334182Y-22713860D02*
X243325975Y-22678301D01*
X261135534Y-77722793D02*
X261135534Y-77722793D01*
X139209422Y-22847000D02*
G75*
G03*
X138469000Y-22106578I-740422J0D01*
G01*
X245086069Y-44122221D02*
X244460765Y-40169536D01*
X35219732Y-58433187D02*
X33899646Y-61637467D01*
X258981709Y-75416600D02*
X256966840Y-72960727D01*
X37443033Y-51575588D02*
X36400861Y-55079229D01*
X144986711Y-56449971D02*
X139211711Y-56449971D01*
X243974418Y-36067170D02*
X243627028Y-31815123D01*
X242651899Y-22127899D02*
X242614074Y-22126937D01*
X40569550Y-31812165D02*
X40222160Y-36064212D01*
X242995225Y-22233389D02*
X242964444Y-22215688D01*
X242797776Y-22150101D02*
X242762215Y-22141890D01*
X256966840Y-72960727D02*
X255090928Y-70355173D01*
X138454283Y-106278594D02*
G75*
G03*
X139218758Y-105528523I15717J748594D01*
G01*
X32440604Y-64692064D02*
X30842605Y-67596980D01*
X138454283Y-106278594D02*
X80531218Y-106274162D01*
X144987897Y-22857042D02*
X139209422Y-22847000D01*
X243340646Y-22750054D02*
X243334182Y-22713860D01*
X244460765Y-40169536D02*
X243974418Y-36067170D01*
X253353973Y-67599938D02*
X251755974Y-64695022D01*
X36400861Y-55079229D02*
X35219732Y-58433187D01*
X261248260Y-77867874D02*
X261228743Y-77836891D01*
X22844681Y-105525388D02*
G75*
G03*
X23604626Y-106277006I754619J2988D01*
G01*
X243291355Y-22575896D02*
X243276635Y-22543338D01*
X261282575Y-77932374D02*
X261266212Y-77899722D01*
X242614074Y-22126937D02*
X242614074Y-22126937D01*
X250296932Y-61640425D02*
X248976846Y-58436145D01*
X243203094Y-22422229D02*
X243181272Y-22394462D01*
X243053867Y-22273003D02*
X243025049Y-22252508D01*
X242726016Y-22135421D02*
X242689228Y-22130742D01*
X246753545Y-51578546D02*
X245850328Y-47925224D01*
X243349115Y-22861983D02*
X243348159Y-22824162D01*
X242614074Y-22126937D02*
X150604120Y-22126937D01*
X30842605Y-67596980D02*
X29105650Y-70352215D01*
X27229738Y-72957769D02*
X25214869Y-75413642D01*
X242964444Y-22215688D02*
X242932751Y-22199454D01*
X261207686Y-77806829D02*
X261185115Y-77777753D01*
X203665360Y-106277120D02*
X145742197Y-106278333D01*
X144991564Y-105531508D02*
G75*
G03*
X145742197Y-106278333I728436J-18492D01*
G01*
X22844686Y-105525388D02*
X22842424Y-98123430D01*
X144985000Y-99520000D02*
X144993274Y-62461479D01*
X261185115Y-77777753D02*
X261161055Y-77749721D01*
X144985000Y-99520000D02*
X139210000Y-99520000D01*
X25214869Y-75413642D02*
X23054855Y-77713858D01*
X33899646Y-61637467D02*
X32440604Y-64692064D01*
X23054855Y-77713858D02*
G75*
G03*
X22842427Y-78249529I545145J-526142D01*
G01*
X261345958Y-78141796D02*
X261339661Y-78105585D01*
X243316070Y-22643423D02*
X243304515Y-22609273D01*
X248976846Y-58436145D02*
X247795717Y-55082187D01*
X40777985Y-27410437D02*
X40569550Y-31812165D01*
X260591952Y-106279964D02*
G75*
G03*
X261359951Y-105529256I8048J759964D01*
G01*
X139210000Y-99520000D02*
X139206726Y-62458521D01*
X261354154Y-98126388D02*
X261354154Y-78252486D01*
X261135534Y-77722793D02*
X258981709Y-75416600D01*
X133579458Y-22107258D02*
X41568000Y-22126363D01*
X243025049Y-22252508D02*
X242995225Y-22233389D01*
X243348159Y-22824162D02*
X243345320Y-22786836D01*
X39110509Y-44119263D02*
X38346250Y-47922266D01*
X247795717Y-55082187D02*
X246753545Y-51578546D01*
X251755974Y-64695022D02*
X250296932Y-61640425D01*
X243627028Y-31815123D02*
X243418593Y-27413395D01*
X145730000Y-22117892D02*
G75*
G03*
X144987898Y-22857042I0J-742108D01*
G01*
X261354154Y-98126388D02*
X261359951Y-105529256D01*
X243345320Y-22786836D02*
X243340646Y-22750054D01*
X243260403Y-22511647D02*
X243242704Y-22480867D01*
X243108305Y-22317927D02*
X243081634Y-22294824D01*
X242866811Y-22171568D02*
X242832657Y-22160009D01*
X261266212Y-77899722D02*
X261248260Y-77867874D01*
X39735813Y-40166578D02*
X39110509Y-44119263D01*
X40222160Y-36064212D02*
X39735813Y-40166578D01*
X261353230Y-78215307D02*
X261350489Y-78178390D01*
X138469000Y-22106578D02*
X133579458Y-22107258D01*
X203665360Y-106277120D02*
X260591952Y-106279964D01*
X139207911Y-28865592D02*
X144994459Y-28868550D01*
X243418593Y-27413395D02*
X243349115Y-22861983D01*
X261331625Y-78069816D02*
X261321872Y-78034551D01*
X243242704Y-22480867D02*
X243223585Y-22451046D01*
X243081634Y-22294824D02*
X243053867Y-22273003D01*
X242932751Y-22199454D02*
X242900191Y-22184732D01*
X41568000Y-22126363D02*
G75*
G03*
X40847363Y-22847000I0J-720637D01*
G01*
X243181272Y-22394462D02*
X243158170Y-22367792D01*
X261135530Y-77722793D02*
X261135534Y-77722793D01*
X245850328Y-47925224D02*
X245086069Y-44122221D01*
X150604120Y-22126937D02*
X145730000Y-22117891D01*
X243304515Y-22609273D02*
X243291355Y-22575896D01*
X29105650Y-70352215D02*
X27229738Y-72957769D01*
X144986711Y-56449971D02*
X144994459Y-28868550D01*
X242762215Y-22141890D02*
X242726016Y-22135421D01*
X261297322Y-77965770D02*
X261282575Y-77932374D01*
X139211711Y-56449971D02*
X139207911Y-28865592D01*
X23604626Y-106277007D02*
X80531218Y-106274162D01*
X40847363Y-22847000D02*
X40777985Y-27410437D01*
X243349115Y-22861983D02*
X243349115Y-22861983D01*
X261228743Y-77836891D02*
X261207686Y-77806829D01*
X38346250Y-47922266D02*
X37443033Y-51575588D01*
X139206726Y-62458521D02*
X144993274Y-62461479D01*
X242689228Y-22130742D02*
X242651899Y-22127899D01*
X261350489Y-78178390D02*
X261345958Y-78141796D01*
M02*
