M48
; DRILL file {KiCad (7.0.0)} date Sat Mar 18 22:03:22 2023
; FORMAT={-:-/ absolute / inch / decimal}
; #@! TF.CreationDate,2023-03-18T22:03:22+08:00
; #@! TF.GenerationSoftware,Kicad,Pcbnew,(7.0.0)
; #@! TF.FileFunction,Plated,1,2,PTH
FMAT,2
INCH
; #@! TA.AperFunction,Plated,PTH,ViaDrill
T1C0.0157
; #@! TA.AperFunction,Plated,PTH,ComponentDrill
T2C0.0295
; #@! TA.AperFunction,Plated,PTH,ComponentDrill
T3C0.0430
%
G90
G05
T1
X5.2815Y-3.5045
X6.4215Y-3.3445
X6.5815Y-3.9795
T2
X4.6898Y-3.2709
X4.7685Y-3.2709
X6.4209Y-3.2748
X6.4996Y-3.2748
T3
X3.1909Y-3.4113
X3.1909Y-4.0113
X3.2909Y-3.4113
X3.2909Y-4.0113
X3.3909Y-3.4113
X3.3909Y-3.5113
X3.3909Y-3.6113
X3.3909Y-3.7113
X3.3909Y-4.0113
X3.4909Y-3.4113
X3.4909Y-4.0113
X3.5909Y-3.4113
X3.5909Y-4.0113
X3.6909Y-3.4113
X3.6909Y-4.0113
X3.7909Y-3.4113
X3.7909Y-4.0113
X3.8909Y-3.4113
X3.8909Y-4.0113
X3.9909Y-3.4113
X3.9909Y-4.0113
X4.0909Y-3.4113
X4.0909Y-4.0113
X4.1909Y-3.4113
X4.1909Y-4.0113
X4.2909Y-3.4113
X4.2909Y-4.0113
X6.8976Y-3.4118
X6.8976Y-4.0118
X6.9976Y-3.4118
X6.9976Y-4.0118
X7.0976Y-3.4118
X7.0976Y-4.0118
X7.1976Y-3.4118
X7.1976Y-4.0118
X7.2976Y-3.4118
X7.2976Y-4.0118
X7.3976Y-3.4118
X7.3976Y-4.0118
X7.4976Y-3.4118
X7.4976Y-4.0118
X7.5976Y-3.4118
X7.5976Y-4.0118
X7.6976Y-3.4118
X7.6976Y-4.0118
X7.7976Y-3.4118
X7.7976Y-3.7118
X7.7976Y-3.8118
X7.7976Y-3.9118
X7.7976Y-4.0118
X7.8976Y-3.4118
X7.8976Y-4.0118
X7.9976Y-3.4118
X7.9976Y-4.0118
T0
M30
