%TF.GenerationSoftware,KiCad,Pcbnew,(7.0.0)*%
%TF.CreationDate,2023-03-18T22:03:25+08:00*%
%TF.ProjectId,lul_left,6c756c5f-6c65-4667-942e-6b696361645f,rev?*%
%TF.SameCoordinates,Original*%
%TF.FileFunction,Drillmap*%
%TF.FilePolarity,Positive*%
%FSLAX45Y45*%
G04 Gerber Fmt 4.5, Leading zero omitted, Abs format (unit mm)*
G04 Created by KiCad (PCBNEW (7.0.0)) date 2023-03-18 22:03:25*
%MOMM*%
%LPD*%
G01*
G04 APERTURE LIST*
%ADD10C,0.150000*%
%ADD11C,0.200000*%
%ADD12C,0.030000*%
%ADD13C,0.090000*%
%ADD14C,0.175000*%
%ADD15C,0.300000*%
%ADD16C,0.398780*%
G04 APERTURE END LIST*
D10*
X24315817Y-2236779D02*
X24313383Y-2234227D01*
X26133966Y-7810558D02*
X26133162Y-7806982D01*
X24332597Y-2267830D02*
X24331607Y-2264342D01*
X24290019Y-2218473D02*
X24286681Y-2217157D01*
X24283266Y-2216001D02*
X24279778Y-2215010D01*
X26135415Y-7825249D02*
X26135323Y-7821531D01*
X24322358Y-2245105D02*
X24320309Y-2242223D01*
X24313383Y-2234227D02*
X24310830Y-2231793D01*
X13921876Y-10552852D02*
X14499156Y-10553151D01*
X26135415Y-7825249D02*
X26135415Y-7825249D01*
X2284243Y-7824953D02*
X2284242Y-9812343D01*
X26131043Y-7799985D02*
X26129732Y-7796577D01*
X25509093Y-7035517D02*
X25335397Y-6759994D01*
X24327663Y-2254334D02*
X24326040Y-2251165D01*
X26132187Y-7803455D02*
X26131043Y-7799985D01*
X26116105Y-7774972D02*
X26113553Y-7772279D01*
X24333418Y-2271386D02*
X24332597Y-2267830D01*
X26113553Y-7772279D02*
X26113553Y-7772279D01*
X13920942Y-2284700D02*
G75*
G03*
X13846900Y-2210658I-74042J0D01*
G01*
X24508607Y-4412222D02*
X24446076Y-4016954D01*
X3521973Y-5843319D02*
X3389965Y-6163747D01*
X25898171Y-7541660D02*
X25696684Y-7296073D01*
X3744303Y-5157559D02*
X3640086Y-5507923D01*
X14498671Y-5644997D02*
X13921171Y-5644997D01*
X24397442Y-3606717D02*
X24362703Y-3181512D01*
X24265190Y-2212790D02*
X24261407Y-2212694D01*
X4056955Y-3181216D02*
X4022216Y-3606421D01*
X24299522Y-2223339D02*
X24296444Y-2221569D01*
X24279778Y-2215010D02*
X24276221Y-2214189D01*
X25696684Y-7296073D02*
X25509093Y-7035517D01*
X13845428Y-10627859D02*
G75*
G03*
X13921876Y-10552852I1572J74859D01*
G01*
X3244060Y-6469206D02*
X3084260Y-6759698D01*
X13845428Y-10627859D02*
X8053122Y-10627416D01*
X14498790Y-2285704D02*
X13920942Y-2284700D01*
X24334065Y-2275005D02*
X24333418Y-2271386D01*
X24446076Y-4016954D02*
X24397442Y-3606717D01*
X25335397Y-6759994D02*
X25175597Y-6469502D01*
X3640086Y-5507923D02*
X3521973Y-5843319D01*
X26124826Y-7786787D02*
X26122874Y-7783689D01*
X2284468Y-10552539D02*
G75*
G03*
X2360463Y-10627701I75462J299D01*
G01*
X24329135Y-2257590D02*
X24327663Y-2254334D01*
X26128257Y-7793237D02*
X26126621Y-7789972D01*
X24261407Y-2212694D02*
X24261407Y-2212694D01*
X25029693Y-6164042D02*
X24897685Y-5843614D01*
X24320309Y-2242223D02*
X24318127Y-2239446D01*
X24305387Y-2227300D02*
X24302505Y-2225251D01*
X24272602Y-2213542D02*
X24268923Y-2213074D01*
X24675354Y-5157855D02*
X24585033Y-4792522D01*
X24334911Y-2286198D02*
X24334816Y-2282416D01*
X24261407Y-2212694D02*
X15060412Y-2212694D01*
X3084260Y-6759698D02*
X2910565Y-7035221D01*
X2722974Y-7295777D02*
X2521487Y-7541364D01*
X24296444Y-2221569D02*
X24293275Y-2219945D01*
X26120769Y-7780683D02*
X26118511Y-7777775D01*
X20366536Y-10627712D02*
X14574220Y-10627833D01*
X14499156Y-10553151D02*
G75*
G03*
X14574220Y-10627833I72844J-1849D01*
G01*
X2284469Y-10552539D02*
X2284242Y-9812343D01*
X14498500Y-9952000D02*
X14499327Y-6246148D01*
X26118511Y-7777775D02*
X26116105Y-7774972D01*
X14498500Y-9952000D02*
X13921000Y-9952000D01*
X2521487Y-7541364D02*
X2305486Y-7771386D01*
X3389965Y-6163747D02*
X3244060Y-6469206D01*
X2305486Y-7771386D02*
G75*
G03*
X2284243Y-7824953I54515J-52614D01*
G01*
X26134596Y-7814180D02*
X26133966Y-7810558D01*
X24331607Y-2264342D02*
X24330451Y-2260927D01*
X24897685Y-5843614D02*
X24779572Y-5508219D01*
X4077798Y-2741044D02*
X4056955Y-3181216D01*
X26059195Y-10627996D02*
G75*
G03*
X26135995Y-10552926I805J75996D01*
G01*
X13921000Y-9952000D02*
X13920673Y-6245852D01*
X26135415Y-9812639D02*
X26135415Y-7825249D01*
X26113553Y-7772279D02*
X25898171Y-7541660D01*
X13357946Y-2210726D02*
X4156800Y-2212636D01*
X24302505Y-2225251D02*
X24299522Y-2223339D01*
X24334816Y-2282416D02*
X24334532Y-2278684D01*
X3911051Y-4411926D02*
X3834625Y-4792227D01*
X24779572Y-5508219D02*
X24675354Y-5157855D01*
X25175597Y-6469502D02*
X25029693Y-6164042D01*
X24362703Y-3181512D02*
X24341859Y-2741340D01*
X14573000Y-2211789D02*
G75*
G03*
X14498790Y-2285704I0J-74211D01*
G01*
X26135415Y-9812639D02*
X26135995Y-10552926D01*
X24334532Y-2278684D02*
X24334065Y-2275005D01*
X24326040Y-2251165D02*
X24324270Y-2248087D01*
X24310830Y-2231793D02*
X24308163Y-2229482D01*
X24286681Y-2217157D02*
X24283266Y-2216001D01*
X26126621Y-7789972D02*
X26124826Y-7786787D01*
X3973581Y-4016658D02*
X3911051Y-4411926D01*
X4022216Y-3606421D02*
X3973581Y-4016658D01*
X26135323Y-7821531D02*
X26135049Y-7817839D01*
X13846900Y-2210658D02*
X13357946Y-2210726D01*
X20366536Y-10627712D02*
X26059195Y-10627996D01*
X13920791Y-2886559D02*
X14499446Y-2886855D01*
X24341859Y-2741340D02*
X24334911Y-2286198D01*
X26133162Y-7806982D02*
X26132187Y-7803455D01*
X24324270Y-2248087D02*
X24322358Y-2245105D01*
X24308163Y-2229482D02*
X24305387Y-2227300D01*
X24293275Y-2219945D02*
X24290019Y-2218473D01*
X4156800Y-2212636D02*
G75*
G03*
X4084736Y-2284700I0J-72064D01*
G01*
X24318127Y-2239446D02*
X24315817Y-2236779D01*
X26113553Y-7772279D02*
X26113553Y-7772279D01*
X24585033Y-4792522D02*
X24508607Y-4412222D01*
X15060412Y-2212694D02*
X14573000Y-2211789D01*
X24330451Y-2260927D02*
X24329135Y-2257590D01*
X2910565Y-7035221D02*
X2722974Y-7295777D01*
X14498671Y-5644997D02*
X14499446Y-2886855D01*
X24276221Y-2214189D02*
X24272602Y-2213542D01*
X26129732Y-7796577D02*
X26128257Y-7793237D01*
X13921171Y-5644997D02*
X13920791Y-2886559D01*
X2360463Y-10627701D02*
X8053122Y-10627416D01*
X4084736Y-2284700D02*
X4077798Y-2741044D01*
X24334911Y-2286198D02*
X24334911Y-2286198D01*
X26122874Y-7783689D02*
X26120769Y-7780683D01*
X3834625Y-4792227D02*
X3744303Y-5157559D01*
X13920673Y-6245852D02*
X14499327Y-6246148D01*
X24268923Y-2213074D02*
X24265190Y-2212790D01*
X26135049Y-7817839D02*
X26134596Y-7814180D01*
D11*
D12*
X13926000Y-2332625D02*
X13956000Y-2362625D01*
X13956000Y-2332625D02*
X13926000Y-2362625D01*
X13926000Y-2392000D02*
X13956000Y-2422000D01*
X13956000Y-2392000D02*
X13926000Y-2422000D01*
X13926000Y-2451375D02*
X13956000Y-2481375D01*
X13956000Y-2451375D02*
X13926000Y-2481375D01*
X13926000Y-2510750D02*
X13956000Y-2540750D01*
X13956000Y-2510750D02*
X13926000Y-2540750D01*
X13926000Y-2570125D02*
X13956000Y-2600125D01*
X13956000Y-2570125D02*
X13926000Y-2600125D01*
X13926000Y-2629500D02*
X13956000Y-2659500D01*
X13956000Y-2629500D02*
X13926000Y-2659500D01*
X13926000Y-2688875D02*
X13956000Y-2718875D01*
X13956000Y-2688875D02*
X13926000Y-2718875D01*
X13926000Y-2748250D02*
X13956000Y-2778250D01*
X13956000Y-2748250D02*
X13926000Y-2778250D01*
X13926000Y-2807625D02*
X13956000Y-2837625D01*
X13956000Y-2807625D02*
X13926000Y-2837625D01*
X13926000Y-5690625D02*
X13956000Y-5720625D01*
X13956000Y-5690625D02*
X13926000Y-5720625D01*
X13926000Y-5750000D02*
X13956000Y-5780000D01*
X13956000Y-5750000D02*
X13926000Y-5780000D01*
X13926000Y-5809375D02*
X13956000Y-5839375D01*
X13956000Y-5809375D02*
X13926000Y-5839375D01*
X13926000Y-5868750D02*
X13956000Y-5898750D01*
X13956000Y-5868750D02*
X13926000Y-5898750D01*
X13926000Y-5928125D02*
X13956000Y-5958125D01*
X13956000Y-5928125D02*
X13926000Y-5958125D01*
X13926000Y-5987500D02*
X13956000Y-6017500D01*
X13956000Y-5987500D02*
X13926000Y-6017500D01*
X13926000Y-6046875D02*
X13956000Y-6076875D01*
X13956000Y-6046875D02*
X13926000Y-6076875D01*
X13926000Y-6106250D02*
X13956000Y-6136250D01*
X13956000Y-6106250D02*
X13926000Y-6136250D01*
X13926000Y-6165625D02*
X13956000Y-6195625D01*
X13956000Y-6165625D02*
X13926000Y-6195625D01*
X13926000Y-9998625D02*
X13956000Y-10028625D01*
X13956000Y-9998625D02*
X13926000Y-10028625D01*
X13926000Y-10058000D02*
X13956000Y-10088000D01*
X13956000Y-10058000D02*
X13926000Y-10088000D01*
X13926000Y-10117375D02*
X13956000Y-10147375D01*
X13956000Y-10117375D02*
X13926000Y-10147375D01*
X13926000Y-10176750D02*
X13956000Y-10206750D01*
X13956000Y-10176750D02*
X13926000Y-10206750D01*
X13926000Y-10236125D02*
X13956000Y-10266125D01*
X13956000Y-10236125D02*
X13926000Y-10266125D01*
X13926000Y-10295500D02*
X13956000Y-10325500D01*
X13956000Y-10295500D02*
X13926000Y-10325500D01*
X13926000Y-10354875D02*
X13956000Y-10384875D01*
X13956000Y-10354875D02*
X13926000Y-10384875D01*
X13926000Y-10414250D02*
X13956000Y-10444250D01*
X13956000Y-10414250D02*
X13926000Y-10444250D01*
X13926000Y-10473625D02*
X13956000Y-10503625D01*
X13956000Y-10473625D02*
X13926000Y-10503625D01*
X14463000Y-2333500D02*
X14493000Y-2363500D01*
X14493000Y-2333500D02*
X14463000Y-2363500D01*
X14463000Y-2392875D02*
X14493000Y-2422875D01*
X14493000Y-2392875D02*
X14463000Y-2422875D01*
X14463000Y-2452250D02*
X14493000Y-2482250D01*
X14493000Y-2452250D02*
X14463000Y-2482250D01*
X14463000Y-2511625D02*
X14493000Y-2541625D01*
X14493000Y-2511625D02*
X14463000Y-2541625D01*
X14463000Y-2571000D02*
X14493000Y-2601000D01*
X14493000Y-2571000D02*
X14463000Y-2601000D01*
X14463000Y-2630375D02*
X14493000Y-2660375D01*
X14493000Y-2630375D02*
X14463000Y-2660375D01*
X14463000Y-2689750D02*
X14493000Y-2719750D01*
X14493000Y-2689750D02*
X14463000Y-2719750D01*
X14463000Y-2749125D02*
X14493000Y-2779125D01*
X14493000Y-2749125D02*
X14463000Y-2779125D01*
X14463000Y-2808500D02*
X14493000Y-2838500D01*
X14493000Y-2808500D02*
X14463000Y-2838500D01*
X14463000Y-5691500D02*
X14493000Y-5721500D01*
X14493000Y-5691500D02*
X14463000Y-5721500D01*
X14463000Y-5750875D02*
X14493000Y-5780875D01*
X14493000Y-5750875D02*
X14463000Y-5780875D01*
X14463000Y-5810250D02*
X14493000Y-5840250D01*
X14493000Y-5810250D02*
X14463000Y-5840250D01*
X14463000Y-5869625D02*
X14493000Y-5899625D01*
X14493000Y-5869625D02*
X14463000Y-5899625D01*
X14463000Y-5929000D02*
X14493000Y-5959000D01*
X14493000Y-5929000D02*
X14463000Y-5959000D01*
X14463000Y-5988375D02*
X14493000Y-6018375D01*
X14493000Y-5988375D02*
X14463000Y-6018375D01*
X14463000Y-6047750D02*
X14493000Y-6077750D01*
X14493000Y-6047750D02*
X14463000Y-6077750D01*
X14463000Y-6107125D02*
X14493000Y-6137125D01*
X14493000Y-6107125D02*
X14463000Y-6137125D01*
X14463000Y-6166500D02*
X14493000Y-6196500D01*
X14493000Y-6166500D02*
X14463000Y-6196500D01*
X14463000Y-9999500D02*
X14493000Y-10029500D01*
X14493000Y-9999500D02*
X14463000Y-10029500D01*
X14463000Y-10058875D02*
X14493000Y-10088875D01*
X14493000Y-10058875D02*
X14463000Y-10088875D01*
X14463000Y-10118250D02*
X14493000Y-10148250D01*
X14493000Y-10118250D02*
X14463000Y-10148250D01*
X14463000Y-10177625D02*
X14493000Y-10207625D01*
X14493000Y-10177625D02*
X14463000Y-10207625D01*
X14463000Y-10237000D02*
X14493000Y-10267000D01*
X14493000Y-10237000D02*
X14463000Y-10267000D01*
X14463000Y-10296375D02*
X14493000Y-10326375D01*
X14493000Y-10296375D02*
X14463000Y-10326375D01*
X14463000Y-10355750D02*
X14493000Y-10385750D01*
X14493000Y-10355750D02*
X14463000Y-10385750D01*
X14463000Y-10415125D02*
X14493000Y-10445125D01*
X14493000Y-10415125D02*
X14463000Y-10445125D01*
X14463000Y-10474500D02*
X14493000Y-10504500D01*
X14493000Y-10474500D02*
X14463000Y-10504500D01*
D13*
X11894000Y-10438500D02*
G75*
G03*
X11894000Y-10438500I-45000J0D01*
G01*
X12194000Y-10438500D02*
G75*
G03*
X12194000Y-10438500I-45000J0D01*
G01*
X16305055Y-10437388D02*
G75*
G03*
X16305055Y-10437388I-45000J0D01*
G01*
X16605055Y-10437388D02*
G75*
G03*
X16605055Y-10437388I-45000J0D01*
G01*
D14*
X2974465Y-9340204D02*
X2974465Y-9515204D01*
X2886965Y-9427704D02*
X3061965Y-9427704D01*
X3990465Y-9340204D02*
X3990465Y-9515204D01*
X3902965Y-9427704D02*
X4077965Y-9427704D01*
X4671465Y-3235204D02*
X4671465Y-3410204D01*
X4583965Y-3322704D02*
X4758965Y-3322704D01*
X4671465Y-5137204D02*
X4671465Y-5312204D01*
X4583965Y-5224704D02*
X4758965Y-5224704D01*
X4671465Y-7040204D02*
X4671465Y-7215204D01*
X4583965Y-7127704D02*
X4758965Y-7127704D01*
X5593965Y-9339204D02*
X5593965Y-9514204D01*
X5506465Y-9426704D02*
X5681465Y-9426704D01*
X5687465Y-3235204D02*
X5687465Y-3410204D01*
X5599965Y-3322704D02*
X5774965Y-3322704D01*
X5687465Y-5137204D02*
X5687465Y-5312204D01*
X5599965Y-5224704D02*
X5774965Y-5224704D01*
X5687465Y-7040204D02*
X5687465Y-7215204D01*
X5599965Y-7127704D02*
X5774965Y-7127704D01*
X6571265Y-5137204D02*
X6571265Y-5312204D01*
X6483765Y-5224704D02*
X6658765Y-5224704D01*
X6574465Y-3235204D02*
X6574465Y-3410204D01*
X6486965Y-3322704D02*
X6661965Y-3322704D01*
X6574465Y-7040204D02*
X6574465Y-7215204D01*
X6486965Y-7127704D02*
X6661965Y-7127704D01*
X6609965Y-9339204D02*
X6609965Y-9514204D01*
X6522465Y-9426704D02*
X6697465Y-9426704D01*
X7587265Y-5137204D02*
X7587265Y-5312204D01*
X7499765Y-5224704D02*
X7674765Y-5224704D01*
X7590465Y-3235204D02*
X7590465Y-3410204D01*
X7502965Y-3322704D02*
X7677965Y-3322704D01*
X7590465Y-7040204D02*
X7590465Y-7215204D01*
X7502965Y-7127704D02*
X7677965Y-7127704D01*
X8479465Y-5137204D02*
X8479465Y-5312204D01*
X8391965Y-5224704D02*
X8566965Y-5224704D01*
X8480465Y-3235204D02*
X8480465Y-3410204D01*
X8392965Y-3322704D02*
X8567965Y-3322704D01*
X8480465Y-7040204D02*
X8480465Y-7215204D01*
X8392965Y-7127704D02*
X8567965Y-7127704D01*
X9495465Y-5137204D02*
X9495465Y-5312204D01*
X9407965Y-5224704D02*
X9582965Y-5224704D01*
X9496465Y-3235204D02*
X9496465Y-3410204D01*
X9408965Y-3322704D02*
X9583965Y-3322704D01*
X9496465Y-7040204D02*
X9496465Y-7215204D01*
X9408965Y-7127704D02*
X9583965Y-7127704D01*
X10385265Y-3236204D02*
X10385265Y-3411204D01*
X10297765Y-3323704D02*
X10472765Y-3323704D01*
X10385465Y-5137204D02*
X10385465Y-5312204D01*
X10297965Y-5224704D02*
X10472965Y-5224704D01*
X10386465Y-7040204D02*
X10386465Y-7215204D01*
X10298965Y-7127704D02*
X10473965Y-7127704D01*
X11401265Y-3236204D02*
X11401265Y-3411204D01*
X11313765Y-3323704D02*
X11488765Y-3323704D01*
X11401465Y-5137204D02*
X11401465Y-5312204D01*
X11313965Y-5224704D02*
X11488965Y-5224704D01*
X11402465Y-7040204D02*
X11402465Y-7215204D01*
X11314965Y-7127704D02*
X11489965Y-7127704D01*
X12284465Y-5137204D02*
X12284465Y-5312204D01*
X12196965Y-5224704D02*
X12371965Y-5224704D01*
X12288000Y-7039500D02*
X12288000Y-7214500D01*
X12200500Y-7127000D02*
X12375500Y-7127000D01*
X12288265Y-3236204D02*
X12288265Y-3411204D01*
X12200765Y-3323704D02*
X12375765Y-3323704D01*
X13300465Y-5137204D02*
X13300465Y-5312204D01*
X13212965Y-5224704D02*
X13387965Y-5224704D01*
X13304000Y-7039500D02*
X13304000Y-7214500D01*
X13216500Y-7127000D02*
X13391500Y-7127000D01*
X13304265Y-3236204D02*
X13304265Y-3411204D01*
X13216765Y-3323704D02*
X13391765Y-3323704D01*
X15101712Y-5142944D02*
X15101712Y-5317944D01*
X15014212Y-5230444D02*
X15189212Y-5230444D01*
X15102412Y-7048944D02*
X15102412Y-7223944D01*
X15014912Y-7136444D02*
X15189912Y-7136444D01*
X15102912Y-3238194D02*
X15102912Y-3413194D01*
X15015412Y-3325694D02*
X15190412Y-3325694D01*
X16117712Y-5142944D02*
X16117712Y-5317944D01*
X16030212Y-5230444D02*
X16205212Y-5230444D01*
X16118412Y-7048944D02*
X16118412Y-7223944D01*
X16030912Y-7136444D02*
X16205912Y-7136444D01*
X16118912Y-3238194D02*
X16118912Y-3413194D01*
X16031412Y-3325694D02*
X16206412Y-3325694D01*
X17005912Y-5143944D02*
X17005912Y-5318944D01*
X16918412Y-5231444D02*
X17093412Y-5231444D01*
X17006412Y-7048944D02*
X17006412Y-7223944D01*
X16918912Y-7136444D02*
X17093912Y-7136444D01*
X17007412Y-3240944D02*
X17007412Y-3415944D01*
X16919912Y-3328444D02*
X17094912Y-3328444D01*
X18021912Y-5143944D02*
X18021912Y-5318944D01*
X17934412Y-5231444D02*
X18109412Y-5231444D01*
X18022412Y-7048944D02*
X18022412Y-7223944D01*
X17934912Y-7136444D02*
X18109912Y-7136444D01*
X18023412Y-3240944D02*
X18023412Y-3415944D01*
X17935912Y-3328444D02*
X18110912Y-3328444D01*
X18911912Y-3240944D02*
X18911912Y-3415944D01*
X18824412Y-3328444D02*
X18999412Y-3328444D01*
X18913912Y-5144944D02*
X18913912Y-5319944D01*
X18826412Y-5232444D02*
X19001412Y-5232444D01*
X18914912Y-7050944D02*
X18914912Y-7225944D01*
X18827412Y-7138444D02*
X19002412Y-7138444D01*
X19927912Y-3240944D02*
X19927912Y-3415944D01*
X19840412Y-3328444D02*
X20015412Y-3328444D01*
X19929912Y-5144944D02*
X19929912Y-5319944D01*
X19842412Y-5232444D02*
X20017412Y-5232444D01*
X19930912Y-7050944D02*
X19930912Y-7225944D01*
X19843412Y-7138444D02*
X20018412Y-7138444D01*
X20816912Y-3240944D02*
X20816912Y-3415944D01*
X20729412Y-3328444D02*
X20904412Y-3328444D01*
X20817412Y-5143944D02*
X20817412Y-5318944D01*
X20729912Y-5231444D02*
X20904912Y-5231444D01*
X20818912Y-7051944D02*
X20818912Y-7226944D01*
X20731412Y-7139444D02*
X20906412Y-7139444D01*
X21809000Y-9340500D02*
X21809000Y-9515500D01*
X21721500Y-9428000D02*
X21896500Y-9428000D01*
X21832912Y-3240944D02*
X21832912Y-3415944D01*
X21745412Y-3328444D02*
X21920412Y-3328444D01*
X21833412Y-5143944D02*
X21833412Y-5318944D01*
X21745912Y-5231444D02*
X21920912Y-5231444D01*
X21834912Y-7051944D02*
X21834912Y-7226944D01*
X21747412Y-7139444D02*
X21922412Y-7139444D01*
X22723912Y-3240944D02*
X22723912Y-3415944D01*
X22636412Y-3328444D02*
X22811412Y-3328444D01*
X22723912Y-5147944D02*
X22723912Y-5322944D01*
X22636412Y-5235444D02*
X22811412Y-5235444D01*
X22723912Y-7051944D02*
X22723912Y-7226944D01*
X22636412Y-7139444D02*
X22811412Y-7139444D01*
X22825000Y-9340500D02*
X22825000Y-9515500D01*
X22737500Y-9428000D02*
X22912500Y-9428000D01*
X23739912Y-3240944D02*
X23739912Y-3415944D01*
X23652412Y-3328444D02*
X23827412Y-3328444D01*
X23739912Y-5147944D02*
X23739912Y-5322944D01*
X23652412Y-5235444D02*
X23827412Y-5235444D01*
X23739912Y-7051944D02*
X23739912Y-7226944D01*
X23652412Y-7139444D02*
X23827412Y-7139444D01*
X24427000Y-9340500D02*
X24427000Y-9515500D01*
X24339500Y-9428000D02*
X24514500Y-9428000D01*
X25443000Y-9340500D02*
X25443000Y-9515500D01*
X25355500Y-9428000D02*
X25530500Y-9428000D01*
D15*
X3207532Y-9279771D02*
X3207532Y-9067637D01*
X2995398Y-9067637D01*
X2995398Y-9279771D01*
X3207532Y-9279771D01*
X3842532Y-9025771D02*
X3842532Y-8813637D01*
X3630398Y-8813637D01*
X3630398Y-9025771D01*
X3842532Y-9025771D01*
X4904532Y-3174771D02*
X4904532Y-2962637D01*
X4692398Y-2962637D01*
X4692398Y-3174771D01*
X4904532Y-3174771D01*
X4904532Y-5076771D02*
X4904532Y-4864637D01*
X4692398Y-4864637D01*
X4692398Y-5076771D01*
X4904532Y-5076771D01*
X4904532Y-6979771D02*
X4904532Y-6767637D01*
X4692398Y-6767637D01*
X4692398Y-6979771D01*
X4904532Y-6979771D01*
X5539532Y-2920771D02*
X5539532Y-2708637D01*
X5327398Y-2708637D01*
X5327398Y-2920771D01*
X5539532Y-2920771D01*
X5539532Y-4822771D02*
X5539532Y-4610637D01*
X5327398Y-4610637D01*
X5327398Y-4822771D01*
X5539532Y-4822771D01*
X5539532Y-6725771D02*
X5539532Y-6513637D01*
X5327398Y-6513637D01*
X5327398Y-6725771D01*
X5539532Y-6725771D01*
X5827032Y-9278771D02*
X5827032Y-9066637D01*
X5614898Y-9066637D01*
X5614898Y-9278771D01*
X5827032Y-9278771D01*
X6462032Y-9024771D02*
X6462032Y-8812637D01*
X6249898Y-8812637D01*
X6249898Y-9024771D01*
X6462032Y-9024771D01*
X6804332Y-5076771D02*
X6804332Y-4864637D01*
X6592198Y-4864637D01*
X6592198Y-5076771D01*
X6804332Y-5076771D01*
X6807532Y-3174771D02*
X6807532Y-2962637D01*
X6595398Y-2962637D01*
X6595398Y-3174771D01*
X6807532Y-3174771D01*
X6807532Y-6979771D02*
X6807532Y-6767637D01*
X6595398Y-6767637D01*
X6595398Y-6979771D01*
X6807532Y-6979771D01*
X7439332Y-4822771D02*
X7439332Y-4610637D01*
X7227198Y-4610637D01*
X7227198Y-4822771D01*
X7439332Y-4822771D01*
X7442532Y-2920771D02*
X7442532Y-2708637D01*
X7230398Y-2708637D01*
X7230398Y-2920771D01*
X7442532Y-2920771D01*
X7442532Y-6725771D02*
X7442532Y-6513637D01*
X7230398Y-6513637D01*
X7230398Y-6725771D01*
X7442532Y-6725771D01*
X8712532Y-5076771D02*
X8712532Y-4864637D01*
X8500398Y-4864637D01*
X8500398Y-5076771D01*
X8712532Y-5076771D01*
X8713532Y-3174771D02*
X8713532Y-2962637D01*
X8501398Y-2962637D01*
X8501398Y-3174771D01*
X8713532Y-3174771D01*
X8713532Y-6979771D02*
X8713532Y-6767637D01*
X8501398Y-6767637D01*
X8501398Y-6979771D01*
X8713532Y-6979771D01*
X9347532Y-4822771D02*
X9347532Y-4610637D01*
X9135398Y-4610637D01*
X9135398Y-4822771D01*
X9347532Y-4822771D01*
X9348532Y-2920771D02*
X9348532Y-2708637D01*
X9136398Y-2708637D01*
X9136398Y-2920771D01*
X9348532Y-2920771D01*
X9348532Y-6725771D02*
X9348532Y-6513637D01*
X9136398Y-6513637D01*
X9136398Y-6725771D01*
X9348532Y-6725771D01*
X10618332Y-3175771D02*
X10618332Y-2963637D01*
X10406198Y-2963637D01*
X10406198Y-3175771D01*
X10618332Y-3175771D01*
X10618532Y-5076771D02*
X10618532Y-4864637D01*
X10406398Y-4864637D01*
X10406398Y-5076771D01*
X10618532Y-5076771D01*
X10619532Y-6979771D02*
X10619532Y-6767637D01*
X10407398Y-6767637D01*
X10407398Y-6979771D01*
X10619532Y-6979771D01*
X11253332Y-2921771D02*
X11253332Y-2709637D01*
X11041198Y-2709637D01*
X11041198Y-2921771D01*
X11253332Y-2921771D01*
X11253532Y-4822771D02*
X11253532Y-4610637D01*
X11041398Y-4610637D01*
X11041398Y-4822771D01*
X11253532Y-4822771D01*
X11254532Y-6725771D02*
X11254532Y-6513637D01*
X11042398Y-6513637D01*
X11042398Y-6725771D01*
X11254532Y-6725771D01*
X12517532Y-5076771D02*
X12517532Y-4864637D01*
X12305398Y-4864637D01*
X12305398Y-5076771D01*
X12517532Y-5076771D01*
X12521067Y-6979067D02*
X12521067Y-6766933D01*
X12308933Y-6766933D01*
X12308933Y-6979067D01*
X12521067Y-6979067D01*
X12521332Y-3175771D02*
X12521332Y-2963637D01*
X12309198Y-2963637D01*
X12309198Y-3175771D01*
X12521332Y-3175771D01*
X13152532Y-4822771D02*
X13152532Y-4610637D01*
X12940398Y-4610637D01*
X12940398Y-4822771D01*
X13152532Y-4822771D01*
X13156067Y-6725067D02*
X13156067Y-6512933D01*
X12943933Y-6512933D01*
X12943933Y-6725067D01*
X13156067Y-6725067D01*
X13156332Y-2921771D02*
X13156332Y-2709637D01*
X12944198Y-2709637D01*
X12944198Y-2921771D01*
X13156332Y-2921771D01*
X15334779Y-5082511D02*
X15334779Y-4870377D01*
X15122645Y-4870377D01*
X15122645Y-5082511D01*
X15334779Y-5082511D01*
X15335479Y-6988511D02*
X15335479Y-6776377D01*
X15123345Y-6776377D01*
X15123345Y-6988511D01*
X15335479Y-6988511D01*
X15335979Y-3177761D02*
X15335979Y-2965627D01*
X15123845Y-2965627D01*
X15123845Y-3177761D01*
X15335979Y-3177761D01*
X15969779Y-4828511D02*
X15969779Y-4616377D01*
X15757645Y-4616377D01*
X15757645Y-4828511D01*
X15969779Y-4828511D01*
X15970479Y-6734511D02*
X15970479Y-6522377D01*
X15758345Y-6522377D01*
X15758345Y-6734511D01*
X15970479Y-6734511D01*
X15970979Y-2923761D02*
X15970979Y-2711627D01*
X15758845Y-2711627D01*
X15758845Y-2923761D01*
X15970979Y-2923761D01*
X17238979Y-5083511D02*
X17238979Y-4871377D01*
X17026845Y-4871377D01*
X17026845Y-5083511D01*
X17238979Y-5083511D01*
X17239479Y-6988511D02*
X17239479Y-6776377D01*
X17027345Y-6776377D01*
X17027345Y-6988511D01*
X17239479Y-6988511D01*
X17240479Y-3180511D02*
X17240479Y-2968377D01*
X17028345Y-2968377D01*
X17028345Y-3180511D01*
X17240479Y-3180511D01*
X17873979Y-4829511D02*
X17873979Y-4617377D01*
X17661845Y-4617377D01*
X17661845Y-4829511D01*
X17873979Y-4829511D01*
X17874479Y-6734511D02*
X17874479Y-6522377D01*
X17662345Y-6522377D01*
X17662345Y-6734511D01*
X17874479Y-6734511D01*
X17875479Y-2926511D02*
X17875479Y-2714377D01*
X17663345Y-2714377D01*
X17663345Y-2926511D01*
X17875479Y-2926511D01*
X19144979Y-3180511D02*
X19144979Y-2968377D01*
X18932845Y-2968377D01*
X18932845Y-3180511D01*
X19144979Y-3180511D01*
X19146979Y-5084511D02*
X19146979Y-4872377D01*
X18934845Y-4872377D01*
X18934845Y-5084511D01*
X19146979Y-5084511D01*
X19147979Y-6990511D02*
X19147979Y-6778377D01*
X18935845Y-6778377D01*
X18935845Y-6990511D01*
X19147979Y-6990511D01*
X19779979Y-2926511D02*
X19779979Y-2714377D01*
X19567845Y-2714377D01*
X19567845Y-2926511D01*
X19779979Y-2926511D01*
X19781979Y-4830511D02*
X19781979Y-4618377D01*
X19569845Y-4618377D01*
X19569845Y-4830511D01*
X19781979Y-4830511D01*
X19782979Y-6736511D02*
X19782979Y-6524377D01*
X19570845Y-6524377D01*
X19570845Y-6736511D01*
X19782979Y-6736511D01*
X21049979Y-3180511D02*
X21049979Y-2968377D01*
X20837845Y-2968377D01*
X20837845Y-3180511D01*
X21049979Y-3180511D01*
X21050479Y-5083511D02*
X21050479Y-4871377D01*
X20838345Y-4871377D01*
X20838345Y-5083511D01*
X21050479Y-5083511D01*
X21051979Y-6991511D02*
X21051979Y-6779377D01*
X20839845Y-6779377D01*
X20839845Y-6991511D01*
X21051979Y-6991511D01*
X21684979Y-2926511D02*
X21684979Y-2714377D01*
X21472845Y-2714377D01*
X21472845Y-2926511D01*
X21684979Y-2926511D01*
X21685479Y-4829511D02*
X21685479Y-4617377D01*
X21473345Y-4617377D01*
X21473345Y-4829511D01*
X21685479Y-4829511D01*
X21686979Y-6737511D02*
X21686979Y-6525377D01*
X21474845Y-6525377D01*
X21474845Y-6737511D01*
X21686979Y-6737511D01*
X22042067Y-9280067D02*
X22042067Y-9067933D01*
X21829933Y-9067933D01*
X21829933Y-9280067D01*
X22042067Y-9280067D01*
X22677067Y-9026067D02*
X22677067Y-8813933D01*
X22464933Y-8813933D01*
X22464933Y-9026067D01*
X22677067Y-9026067D01*
X22956979Y-3180511D02*
X22956979Y-2968377D01*
X22744845Y-2968377D01*
X22744845Y-3180511D01*
X22956979Y-3180511D01*
X22956979Y-5087511D02*
X22956979Y-4875377D01*
X22744845Y-4875377D01*
X22744845Y-5087511D01*
X22956979Y-5087511D01*
X22956979Y-6991511D02*
X22956979Y-6779377D01*
X22744845Y-6779377D01*
X22744845Y-6991511D01*
X22956979Y-6991511D01*
X23591979Y-2926511D02*
X23591979Y-2714377D01*
X23379845Y-2714377D01*
X23379845Y-2926511D01*
X23591979Y-2926511D01*
X23591979Y-4833511D02*
X23591979Y-4621377D01*
X23379845Y-4621377D01*
X23379845Y-4833511D01*
X23591979Y-4833511D01*
X23591979Y-6737511D02*
X23591979Y-6525377D01*
X23379845Y-6525377D01*
X23379845Y-6737511D01*
X23591979Y-6737511D01*
X24660067Y-9280067D02*
X24660067Y-9067933D01*
X24447933Y-9067933D01*
X24447933Y-9280067D01*
X24660067Y-9280067D01*
X25295067Y-9026067D02*
X25295067Y-8813933D01*
X25082933Y-8813933D01*
X25082933Y-9026067D01*
X25295067Y-9026067D01*
D16*
X3482465Y-9627094D02*
X3681855Y-9427704D01*
X3482465Y-9228314D01*
X3283075Y-9427704D01*
X3482465Y-9627094D01*
X5179465Y-3522094D02*
X5378855Y-3322704D01*
X5179465Y-3123314D01*
X4980075Y-3322704D01*
X5179465Y-3522094D01*
X5179465Y-5424094D02*
X5378855Y-5224704D01*
X5179465Y-5025314D01*
X4980075Y-5224704D01*
X5179465Y-5424094D01*
X5179465Y-7327094D02*
X5378855Y-7127704D01*
X5179465Y-6928314D01*
X4980075Y-7127704D01*
X5179465Y-7327094D01*
X6101965Y-9626094D02*
X6301355Y-9426704D01*
X6101965Y-9227314D01*
X5902575Y-9426704D01*
X6101965Y-9626094D01*
X7079265Y-5424094D02*
X7278655Y-5224704D01*
X7079265Y-5025314D01*
X6879875Y-5224704D01*
X7079265Y-5424094D01*
X7082465Y-3522094D02*
X7281855Y-3322704D01*
X7082465Y-3123314D01*
X6883075Y-3322704D01*
X7082465Y-3522094D01*
X7082465Y-7327094D02*
X7281855Y-7127704D01*
X7082465Y-6928314D01*
X6883075Y-7127704D01*
X7082465Y-7327094D01*
X8987465Y-5424094D02*
X9186855Y-5224704D01*
X8987465Y-5025314D01*
X8788075Y-5224704D01*
X8987465Y-5424094D01*
X8988465Y-3522094D02*
X9187855Y-3322704D01*
X8988465Y-3123314D01*
X8789075Y-3322704D01*
X8988465Y-3522094D01*
X8988465Y-7327094D02*
X9187855Y-7127704D01*
X8988465Y-6928314D01*
X8789075Y-7127704D01*
X8988465Y-7327094D01*
X10893265Y-3523094D02*
X11092655Y-3323704D01*
X10893265Y-3124314D01*
X10693875Y-3323704D01*
X10893265Y-3523094D01*
X10893465Y-5424094D02*
X11092855Y-5224704D01*
X10893465Y-5025314D01*
X10694075Y-5224704D01*
X10893465Y-5424094D01*
X10894465Y-7327094D02*
X11093855Y-7127704D01*
X10894465Y-6928314D01*
X10695075Y-7127704D01*
X10894465Y-7327094D01*
X12792465Y-5424094D02*
X12991855Y-5224704D01*
X12792465Y-5025314D01*
X12593075Y-5224704D01*
X12792465Y-5424094D01*
X12796000Y-7326390D02*
X12995390Y-7127000D01*
X12796000Y-6927610D01*
X12596610Y-7127000D01*
X12796000Y-7326390D01*
X12796265Y-3523094D02*
X12995655Y-3323704D01*
X12796265Y-3124314D01*
X12596875Y-3323704D01*
X12796265Y-3523094D01*
X15609712Y-5429834D02*
X15809102Y-5230444D01*
X15609712Y-5031054D01*
X15410322Y-5230444D01*
X15609712Y-5429834D01*
X15610412Y-7335834D02*
X15809802Y-7136444D01*
X15610412Y-6937054D01*
X15411022Y-7136444D01*
X15610412Y-7335834D01*
X15610912Y-3525084D02*
X15810302Y-3325694D01*
X15610912Y-3126304D01*
X15411522Y-3325694D01*
X15610912Y-3525084D01*
X17513912Y-5430834D02*
X17713302Y-5231444D01*
X17513912Y-5032054D01*
X17314522Y-5231444D01*
X17513912Y-5430834D01*
X17514412Y-7335834D02*
X17713802Y-7136444D01*
X17514412Y-6937054D01*
X17315022Y-7136444D01*
X17514412Y-7335834D01*
X17515412Y-3527834D02*
X17714802Y-3328444D01*
X17515412Y-3129054D01*
X17316022Y-3328444D01*
X17515412Y-3527834D01*
X19419912Y-3527834D02*
X19619302Y-3328444D01*
X19419912Y-3129054D01*
X19220522Y-3328444D01*
X19419912Y-3527834D01*
X19421912Y-5431834D02*
X19621302Y-5232444D01*
X19421912Y-5033054D01*
X19222522Y-5232444D01*
X19421912Y-5431834D01*
X19422912Y-7337834D02*
X19622302Y-7138444D01*
X19422912Y-6939054D01*
X19223522Y-7138444D01*
X19422912Y-7337834D01*
X21324912Y-3527834D02*
X21524302Y-3328444D01*
X21324912Y-3129054D01*
X21125522Y-3328444D01*
X21324912Y-3527834D01*
X21325412Y-5430834D02*
X21524802Y-5231444D01*
X21325412Y-5032054D01*
X21126022Y-5231444D01*
X21325412Y-5430834D01*
X21326912Y-7338834D02*
X21526302Y-7139444D01*
X21326912Y-6940054D01*
X21127522Y-7139444D01*
X21326912Y-7338834D01*
X22317000Y-9627390D02*
X22516390Y-9428000D01*
X22317000Y-9228610D01*
X22117610Y-9428000D01*
X22317000Y-9627390D01*
X23231912Y-3527834D02*
X23431302Y-3328444D01*
X23231912Y-3129054D01*
X23032522Y-3328444D01*
X23231912Y-3527834D01*
X23231912Y-5434834D02*
X23431302Y-5235444D01*
X23231912Y-5036054D01*
X23032522Y-5235444D01*
X23231912Y-5434834D01*
X23231912Y-7338834D02*
X23431302Y-7139444D01*
X23231912Y-6940054D01*
X23032522Y-7139444D01*
X23231912Y-7338834D01*
X24935000Y-9627390D02*
X25134390Y-9428000D01*
X24935000Y-9228610D01*
X24735610Y-9428000D01*
X24935000Y-9627390D01*
D11*
X2524356Y-10928977D02*
X2524356Y-10728977D01*
X2524356Y-10728977D02*
X2571975Y-10728977D01*
X2571975Y-10728977D02*
X2600546Y-10738501D01*
X2600546Y-10738501D02*
X2619594Y-10757548D01*
X2619594Y-10757548D02*
X2629118Y-10776596D01*
X2629118Y-10776596D02*
X2638641Y-10814691D01*
X2638641Y-10814691D02*
X2638641Y-10843263D01*
X2638641Y-10843263D02*
X2629118Y-10881358D01*
X2629118Y-10881358D02*
X2619594Y-10900405D01*
X2619594Y-10900405D02*
X2600546Y-10919453D01*
X2600546Y-10919453D02*
X2571975Y-10928977D01*
X2571975Y-10928977D02*
X2524356Y-10928977D01*
X2724356Y-10928977D02*
X2724356Y-10795644D01*
X2724356Y-10833739D02*
X2733879Y-10814691D01*
X2733879Y-10814691D02*
X2743403Y-10805167D01*
X2743403Y-10805167D02*
X2762451Y-10795644D01*
X2762451Y-10795644D02*
X2781499Y-10795644D01*
X2848165Y-10928977D02*
X2848165Y-10795644D01*
X2848165Y-10728977D02*
X2838641Y-10738501D01*
X2838641Y-10738501D02*
X2848165Y-10748025D01*
X2848165Y-10748025D02*
X2857689Y-10738501D01*
X2857689Y-10738501D02*
X2848165Y-10728977D01*
X2848165Y-10728977D02*
X2848165Y-10748025D01*
X2971975Y-10928977D02*
X2952927Y-10919453D01*
X2952927Y-10919453D02*
X2943403Y-10900405D01*
X2943403Y-10900405D02*
X2943403Y-10728977D01*
X3076736Y-10928977D02*
X3057689Y-10919453D01*
X3057689Y-10919453D02*
X3048165Y-10900405D01*
X3048165Y-10900405D02*
X3048165Y-10728977D01*
X3272927Y-10928977D02*
X3272927Y-10728977D01*
X3272927Y-10728977D02*
X3339594Y-10871834D01*
X3339594Y-10871834D02*
X3406260Y-10728977D01*
X3406260Y-10728977D02*
X3406260Y-10928977D01*
X3587213Y-10928977D02*
X3587213Y-10824215D01*
X3587213Y-10824215D02*
X3577689Y-10805167D01*
X3577689Y-10805167D02*
X3558641Y-10795644D01*
X3558641Y-10795644D02*
X3520546Y-10795644D01*
X3520546Y-10795644D02*
X3501498Y-10805167D01*
X3587213Y-10919453D02*
X3568165Y-10928977D01*
X3568165Y-10928977D02*
X3520546Y-10928977D01*
X3520546Y-10928977D02*
X3501498Y-10919453D01*
X3501498Y-10919453D02*
X3491975Y-10900405D01*
X3491975Y-10900405D02*
X3491975Y-10881358D01*
X3491975Y-10881358D02*
X3501498Y-10862310D01*
X3501498Y-10862310D02*
X3520546Y-10852786D01*
X3520546Y-10852786D02*
X3568165Y-10852786D01*
X3568165Y-10852786D02*
X3587213Y-10843263D01*
X3682451Y-10795644D02*
X3682451Y-10995644D01*
X3682451Y-10805167D02*
X3701498Y-10795644D01*
X3701498Y-10795644D02*
X3739594Y-10795644D01*
X3739594Y-10795644D02*
X3758641Y-10805167D01*
X3758641Y-10805167D02*
X3768165Y-10814691D01*
X3768165Y-10814691D02*
X3777689Y-10833739D01*
X3777689Y-10833739D02*
X3777689Y-10890882D01*
X3777689Y-10890882D02*
X3768165Y-10909929D01*
X3768165Y-10909929D02*
X3758641Y-10919453D01*
X3758641Y-10919453D02*
X3739594Y-10928977D01*
X3739594Y-10928977D02*
X3701498Y-10928977D01*
X3701498Y-10928977D02*
X3682451Y-10919453D01*
X3863403Y-10909929D02*
X3872927Y-10919453D01*
X3872927Y-10919453D02*
X3863403Y-10928977D01*
X3863403Y-10928977D02*
X3853879Y-10919453D01*
X3853879Y-10919453D02*
X3863403Y-10909929D01*
X3863403Y-10909929D02*
X3863403Y-10928977D01*
X3863403Y-10805167D02*
X3872927Y-10814691D01*
X3872927Y-10814691D02*
X3863403Y-10824215D01*
X3863403Y-10824215D02*
X3853879Y-10814691D01*
X3853879Y-10814691D02*
X3863403Y-10805167D01*
X3863403Y-10805167D02*
X3863403Y-10824215D01*
D12*
X2246737Y-11260501D02*
X2276737Y-11290501D01*
X2276737Y-11260501D02*
X2246737Y-11290501D01*
D11*
X2562451Y-11148977D02*
X2581499Y-11148977D01*
X2581499Y-11148977D02*
X2600546Y-11158501D01*
X2600546Y-11158501D02*
X2610070Y-11168025D01*
X2610070Y-11168025D02*
X2619594Y-11187072D01*
X2619594Y-11187072D02*
X2629118Y-11225167D01*
X2629118Y-11225167D02*
X2629118Y-11272786D01*
X2629118Y-11272786D02*
X2619594Y-11310882D01*
X2619594Y-11310882D02*
X2610070Y-11329929D01*
X2610070Y-11329929D02*
X2600546Y-11339453D01*
X2600546Y-11339453D02*
X2581499Y-11348977D01*
X2581499Y-11348977D02*
X2562451Y-11348977D01*
X2562451Y-11348977D02*
X2543403Y-11339453D01*
X2543403Y-11339453D02*
X2533879Y-11329929D01*
X2533879Y-11329929D02*
X2524356Y-11310882D01*
X2524356Y-11310882D02*
X2514832Y-11272786D01*
X2514832Y-11272786D02*
X2514832Y-11225167D01*
X2514832Y-11225167D02*
X2524356Y-11187072D01*
X2524356Y-11187072D02*
X2533879Y-11168025D01*
X2533879Y-11168025D02*
X2543403Y-11158501D01*
X2543403Y-11158501D02*
X2562451Y-11148977D01*
X2714832Y-11329929D02*
X2724356Y-11339453D01*
X2724356Y-11339453D02*
X2714832Y-11348977D01*
X2714832Y-11348977D02*
X2705308Y-11339453D01*
X2705308Y-11339453D02*
X2714832Y-11329929D01*
X2714832Y-11329929D02*
X2714832Y-11348977D01*
X2791022Y-11148977D02*
X2914832Y-11148977D01*
X2914832Y-11148977D02*
X2848165Y-11225167D01*
X2848165Y-11225167D02*
X2876737Y-11225167D01*
X2876737Y-11225167D02*
X2895784Y-11234691D01*
X2895784Y-11234691D02*
X2905308Y-11244215D01*
X2905308Y-11244215D02*
X2914832Y-11263263D01*
X2914832Y-11263263D02*
X2914832Y-11310882D01*
X2914832Y-11310882D02*
X2905308Y-11329929D01*
X2905308Y-11329929D02*
X2895784Y-11339453D01*
X2895784Y-11339453D02*
X2876737Y-11348977D01*
X2876737Y-11348977D02*
X2819594Y-11348977D01*
X2819594Y-11348977D02*
X2800546Y-11339453D01*
X2800546Y-11339453D02*
X2791022Y-11329929D01*
X3038641Y-11148977D02*
X3057689Y-11148977D01*
X3057689Y-11148977D02*
X3076737Y-11158501D01*
X3076737Y-11158501D02*
X3086260Y-11168025D01*
X3086260Y-11168025D02*
X3095784Y-11187072D01*
X3095784Y-11187072D02*
X3105308Y-11225167D01*
X3105308Y-11225167D02*
X3105308Y-11272786D01*
X3105308Y-11272786D02*
X3095784Y-11310882D01*
X3095784Y-11310882D02*
X3086260Y-11329929D01*
X3086260Y-11329929D02*
X3076737Y-11339453D01*
X3076737Y-11339453D02*
X3057689Y-11348977D01*
X3057689Y-11348977D02*
X3038641Y-11348977D01*
X3038641Y-11348977D02*
X3019594Y-11339453D01*
X3019594Y-11339453D02*
X3010070Y-11329929D01*
X3010070Y-11329929D02*
X3000546Y-11310882D01*
X3000546Y-11310882D02*
X2991022Y-11272786D01*
X2991022Y-11272786D02*
X2991022Y-11225167D01*
X2991022Y-11225167D02*
X3000546Y-11187072D01*
X3000546Y-11187072D02*
X3010070Y-11168025D01*
X3010070Y-11168025D02*
X3019594Y-11158501D01*
X3019594Y-11158501D02*
X3038641Y-11148977D01*
X3229117Y-11148977D02*
X3248165Y-11148977D01*
X3248165Y-11148977D02*
X3267213Y-11158501D01*
X3267213Y-11158501D02*
X3276737Y-11168025D01*
X3276737Y-11168025D02*
X3286260Y-11187072D01*
X3286260Y-11187072D02*
X3295784Y-11225167D01*
X3295784Y-11225167D02*
X3295784Y-11272786D01*
X3295784Y-11272786D02*
X3286260Y-11310882D01*
X3286260Y-11310882D02*
X3276737Y-11329929D01*
X3276737Y-11329929D02*
X3267213Y-11339453D01*
X3267213Y-11339453D02*
X3248165Y-11348977D01*
X3248165Y-11348977D02*
X3229117Y-11348977D01*
X3229117Y-11348977D02*
X3210070Y-11339453D01*
X3210070Y-11339453D02*
X3200546Y-11329929D01*
X3200546Y-11329929D02*
X3191022Y-11310882D01*
X3191022Y-11310882D02*
X3181498Y-11272786D01*
X3181498Y-11272786D02*
X3181498Y-11225167D01*
X3181498Y-11225167D02*
X3191022Y-11187072D01*
X3191022Y-11187072D02*
X3200546Y-11168025D01*
X3200546Y-11168025D02*
X3210070Y-11158501D01*
X3210070Y-11158501D02*
X3229117Y-11148977D01*
X3381498Y-11348977D02*
X3381498Y-11215643D01*
X3381498Y-11234691D02*
X3391022Y-11225167D01*
X3391022Y-11225167D02*
X3410070Y-11215643D01*
X3410070Y-11215643D02*
X3438641Y-11215643D01*
X3438641Y-11215643D02*
X3457689Y-11225167D01*
X3457689Y-11225167D02*
X3467213Y-11244215D01*
X3467213Y-11244215D02*
X3467213Y-11348977D01*
X3467213Y-11244215D02*
X3476737Y-11225167D01*
X3476737Y-11225167D02*
X3495784Y-11215643D01*
X3495784Y-11215643D02*
X3524356Y-11215643D01*
X3524356Y-11215643D02*
X3543403Y-11225167D01*
X3543403Y-11225167D02*
X3552927Y-11244215D01*
X3552927Y-11244215D02*
X3552927Y-11348977D01*
X3648165Y-11348977D02*
X3648165Y-11215643D01*
X3648165Y-11234691D02*
X3657689Y-11225167D01*
X3657689Y-11225167D02*
X3676737Y-11215643D01*
X3676737Y-11215643D02*
X3705308Y-11215643D01*
X3705308Y-11215643D02*
X3724356Y-11225167D01*
X3724356Y-11225167D02*
X3733879Y-11244215D01*
X3733879Y-11244215D02*
X3733879Y-11348977D01*
X3733879Y-11244215D02*
X3743403Y-11225167D01*
X3743403Y-11225167D02*
X3762451Y-11215643D01*
X3762451Y-11215643D02*
X3791022Y-11215643D01*
X3791022Y-11215643D02*
X3810070Y-11225167D01*
X3810070Y-11225167D02*
X3819594Y-11244215D01*
X3819594Y-11244215D02*
X3819594Y-11348977D01*
X4177689Y-11139453D02*
X4006260Y-11396596D01*
X4402451Y-11148977D02*
X4421499Y-11148977D01*
X4421499Y-11148977D02*
X4440546Y-11158501D01*
X4440546Y-11158501D02*
X4450070Y-11168025D01*
X4450070Y-11168025D02*
X4459594Y-11187072D01*
X4459594Y-11187072D02*
X4469118Y-11225167D01*
X4469118Y-11225167D02*
X4469118Y-11272786D01*
X4469118Y-11272786D02*
X4459594Y-11310882D01*
X4459594Y-11310882D02*
X4450070Y-11329929D01*
X4450070Y-11329929D02*
X4440546Y-11339453D01*
X4440546Y-11339453D02*
X4421499Y-11348977D01*
X4421499Y-11348977D02*
X4402451Y-11348977D01*
X4402451Y-11348977D02*
X4383403Y-11339453D01*
X4383403Y-11339453D02*
X4373880Y-11329929D01*
X4373880Y-11329929D02*
X4364356Y-11310882D01*
X4364356Y-11310882D02*
X4354832Y-11272786D01*
X4354832Y-11272786D02*
X4354832Y-11225167D01*
X4354832Y-11225167D02*
X4364356Y-11187072D01*
X4364356Y-11187072D02*
X4373880Y-11168025D01*
X4373880Y-11168025D02*
X4383403Y-11158501D01*
X4383403Y-11158501D02*
X4402451Y-11148977D01*
X4554832Y-11329929D02*
X4564356Y-11339453D01*
X4564356Y-11339453D02*
X4554832Y-11348977D01*
X4554832Y-11348977D02*
X4545308Y-11339453D01*
X4545308Y-11339453D02*
X4554832Y-11329929D01*
X4554832Y-11329929D02*
X4554832Y-11348977D01*
X4688165Y-11148977D02*
X4707213Y-11148977D01*
X4707213Y-11148977D02*
X4726261Y-11158501D01*
X4726261Y-11158501D02*
X4735784Y-11168025D01*
X4735784Y-11168025D02*
X4745308Y-11187072D01*
X4745308Y-11187072D02*
X4754832Y-11225167D01*
X4754832Y-11225167D02*
X4754832Y-11272786D01*
X4754832Y-11272786D02*
X4745308Y-11310882D01*
X4745308Y-11310882D02*
X4735784Y-11329929D01*
X4735784Y-11329929D02*
X4726261Y-11339453D01*
X4726261Y-11339453D02*
X4707213Y-11348977D01*
X4707213Y-11348977D02*
X4688165Y-11348977D01*
X4688165Y-11348977D02*
X4669118Y-11339453D01*
X4669118Y-11339453D02*
X4659594Y-11329929D01*
X4659594Y-11329929D02*
X4650070Y-11310882D01*
X4650070Y-11310882D02*
X4640546Y-11272786D01*
X4640546Y-11272786D02*
X4640546Y-11225167D01*
X4640546Y-11225167D02*
X4650070Y-11187072D01*
X4650070Y-11187072D02*
X4659594Y-11168025D01*
X4659594Y-11168025D02*
X4669118Y-11158501D01*
X4669118Y-11158501D02*
X4688165Y-11148977D01*
X4945308Y-11348977D02*
X4831022Y-11348977D01*
X4888165Y-11348977D02*
X4888165Y-11148977D01*
X4888165Y-11148977D02*
X4869118Y-11177548D01*
X4869118Y-11177548D02*
X4850070Y-11196596D01*
X4850070Y-11196596D02*
X4831022Y-11206120D01*
X5135784Y-11348977D02*
X5021499Y-11348977D01*
X5078641Y-11348977D02*
X5078641Y-11148977D01*
X5078641Y-11148977D02*
X5059594Y-11177548D01*
X5059594Y-11177548D02*
X5040546Y-11196596D01*
X5040546Y-11196596D02*
X5021499Y-11206120D01*
X5250070Y-11234691D02*
X5231022Y-11225167D01*
X5231022Y-11225167D02*
X5221499Y-11215643D01*
X5221499Y-11215643D02*
X5211975Y-11196596D01*
X5211975Y-11196596D02*
X5211975Y-11187072D01*
X5211975Y-11187072D02*
X5221499Y-11168025D01*
X5221499Y-11168025D02*
X5231022Y-11158501D01*
X5231022Y-11158501D02*
X5250070Y-11148977D01*
X5250070Y-11148977D02*
X5288165Y-11148977D01*
X5288165Y-11148977D02*
X5307213Y-11158501D01*
X5307213Y-11158501D02*
X5316737Y-11168025D01*
X5316737Y-11168025D02*
X5326261Y-11187072D01*
X5326261Y-11187072D02*
X5326261Y-11196596D01*
X5326261Y-11196596D02*
X5316737Y-11215643D01*
X5316737Y-11215643D02*
X5307213Y-11225167D01*
X5307213Y-11225167D02*
X5288165Y-11234691D01*
X5288165Y-11234691D02*
X5250070Y-11234691D01*
X5250070Y-11234691D02*
X5231022Y-11244215D01*
X5231022Y-11244215D02*
X5221499Y-11253739D01*
X5221499Y-11253739D02*
X5211975Y-11272786D01*
X5211975Y-11272786D02*
X5211975Y-11310882D01*
X5211975Y-11310882D02*
X5221499Y-11329929D01*
X5221499Y-11329929D02*
X5231022Y-11339453D01*
X5231022Y-11339453D02*
X5250070Y-11348977D01*
X5250070Y-11348977D02*
X5288165Y-11348977D01*
X5288165Y-11348977D02*
X5307213Y-11339453D01*
X5307213Y-11339453D02*
X5316737Y-11329929D01*
X5316737Y-11329929D02*
X5326261Y-11310882D01*
X5326261Y-11310882D02*
X5326261Y-11272786D01*
X5326261Y-11272786D02*
X5316737Y-11253739D01*
X5316737Y-11253739D02*
X5307213Y-11244215D01*
X5307213Y-11244215D02*
X5288165Y-11234691D01*
X5402451Y-11148977D02*
X5402451Y-11187072D01*
X5478642Y-11148977D02*
X5478642Y-11187072D01*
X5741499Y-11425167D02*
X5731975Y-11415643D01*
X5731975Y-11415643D02*
X5712927Y-11387072D01*
X5712927Y-11387072D02*
X5703403Y-11368024D01*
X5703403Y-11368024D02*
X5693880Y-11339453D01*
X5693880Y-11339453D02*
X5684356Y-11291834D01*
X5684356Y-11291834D02*
X5684356Y-11253739D01*
X5684356Y-11253739D02*
X5693880Y-11206120D01*
X5693880Y-11206120D02*
X5703403Y-11177548D01*
X5703403Y-11177548D02*
X5712927Y-11158501D01*
X5712927Y-11158501D02*
X5731975Y-11129929D01*
X5731975Y-11129929D02*
X5741499Y-11120405D01*
X5912927Y-11148977D02*
X5817689Y-11148977D01*
X5817689Y-11148977D02*
X5808165Y-11244215D01*
X5808165Y-11244215D02*
X5817689Y-11234691D01*
X5817689Y-11234691D02*
X5836737Y-11225167D01*
X5836737Y-11225167D02*
X5884356Y-11225167D01*
X5884356Y-11225167D02*
X5903403Y-11234691D01*
X5903403Y-11234691D02*
X5912927Y-11244215D01*
X5912927Y-11244215D02*
X5922451Y-11263263D01*
X5922451Y-11263263D02*
X5922451Y-11310882D01*
X5922451Y-11310882D02*
X5912927Y-11329929D01*
X5912927Y-11329929D02*
X5903403Y-11339453D01*
X5903403Y-11339453D02*
X5884356Y-11348977D01*
X5884356Y-11348977D02*
X5836737Y-11348977D01*
X5836737Y-11348977D02*
X5817689Y-11339453D01*
X5817689Y-11339453D02*
X5808165Y-11329929D01*
X6093880Y-11215643D02*
X6093880Y-11348977D01*
X6046260Y-11139453D02*
X5998641Y-11282310D01*
X5998641Y-11282310D02*
X6122451Y-11282310D01*
X6318641Y-11348977D02*
X6318641Y-11148977D01*
X6404356Y-11348977D02*
X6404356Y-11244215D01*
X6404356Y-11244215D02*
X6394832Y-11225167D01*
X6394832Y-11225167D02*
X6375784Y-11215643D01*
X6375784Y-11215643D02*
X6347213Y-11215643D01*
X6347213Y-11215643D02*
X6328165Y-11225167D01*
X6328165Y-11225167D02*
X6318641Y-11234691D01*
X6528165Y-11348977D02*
X6509118Y-11339453D01*
X6509118Y-11339453D02*
X6499594Y-11329929D01*
X6499594Y-11329929D02*
X6490070Y-11310882D01*
X6490070Y-11310882D02*
X6490070Y-11253739D01*
X6490070Y-11253739D02*
X6499594Y-11234691D01*
X6499594Y-11234691D02*
X6509118Y-11225167D01*
X6509118Y-11225167D02*
X6528165Y-11215643D01*
X6528165Y-11215643D02*
X6556737Y-11215643D01*
X6556737Y-11215643D02*
X6575784Y-11225167D01*
X6575784Y-11225167D02*
X6585308Y-11234691D01*
X6585308Y-11234691D02*
X6594832Y-11253739D01*
X6594832Y-11253739D02*
X6594832Y-11310882D01*
X6594832Y-11310882D02*
X6585308Y-11329929D01*
X6585308Y-11329929D02*
X6575784Y-11339453D01*
X6575784Y-11339453D02*
X6556737Y-11348977D01*
X6556737Y-11348977D02*
X6528165Y-11348977D01*
X6709118Y-11348977D02*
X6690070Y-11339453D01*
X6690070Y-11339453D02*
X6680546Y-11320405D01*
X6680546Y-11320405D02*
X6680546Y-11148977D01*
X6861499Y-11339453D02*
X6842451Y-11348977D01*
X6842451Y-11348977D02*
X6804356Y-11348977D01*
X6804356Y-11348977D02*
X6785308Y-11339453D01*
X6785308Y-11339453D02*
X6775784Y-11320405D01*
X6775784Y-11320405D02*
X6775784Y-11244215D01*
X6775784Y-11244215D02*
X6785308Y-11225167D01*
X6785308Y-11225167D02*
X6804356Y-11215643D01*
X6804356Y-11215643D02*
X6842451Y-11215643D01*
X6842451Y-11215643D02*
X6861499Y-11225167D01*
X6861499Y-11225167D02*
X6871022Y-11244215D01*
X6871022Y-11244215D02*
X6871022Y-11263263D01*
X6871022Y-11263263D02*
X6775784Y-11282310D01*
X6947213Y-11339453D02*
X6966261Y-11348977D01*
X6966261Y-11348977D02*
X7004356Y-11348977D01*
X7004356Y-11348977D02*
X7023403Y-11339453D01*
X7023403Y-11339453D02*
X7032927Y-11320405D01*
X7032927Y-11320405D02*
X7032927Y-11310882D01*
X7032927Y-11310882D02*
X7023403Y-11291834D01*
X7023403Y-11291834D02*
X7004356Y-11282310D01*
X7004356Y-11282310D02*
X6975784Y-11282310D01*
X6975784Y-11282310D02*
X6956737Y-11272786D01*
X6956737Y-11272786D02*
X6947213Y-11253739D01*
X6947213Y-11253739D02*
X6947213Y-11244215D01*
X6947213Y-11244215D02*
X6956737Y-11225167D01*
X6956737Y-11225167D02*
X6975784Y-11215643D01*
X6975784Y-11215643D02*
X7004356Y-11215643D01*
X7004356Y-11215643D02*
X7023403Y-11225167D01*
X7099594Y-11425167D02*
X7109118Y-11415643D01*
X7109118Y-11415643D02*
X7128165Y-11387072D01*
X7128165Y-11387072D02*
X7137689Y-11368024D01*
X7137689Y-11368024D02*
X7147213Y-11339453D01*
X7147213Y-11339453D02*
X7156737Y-11291834D01*
X7156737Y-11291834D02*
X7156737Y-11253739D01*
X7156737Y-11253739D02*
X7147213Y-11206120D01*
X7147213Y-11206120D02*
X7137689Y-11177548D01*
X7137689Y-11177548D02*
X7128165Y-11158501D01*
X7128165Y-11158501D02*
X7109118Y-11129929D01*
X7109118Y-11129929D02*
X7099594Y-11120405D01*
X7429118Y-11425167D02*
X7419594Y-11415643D01*
X7419594Y-11415643D02*
X7400546Y-11387072D01*
X7400546Y-11387072D02*
X7391022Y-11368024D01*
X7391022Y-11368024D02*
X7381499Y-11339453D01*
X7381499Y-11339453D02*
X7371975Y-11291834D01*
X7371975Y-11291834D02*
X7371975Y-11253739D01*
X7371975Y-11253739D02*
X7381499Y-11206120D01*
X7381499Y-11206120D02*
X7391022Y-11177548D01*
X7391022Y-11177548D02*
X7400546Y-11158501D01*
X7400546Y-11158501D02*
X7419594Y-11129929D01*
X7419594Y-11129929D02*
X7429118Y-11120405D01*
X7505308Y-11215643D02*
X7505308Y-11348977D01*
X7505308Y-11234691D02*
X7514832Y-11225167D01*
X7514832Y-11225167D02*
X7533880Y-11215643D01*
X7533880Y-11215643D02*
X7562451Y-11215643D01*
X7562451Y-11215643D02*
X7581499Y-11225167D01*
X7581499Y-11225167D02*
X7591022Y-11244215D01*
X7591022Y-11244215D02*
X7591022Y-11348977D01*
X7714832Y-11348977D02*
X7695784Y-11339453D01*
X7695784Y-11339453D02*
X7686261Y-11329929D01*
X7686261Y-11329929D02*
X7676737Y-11310882D01*
X7676737Y-11310882D02*
X7676737Y-11253739D01*
X7676737Y-11253739D02*
X7686261Y-11234691D01*
X7686261Y-11234691D02*
X7695784Y-11225167D01*
X7695784Y-11225167D02*
X7714832Y-11215643D01*
X7714832Y-11215643D02*
X7743403Y-11215643D01*
X7743403Y-11215643D02*
X7762451Y-11225167D01*
X7762451Y-11225167D02*
X7771975Y-11234691D01*
X7771975Y-11234691D02*
X7781499Y-11253739D01*
X7781499Y-11253739D02*
X7781499Y-11310882D01*
X7781499Y-11310882D02*
X7771975Y-11329929D01*
X7771975Y-11329929D02*
X7762451Y-11339453D01*
X7762451Y-11339453D02*
X7743403Y-11348977D01*
X7743403Y-11348977D02*
X7714832Y-11348977D01*
X7838642Y-11215643D02*
X7914832Y-11215643D01*
X7867213Y-11148977D02*
X7867213Y-11320405D01*
X7867213Y-11320405D02*
X7876737Y-11339453D01*
X7876737Y-11339453D02*
X7895784Y-11348977D01*
X7895784Y-11348977D02*
X7914832Y-11348977D01*
X8101499Y-11215643D02*
X8101499Y-11415643D01*
X8101499Y-11225167D02*
X8120546Y-11215643D01*
X8120546Y-11215643D02*
X8158642Y-11215643D01*
X8158642Y-11215643D02*
X8177689Y-11225167D01*
X8177689Y-11225167D02*
X8187213Y-11234691D01*
X8187213Y-11234691D02*
X8196737Y-11253739D01*
X8196737Y-11253739D02*
X8196737Y-11310882D01*
X8196737Y-11310882D02*
X8187213Y-11329929D01*
X8187213Y-11329929D02*
X8177689Y-11339453D01*
X8177689Y-11339453D02*
X8158642Y-11348977D01*
X8158642Y-11348977D02*
X8120546Y-11348977D01*
X8120546Y-11348977D02*
X8101499Y-11339453D01*
X8311022Y-11348977D02*
X8291975Y-11339453D01*
X8291975Y-11339453D02*
X8282451Y-11320405D01*
X8282451Y-11320405D02*
X8282451Y-11148977D01*
X8472927Y-11348977D02*
X8472927Y-11244215D01*
X8472927Y-11244215D02*
X8463404Y-11225167D01*
X8463404Y-11225167D02*
X8444356Y-11215643D01*
X8444356Y-11215643D02*
X8406261Y-11215643D01*
X8406261Y-11215643D02*
X8387213Y-11225167D01*
X8472927Y-11339453D02*
X8453880Y-11348977D01*
X8453880Y-11348977D02*
X8406261Y-11348977D01*
X8406261Y-11348977D02*
X8387213Y-11339453D01*
X8387213Y-11339453D02*
X8377689Y-11320405D01*
X8377689Y-11320405D02*
X8377689Y-11301358D01*
X8377689Y-11301358D02*
X8387213Y-11282310D01*
X8387213Y-11282310D02*
X8406261Y-11272786D01*
X8406261Y-11272786D02*
X8453880Y-11272786D01*
X8453880Y-11272786D02*
X8472927Y-11263263D01*
X8539594Y-11215643D02*
X8615784Y-11215643D01*
X8568165Y-11148977D02*
X8568165Y-11320405D01*
X8568165Y-11320405D02*
X8577689Y-11339453D01*
X8577689Y-11339453D02*
X8596737Y-11348977D01*
X8596737Y-11348977D02*
X8615784Y-11348977D01*
X8758642Y-11339453D02*
X8739594Y-11348977D01*
X8739594Y-11348977D02*
X8701499Y-11348977D01*
X8701499Y-11348977D02*
X8682451Y-11339453D01*
X8682451Y-11339453D02*
X8672927Y-11320405D01*
X8672927Y-11320405D02*
X8672927Y-11244215D01*
X8672927Y-11244215D02*
X8682451Y-11225167D01*
X8682451Y-11225167D02*
X8701499Y-11215643D01*
X8701499Y-11215643D02*
X8739594Y-11215643D01*
X8739594Y-11215643D02*
X8758642Y-11225167D01*
X8758642Y-11225167D02*
X8768165Y-11244215D01*
X8768165Y-11244215D02*
X8768165Y-11263263D01*
X8768165Y-11263263D02*
X8672927Y-11282310D01*
X8939594Y-11348977D02*
X8939594Y-11148977D01*
X8939594Y-11339453D02*
X8920546Y-11348977D01*
X8920546Y-11348977D02*
X8882451Y-11348977D01*
X8882451Y-11348977D02*
X8863404Y-11339453D01*
X8863404Y-11339453D02*
X8853880Y-11329929D01*
X8853880Y-11329929D02*
X8844356Y-11310882D01*
X8844356Y-11310882D02*
X8844356Y-11253739D01*
X8844356Y-11253739D02*
X8853880Y-11234691D01*
X8853880Y-11234691D02*
X8863404Y-11225167D01*
X8863404Y-11225167D02*
X8882451Y-11215643D01*
X8882451Y-11215643D02*
X8920546Y-11215643D01*
X8920546Y-11215643D02*
X8939594Y-11225167D01*
X9015785Y-11425167D02*
X9025308Y-11415643D01*
X9025308Y-11415643D02*
X9044356Y-11387072D01*
X9044356Y-11387072D02*
X9053880Y-11368024D01*
X9053880Y-11368024D02*
X9063404Y-11339453D01*
X9063404Y-11339453D02*
X9072927Y-11291834D01*
X9072927Y-11291834D02*
X9072927Y-11253739D01*
X9072927Y-11253739D02*
X9063404Y-11206120D01*
X9063404Y-11206120D02*
X9053880Y-11177548D01*
X9053880Y-11177548D02*
X9044356Y-11158501D01*
X9044356Y-11158501D02*
X9025308Y-11129929D01*
X9025308Y-11129929D02*
X9015785Y-11120405D01*
D13*
X2276737Y-11539501D02*
G75*
G03*
X2276737Y-11539501I-45000J0D01*
G01*
D11*
X2562451Y-11412977D02*
X2581499Y-11412977D01*
X2581499Y-11412977D02*
X2600546Y-11422501D01*
X2600546Y-11422501D02*
X2610070Y-11432024D01*
X2610070Y-11432024D02*
X2619594Y-11451072D01*
X2619594Y-11451072D02*
X2629118Y-11489167D01*
X2629118Y-11489167D02*
X2629118Y-11536786D01*
X2629118Y-11536786D02*
X2619594Y-11574882D01*
X2619594Y-11574882D02*
X2610070Y-11593929D01*
X2610070Y-11593929D02*
X2600546Y-11603453D01*
X2600546Y-11603453D02*
X2581499Y-11612977D01*
X2581499Y-11612977D02*
X2562451Y-11612977D01*
X2562451Y-11612977D02*
X2543403Y-11603453D01*
X2543403Y-11603453D02*
X2533879Y-11593929D01*
X2533879Y-11593929D02*
X2524356Y-11574882D01*
X2524356Y-11574882D02*
X2514832Y-11536786D01*
X2514832Y-11536786D02*
X2514832Y-11489167D01*
X2514832Y-11489167D02*
X2524356Y-11451072D01*
X2524356Y-11451072D02*
X2533879Y-11432024D01*
X2533879Y-11432024D02*
X2543403Y-11422501D01*
X2543403Y-11422501D02*
X2562451Y-11412977D01*
X2714832Y-11593929D02*
X2724356Y-11603453D01*
X2724356Y-11603453D02*
X2714832Y-11612977D01*
X2714832Y-11612977D02*
X2705308Y-11603453D01*
X2705308Y-11603453D02*
X2714832Y-11593929D01*
X2714832Y-11593929D02*
X2714832Y-11612977D01*
X2819594Y-11612977D02*
X2857689Y-11612977D01*
X2857689Y-11612977D02*
X2876737Y-11603453D01*
X2876737Y-11603453D02*
X2886260Y-11593929D01*
X2886260Y-11593929D02*
X2905308Y-11565358D01*
X2905308Y-11565358D02*
X2914832Y-11527263D01*
X2914832Y-11527263D02*
X2914832Y-11451072D01*
X2914832Y-11451072D02*
X2905308Y-11432024D01*
X2905308Y-11432024D02*
X2895784Y-11422501D01*
X2895784Y-11422501D02*
X2876737Y-11412977D01*
X2876737Y-11412977D02*
X2838641Y-11412977D01*
X2838641Y-11412977D02*
X2819594Y-11422501D01*
X2819594Y-11422501D02*
X2810070Y-11432024D01*
X2810070Y-11432024D02*
X2800546Y-11451072D01*
X2800546Y-11451072D02*
X2800546Y-11498691D01*
X2800546Y-11498691D02*
X2810070Y-11517739D01*
X2810070Y-11517739D02*
X2819594Y-11527263D01*
X2819594Y-11527263D02*
X2838641Y-11536786D01*
X2838641Y-11536786D02*
X2876737Y-11536786D01*
X2876737Y-11536786D02*
X2895784Y-11527263D01*
X2895784Y-11527263D02*
X2905308Y-11517739D01*
X2905308Y-11517739D02*
X2914832Y-11498691D01*
X3038641Y-11412977D02*
X3057689Y-11412977D01*
X3057689Y-11412977D02*
X3076737Y-11422501D01*
X3076737Y-11422501D02*
X3086260Y-11432024D01*
X3086260Y-11432024D02*
X3095784Y-11451072D01*
X3095784Y-11451072D02*
X3105308Y-11489167D01*
X3105308Y-11489167D02*
X3105308Y-11536786D01*
X3105308Y-11536786D02*
X3095784Y-11574882D01*
X3095784Y-11574882D02*
X3086260Y-11593929D01*
X3086260Y-11593929D02*
X3076737Y-11603453D01*
X3076737Y-11603453D02*
X3057689Y-11612977D01*
X3057689Y-11612977D02*
X3038641Y-11612977D01*
X3038641Y-11612977D02*
X3019594Y-11603453D01*
X3019594Y-11603453D02*
X3010070Y-11593929D01*
X3010070Y-11593929D02*
X3000546Y-11574882D01*
X3000546Y-11574882D02*
X2991022Y-11536786D01*
X2991022Y-11536786D02*
X2991022Y-11489167D01*
X2991022Y-11489167D02*
X3000546Y-11451072D01*
X3000546Y-11451072D02*
X3010070Y-11432024D01*
X3010070Y-11432024D02*
X3019594Y-11422501D01*
X3019594Y-11422501D02*
X3038641Y-11412977D01*
X3229117Y-11412977D02*
X3248165Y-11412977D01*
X3248165Y-11412977D02*
X3267213Y-11422501D01*
X3267213Y-11422501D02*
X3276737Y-11432024D01*
X3276737Y-11432024D02*
X3286260Y-11451072D01*
X3286260Y-11451072D02*
X3295784Y-11489167D01*
X3295784Y-11489167D02*
X3295784Y-11536786D01*
X3295784Y-11536786D02*
X3286260Y-11574882D01*
X3286260Y-11574882D02*
X3276737Y-11593929D01*
X3276737Y-11593929D02*
X3267213Y-11603453D01*
X3267213Y-11603453D02*
X3248165Y-11612977D01*
X3248165Y-11612977D02*
X3229117Y-11612977D01*
X3229117Y-11612977D02*
X3210070Y-11603453D01*
X3210070Y-11603453D02*
X3200546Y-11593929D01*
X3200546Y-11593929D02*
X3191022Y-11574882D01*
X3191022Y-11574882D02*
X3181498Y-11536786D01*
X3181498Y-11536786D02*
X3181498Y-11489167D01*
X3181498Y-11489167D02*
X3191022Y-11451072D01*
X3191022Y-11451072D02*
X3200546Y-11432024D01*
X3200546Y-11432024D02*
X3210070Y-11422501D01*
X3210070Y-11422501D02*
X3229117Y-11412977D01*
X3381498Y-11612977D02*
X3381498Y-11479643D01*
X3381498Y-11498691D02*
X3391022Y-11489167D01*
X3391022Y-11489167D02*
X3410070Y-11479643D01*
X3410070Y-11479643D02*
X3438641Y-11479643D01*
X3438641Y-11479643D02*
X3457689Y-11489167D01*
X3457689Y-11489167D02*
X3467213Y-11508215D01*
X3467213Y-11508215D02*
X3467213Y-11612977D01*
X3467213Y-11508215D02*
X3476737Y-11489167D01*
X3476737Y-11489167D02*
X3495784Y-11479643D01*
X3495784Y-11479643D02*
X3524356Y-11479643D01*
X3524356Y-11479643D02*
X3543403Y-11489167D01*
X3543403Y-11489167D02*
X3552927Y-11508215D01*
X3552927Y-11508215D02*
X3552927Y-11612977D01*
X3648165Y-11612977D02*
X3648165Y-11479643D01*
X3648165Y-11498691D02*
X3657689Y-11489167D01*
X3657689Y-11489167D02*
X3676737Y-11479643D01*
X3676737Y-11479643D02*
X3705308Y-11479643D01*
X3705308Y-11479643D02*
X3724356Y-11489167D01*
X3724356Y-11489167D02*
X3733879Y-11508215D01*
X3733879Y-11508215D02*
X3733879Y-11612977D01*
X3733879Y-11508215D02*
X3743403Y-11489167D01*
X3743403Y-11489167D02*
X3762451Y-11479643D01*
X3762451Y-11479643D02*
X3791022Y-11479643D01*
X3791022Y-11479643D02*
X3810070Y-11489167D01*
X3810070Y-11489167D02*
X3819594Y-11508215D01*
X3819594Y-11508215D02*
X3819594Y-11612977D01*
X4177689Y-11403453D02*
X4006260Y-11660596D01*
X4402451Y-11412977D02*
X4421499Y-11412977D01*
X4421499Y-11412977D02*
X4440546Y-11422501D01*
X4440546Y-11422501D02*
X4450070Y-11432024D01*
X4450070Y-11432024D02*
X4459594Y-11451072D01*
X4459594Y-11451072D02*
X4469118Y-11489167D01*
X4469118Y-11489167D02*
X4469118Y-11536786D01*
X4469118Y-11536786D02*
X4459594Y-11574882D01*
X4459594Y-11574882D02*
X4450070Y-11593929D01*
X4450070Y-11593929D02*
X4440546Y-11603453D01*
X4440546Y-11603453D02*
X4421499Y-11612977D01*
X4421499Y-11612977D02*
X4402451Y-11612977D01*
X4402451Y-11612977D02*
X4383403Y-11603453D01*
X4383403Y-11603453D02*
X4373880Y-11593929D01*
X4373880Y-11593929D02*
X4364356Y-11574882D01*
X4364356Y-11574882D02*
X4354832Y-11536786D01*
X4354832Y-11536786D02*
X4354832Y-11489167D01*
X4354832Y-11489167D02*
X4364356Y-11451072D01*
X4364356Y-11451072D02*
X4373880Y-11432024D01*
X4373880Y-11432024D02*
X4383403Y-11422501D01*
X4383403Y-11422501D02*
X4402451Y-11412977D01*
X4554832Y-11593929D02*
X4564356Y-11603453D01*
X4564356Y-11603453D02*
X4554832Y-11612977D01*
X4554832Y-11612977D02*
X4545308Y-11603453D01*
X4545308Y-11603453D02*
X4554832Y-11593929D01*
X4554832Y-11593929D02*
X4554832Y-11612977D01*
X4688165Y-11412977D02*
X4707213Y-11412977D01*
X4707213Y-11412977D02*
X4726261Y-11422501D01*
X4726261Y-11422501D02*
X4735784Y-11432024D01*
X4735784Y-11432024D02*
X4745308Y-11451072D01*
X4745308Y-11451072D02*
X4754832Y-11489167D01*
X4754832Y-11489167D02*
X4754832Y-11536786D01*
X4754832Y-11536786D02*
X4745308Y-11574882D01*
X4745308Y-11574882D02*
X4735784Y-11593929D01*
X4735784Y-11593929D02*
X4726261Y-11603453D01*
X4726261Y-11603453D02*
X4707213Y-11612977D01*
X4707213Y-11612977D02*
X4688165Y-11612977D01*
X4688165Y-11612977D02*
X4669118Y-11603453D01*
X4669118Y-11603453D02*
X4659594Y-11593929D01*
X4659594Y-11593929D02*
X4650070Y-11574882D01*
X4650070Y-11574882D02*
X4640546Y-11536786D01*
X4640546Y-11536786D02*
X4640546Y-11489167D01*
X4640546Y-11489167D02*
X4650070Y-11451072D01*
X4650070Y-11451072D02*
X4659594Y-11432024D01*
X4659594Y-11432024D02*
X4669118Y-11422501D01*
X4669118Y-11422501D02*
X4688165Y-11412977D01*
X4821499Y-11412977D02*
X4945308Y-11412977D01*
X4945308Y-11412977D02*
X4878641Y-11489167D01*
X4878641Y-11489167D02*
X4907213Y-11489167D01*
X4907213Y-11489167D02*
X4926261Y-11498691D01*
X4926261Y-11498691D02*
X4935784Y-11508215D01*
X4935784Y-11508215D02*
X4945308Y-11527263D01*
X4945308Y-11527263D02*
X4945308Y-11574882D01*
X4945308Y-11574882D02*
X4935784Y-11593929D01*
X4935784Y-11593929D02*
X4926261Y-11603453D01*
X4926261Y-11603453D02*
X4907213Y-11612977D01*
X4907213Y-11612977D02*
X4850070Y-11612977D01*
X4850070Y-11612977D02*
X4831022Y-11603453D01*
X4831022Y-11603453D02*
X4821499Y-11593929D01*
X5126261Y-11412977D02*
X5031022Y-11412977D01*
X5031022Y-11412977D02*
X5021499Y-11508215D01*
X5021499Y-11508215D02*
X5031022Y-11498691D01*
X5031022Y-11498691D02*
X5050070Y-11489167D01*
X5050070Y-11489167D02*
X5097689Y-11489167D01*
X5097689Y-11489167D02*
X5116737Y-11498691D01*
X5116737Y-11498691D02*
X5126261Y-11508215D01*
X5126261Y-11508215D02*
X5135784Y-11527263D01*
X5135784Y-11527263D02*
X5135784Y-11574882D01*
X5135784Y-11574882D02*
X5126261Y-11593929D01*
X5126261Y-11593929D02*
X5116737Y-11603453D01*
X5116737Y-11603453D02*
X5097689Y-11612977D01*
X5097689Y-11612977D02*
X5050070Y-11612977D01*
X5050070Y-11612977D02*
X5031022Y-11603453D01*
X5031022Y-11603453D02*
X5021499Y-11593929D01*
X5307213Y-11479643D02*
X5307213Y-11612977D01*
X5259594Y-11403453D02*
X5211975Y-11546310D01*
X5211975Y-11546310D02*
X5335784Y-11546310D01*
X5402451Y-11412977D02*
X5402451Y-11451072D01*
X5478642Y-11412977D02*
X5478642Y-11451072D01*
X5741499Y-11689167D02*
X5731975Y-11679643D01*
X5731975Y-11679643D02*
X5712927Y-11651072D01*
X5712927Y-11651072D02*
X5703403Y-11632024D01*
X5703403Y-11632024D02*
X5693880Y-11603453D01*
X5693880Y-11603453D02*
X5684356Y-11555834D01*
X5684356Y-11555834D02*
X5684356Y-11517739D01*
X5684356Y-11517739D02*
X5693880Y-11470120D01*
X5693880Y-11470120D02*
X5703403Y-11441548D01*
X5703403Y-11441548D02*
X5712927Y-11422501D01*
X5712927Y-11422501D02*
X5731975Y-11393929D01*
X5731975Y-11393929D02*
X5741499Y-11384405D01*
X5903403Y-11479643D02*
X5903403Y-11612977D01*
X5855784Y-11403453D02*
X5808165Y-11546310D01*
X5808165Y-11546310D02*
X5931975Y-11546310D01*
X6128165Y-11612977D02*
X6128165Y-11412977D01*
X6213880Y-11612977D02*
X6213880Y-11508215D01*
X6213880Y-11508215D02*
X6204356Y-11489167D01*
X6204356Y-11489167D02*
X6185308Y-11479643D01*
X6185308Y-11479643D02*
X6156737Y-11479643D01*
X6156737Y-11479643D02*
X6137689Y-11489167D01*
X6137689Y-11489167D02*
X6128165Y-11498691D01*
X6337689Y-11612977D02*
X6318641Y-11603453D01*
X6318641Y-11603453D02*
X6309118Y-11593929D01*
X6309118Y-11593929D02*
X6299594Y-11574882D01*
X6299594Y-11574882D02*
X6299594Y-11517739D01*
X6299594Y-11517739D02*
X6309118Y-11498691D01*
X6309118Y-11498691D02*
X6318641Y-11489167D01*
X6318641Y-11489167D02*
X6337689Y-11479643D01*
X6337689Y-11479643D02*
X6366261Y-11479643D01*
X6366261Y-11479643D02*
X6385308Y-11489167D01*
X6385308Y-11489167D02*
X6394832Y-11498691D01*
X6394832Y-11498691D02*
X6404356Y-11517739D01*
X6404356Y-11517739D02*
X6404356Y-11574882D01*
X6404356Y-11574882D02*
X6394832Y-11593929D01*
X6394832Y-11593929D02*
X6385308Y-11603453D01*
X6385308Y-11603453D02*
X6366261Y-11612977D01*
X6366261Y-11612977D02*
X6337689Y-11612977D01*
X6518641Y-11612977D02*
X6499594Y-11603453D01*
X6499594Y-11603453D02*
X6490070Y-11584405D01*
X6490070Y-11584405D02*
X6490070Y-11412977D01*
X6671022Y-11603453D02*
X6651975Y-11612977D01*
X6651975Y-11612977D02*
X6613880Y-11612977D01*
X6613880Y-11612977D02*
X6594832Y-11603453D01*
X6594832Y-11603453D02*
X6585308Y-11584405D01*
X6585308Y-11584405D02*
X6585308Y-11508215D01*
X6585308Y-11508215D02*
X6594832Y-11489167D01*
X6594832Y-11489167D02*
X6613880Y-11479643D01*
X6613880Y-11479643D02*
X6651975Y-11479643D01*
X6651975Y-11479643D02*
X6671022Y-11489167D01*
X6671022Y-11489167D02*
X6680546Y-11508215D01*
X6680546Y-11508215D02*
X6680546Y-11527263D01*
X6680546Y-11527263D02*
X6585308Y-11546310D01*
X6756737Y-11603453D02*
X6775784Y-11612977D01*
X6775784Y-11612977D02*
X6813880Y-11612977D01*
X6813880Y-11612977D02*
X6832927Y-11603453D01*
X6832927Y-11603453D02*
X6842451Y-11584405D01*
X6842451Y-11584405D02*
X6842451Y-11574882D01*
X6842451Y-11574882D02*
X6832927Y-11555834D01*
X6832927Y-11555834D02*
X6813880Y-11546310D01*
X6813880Y-11546310D02*
X6785308Y-11546310D01*
X6785308Y-11546310D02*
X6766261Y-11536786D01*
X6766261Y-11536786D02*
X6756737Y-11517739D01*
X6756737Y-11517739D02*
X6756737Y-11508215D01*
X6756737Y-11508215D02*
X6766261Y-11489167D01*
X6766261Y-11489167D02*
X6785308Y-11479643D01*
X6785308Y-11479643D02*
X6813880Y-11479643D01*
X6813880Y-11479643D02*
X6832927Y-11489167D01*
X6909118Y-11689167D02*
X6918642Y-11679643D01*
X6918642Y-11679643D02*
X6937689Y-11651072D01*
X6937689Y-11651072D02*
X6947213Y-11632024D01*
X6947213Y-11632024D02*
X6956737Y-11603453D01*
X6956737Y-11603453D02*
X6966261Y-11555834D01*
X6966261Y-11555834D02*
X6966261Y-11517739D01*
X6966261Y-11517739D02*
X6956737Y-11470120D01*
X6956737Y-11470120D02*
X6947213Y-11441548D01*
X6947213Y-11441548D02*
X6937689Y-11422501D01*
X6937689Y-11422501D02*
X6918642Y-11393929D01*
X6918642Y-11393929D02*
X6909118Y-11384405D01*
X7238642Y-11689167D02*
X7229118Y-11679643D01*
X7229118Y-11679643D02*
X7210070Y-11651072D01*
X7210070Y-11651072D02*
X7200546Y-11632024D01*
X7200546Y-11632024D02*
X7191022Y-11603453D01*
X7191022Y-11603453D02*
X7181499Y-11555834D01*
X7181499Y-11555834D02*
X7181499Y-11517739D01*
X7181499Y-11517739D02*
X7191022Y-11470120D01*
X7191022Y-11470120D02*
X7200546Y-11441548D01*
X7200546Y-11441548D02*
X7210070Y-11422501D01*
X7210070Y-11422501D02*
X7229118Y-11393929D01*
X7229118Y-11393929D02*
X7238642Y-11384405D01*
X7314832Y-11479643D02*
X7314832Y-11612977D01*
X7314832Y-11498691D02*
X7324356Y-11489167D01*
X7324356Y-11489167D02*
X7343403Y-11479643D01*
X7343403Y-11479643D02*
X7371975Y-11479643D01*
X7371975Y-11479643D02*
X7391022Y-11489167D01*
X7391022Y-11489167D02*
X7400546Y-11508215D01*
X7400546Y-11508215D02*
X7400546Y-11612977D01*
X7524356Y-11612977D02*
X7505308Y-11603453D01*
X7505308Y-11603453D02*
X7495784Y-11593929D01*
X7495784Y-11593929D02*
X7486261Y-11574882D01*
X7486261Y-11574882D02*
X7486261Y-11517739D01*
X7486261Y-11517739D02*
X7495784Y-11498691D01*
X7495784Y-11498691D02*
X7505308Y-11489167D01*
X7505308Y-11489167D02*
X7524356Y-11479643D01*
X7524356Y-11479643D02*
X7552927Y-11479643D01*
X7552927Y-11479643D02*
X7571975Y-11489167D01*
X7571975Y-11489167D02*
X7581499Y-11498691D01*
X7581499Y-11498691D02*
X7591022Y-11517739D01*
X7591022Y-11517739D02*
X7591022Y-11574882D01*
X7591022Y-11574882D02*
X7581499Y-11593929D01*
X7581499Y-11593929D02*
X7571975Y-11603453D01*
X7571975Y-11603453D02*
X7552927Y-11612977D01*
X7552927Y-11612977D02*
X7524356Y-11612977D01*
X7648165Y-11479643D02*
X7724356Y-11479643D01*
X7676737Y-11412977D02*
X7676737Y-11584405D01*
X7676737Y-11584405D02*
X7686261Y-11603453D01*
X7686261Y-11603453D02*
X7705308Y-11612977D01*
X7705308Y-11612977D02*
X7724356Y-11612977D01*
X7911022Y-11479643D02*
X7911022Y-11679643D01*
X7911022Y-11489167D02*
X7930070Y-11479643D01*
X7930070Y-11479643D02*
X7968165Y-11479643D01*
X7968165Y-11479643D02*
X7987213Y-11489167D01*
X7987213Y-11489167D02*
X7996737Y-11498691D01*
X7996737Y-11498691D02*
X8006261Y-11517739D01*
X8006261Y-11517739D02*
X8006261Y-11574882D01*
X8006261Y-11574882D02*
X7996737Y-11593929D01*
X7996737Y-11593929D02*
X7987213Y-11603453D01*
X7987213Y-11603453D02*
X7968165Y-11612977D01*
X7968165Y-11612977D02*
X7930070Y-11612977D01*
X7930070Y-11612977D02*
X7911022Y-11603453D01*
X8120546Y-11612977D02*
X8101499Y-11603453D01*
X8101499Y-11603453D02*
X8091975Y-11584405D01*
X8091975Y-11584405D02*
X8091975Y-11412977D01*
X8282451Y-11612977D02*
X8282451Y-11508215D01*
X8282451Y-11508215D02*
X8272927Y-11489167D01*
X8272927Y-11489167D02*
X8253880Y-11479643D01*
X8253880Y-11479643D02*
X8215784Y-11479643D01*
X8215784Y-11479643D02*
X8196737Y-11489167D01*
X8282451Y-11603453D02*
X8263403Y-11612977D01*
X8263403Y-11612977D02*
X8215784Y-11612977D01*
X8215784Y-11612977D02*
X8196737Y-11603453D01*
X8196737Y-11603453D02*
X8187213Y-11584405D01*
X8187213Y-11584405D02*
X8187213Y-11565358D01*
X8187213Y-11565358D02*
X8196737Y-11546310D01*
X8196737Y-11546310D02*
X8215784Y-11536786D01*
X8215784Y-11536786D02*
X8263403Y-11536786D01*
X8263403Y-11536786D02*
X8282451Y-11527263D01*
X8349118Y-11479643D02*
X8425308Y-11479643D01*
X8377689Y-11412977D02*
X8377689Y-11584405D01*
X8377689Y-11584405D02*
X8387213Y-11603453D01*
X8387213Y-11603453D02*
X8406261Y-11612977D01*
X8406261Y-11612977D02*
X8425308Y-11612977D01*
X8568165Y-11603453D02*
X8549118Y-11612977D01*
X8549118Y-11612977D02*
X8511023Y-11612977D01*
X8511023Y-11612977D02*
X8491975Y-11603453D01*
X8491975Y-11603453D02*
X8482451Y-11584405D01*
X8482451Y-11584405D02*
X8482451Y-11508215D01*
X8482451Y-11508215D02*
X8491975Y-11489167D01*
X8491975Y-11489167D02*
X8511023Y-11479643D01*
X8511023Y-11479643D02*
X8549118Y-11479643D01*
X8549118Y-11479643D02*
X8568165Y-11489167D01*
X8568165Y-11489167D02*
X8577689Y-11508215D01*
X8577689Y-11508215D02*
X8577689Y-11527263D01*
X8577689Y-11527263D02*
X8482451Y-11546310D01*
X8749118Y-11612977D02*
X8749118Y-11412977D01*
X8749118Y-11603453D02*
X8730070Y-11612977D01*
X8730070Y-11612977D02*
X8691975Y-11612977D01*
X8691975Y-11612977D02*
X8672927Y-11603453D01*
X8672927Y-11603453D02*
X8663404Y-11593929D01*
X8663404Y-11593929D02*
X8653880Y-11574882D01*
X8653880Y-11574882D02*
X8653880Y-11517739D01*
X8653880Y-11517739D02*
X8663404Y-11498691D01*
X8663404Y-11498691D02*
X8672927Y-11489167D01*
X8672927Y-11489167D02*
X8691975Y-11479643D01*
X8691975Y-11479643D02*
X8730070Y-11479643D01*
X8730070Y-11479643D02*
X8749118Y-11489167D01*
X8825308Y-11689167D02*
X8834832Y-11679643D01*
X8834832Y-11679643D02*
X8853880Y-11651072D01*
X8853880Y-11651072D02*
X8863404Y-11632024D01*
X8863404Y-11632024D02*
X8872927Y-11603453D01*
X8872927Y-11603453D02*
X8882451Y-11555834D01*
X8882451Y-11555834D02*
X8882451Y-11517739D01*
X8882451Y-11517739D02*
X8872927Y-11470120D01*
X8872927Y-11470120D02*
X8863404Y-11441548D01*
X8863404Y-11441548D02*
X8853880Y-11422501D01*
X8853880Y-11422501D02*
X8834832Y-11393929D01*
X8834832Y-11393929D02*
X8825308Y-11384405D01*
D14*
X2189237Y-11716001D02*
X2189237Y-11891001D01*
X2101737Y-11803501D02*
X2276737Y-11803501D01*
D11*
X2629118Y-11876977D02*
X2514832Y-11876977D01*
X2571975Y-11876977D02*
X2571975Y-11676977D01*
X2571975Y-11676977D02*
X2552927Y-11705548D01*
X2552927Y-11705548D02*
X2533879Y-11724596D01*
X2533879Y-11724596D02*
X2514832Y-11734120D01*
X2714832Y-11857929D02*
X2724356Y-11867453D01*
X2724356Y-11867453D02*
X2714832Y-11876977D01*
X2714832Y-11876977D02*
X2705308Y-11867453D01*
X2705308Y-11867453D02*
X2714832Y-11857929D01*
X2714832Y-11857929D02*
X2714832Y-11876977D01*
X2791022Y-11676977D02*
X2924356Y-11676977D01*
X2924356Y-11676977D02*
X2838641Y-11876977D01*
X3095784Y-11676977D02*
X3000546Y-11676977D01*
X3000546Y-11676977D02*
X2991022Y-11772215D01*
X2991022Y-11772215D02*
X3000546Y-11762691D01*
X3000546Y-11762691D02*
X3019594Y-11753167D01*
X3019594Y-11753167D02*
X3067213Y-11753167D01*
X3067213Y-11753167D02*
X3086260Y-11762691D01*
X3086260Y-11762691D02*
X3095784Y-11772215D01*
X3095784Y-11772215D02*
X3105308Y-11791263D01*
X3105308Y-11791263D02*
X3105308Y-11838882D01*
X3105308Y-11838882D02*
X3095784Y-11857929D01*
X3095784Y-11857929D02*
X3086260Y-11867453D01*
X3086260Y-11867453D02*
X3067213Y-11876977D01*
X3067213Y-11876977D02*
X3019594Y-11876977D01*
X3019594Y-11876977D02*
X3000546Y-11867453D01*
X3000546Y-11867453D02*
X2991022Y-11857929D01*
X3229117Y-11676977D02*
X3248165Y-11676977D01*
X3248165Y-11676977D02*
X3267213Y-11686501D01*
X3267213Y-11686501D02*
X3276737Y-11696024D01*
X3276737Y-11696024D02*
X3286260Y-11715072D01*
X3286260Y-11715072D02*
X3295784Y-11753167D01*
X3295784Y-11753167D02*
X3295784Y-11800786D01*
X3295784Y-11800786D02*
X3286260Y-11838882D01*
X3286260Y-11838882D02*
X3276737Y-11857929D01*
X3276737Y-11857929D02*
X3267213Y-11867453D01*
X3267213Y-11867453D02*
X3248165Y-11876977D01*
X3248165Y-11876977D02*
X3229117Y-11876977D01*
X3229117Y-11876977D02*
X3210070Y-11867453D01*
X3210070Y-11867453D02*
X3200546Y-11857929D01*
X3200546Y-11857929D02*
X3191022Y-11838882D01*
X3191022Y-11838882D02*
X3181498Y-11800786D01*
X3181498Y-11800786D02*
X3181498Y-11753167D01*
X3181498Y-11753167D02*
X3191022Y-11715072D01*
X3191022Y-11715072D02*
X3200546Y-11696024D01*
X3200546Y-11696024D02*
X3210070Y-11686501D01*
X3210070Y-11686501D02*
X3229117Y-11676977D01*
X3381498Y-11876977D02*
X3381498Y-11743643D01*
X3381498Y-11762691D02*
X3391022Y-11753167D01*
X3391022Y-11753167D02*
X3410070Y-11743643D01*
X3410070Y-11743643D02*
X3438641Y-11743643D01*
X3438641Y-11743643D02*
X3457689Y-11753167D01*
X3457689Y-11753167D02*
X3467213Y-11772215D01*
X3467213Y-11772215D02*
X3467213Y-11876977D01*
X3467213Y-11772215D02*
X3476737Y-11753167D01*
X3476737Y-11753167D02*
X3495784Y-11743643D01*
X3495784Y-11743643D02*
X3524356Y-11743643D01*
X3524356Y-11743643D02*
X3543403Y-11753167D01*
X3543403Y-11753167D02*
X3552927Y-11772215D01*
X3552927Y-11772215D02*
X3552927Y-11876977D01*
X3648165Y-11876977D02*
X3648165Y-11743643D01*
X3648165Y-11762691D02*
X3657689Y-11753167D01*
X3657689Y-11753167D02*
X3676737Y-11743643D01*
X3676737Y-11743643D02*
X3705308Y-11743643D01*
X3705308Y-11743643D02*
X3724356Y-11753167D01*
X3724356Y-11753167D02*
X3733879Y-11772215D01*
X3733879Y-11772215D02*
X3733879Y-11876977D01*
X3733879Y-11772215D02*
X3743403Y-11753167D01*
X3743403Y-11753167D02*
X3762451Y-11743643D01*
X3762451Y-11743643D02*
X3791022Y-11743643D01*
X3791022Y-11743643D02*
X3810070Y-11753167D01*
X3810070Y-11753167D02*
X3819594Y-11772215D01*
X3819594Y-11772215D02*
X3819594Y-11876977D01*
X4177689Y-11667453D02*
X4006260Y-11924596D01*
X4402451Y-11676977D02*
X4421499Y-11676977D01*
X4421499Y-11676977D02*
X4440546Y-11686501D01*
X4440546Y-11686501D02*
X4450070Y-11696024D01*
X4450070Y-11696024D02*
X4459594Y-11715072D01*
X4459594Y-11715072D02*
X4469118Y-11753167D01*
X4469118Y-11753167D02*
X4469118Y-11800786D01*
X4469118Y-11800786D02*
X4459594Y-11838882D01*
X4459594Y-11838882D02*
X4450070Y-11857929D01*
X4450070Y-11857929D02*
X4440546Y-11867453D01*
X4440546Y-11867453D02*
X4421499Y-11876977D01*
X4421499Y-11876977D02*
X4402451Y-11876977D01*
X4402451Y-11876977D02*
X4383403Y-11867453D01*
X4383403Y-11867453D02*
X4373880Y-11857929D01*
X4373880Y-11857929D02*
X4364356Y-11838882D01*
X4364356Y-11838882D02*
X4354832Y-11800786D01*
X4354832Y-11800786D02*
X4354832Y-11753167D01*
X4354832Y-11753167D02*
X4364356Y-11715072D01*
X4364356Y-11715072D02*
X4373880Y-11696024D01*
X4373880Y-11696024D02*
X4383403Y-11686501D01*
X4383403Y-11686501D02*
X4402451Y-11676977D01*
X4554832Y-11857929D02*
X4564356Y-11867453D01*
X4564356Y-11867453D02*
X4554832Y-11876977D01*
X4554832Y-11876977D02*
X4545308Y-11867453D01*
X4545308Y-11867453D02*
X4554832Y-11857929D01*
X4554832Y-11857929D02*
X4554832Y-11876977D01*
X4688165Y-11676977D02*
X4707213Y-11676977D01*
X4707213Y-11676977D02*
X4726261Y-11686501D01*
X4726261Y-11686501D02*
X4735784Y-11696024D01*
X4735784Y-11696024D02*
X4745308Y-11715072D01*
X4745308Y-11715072D02*
X4754832Y-11753167D01*
X4754832Y-11753167D02*
X4754832Y-11800786D01*
X4754832Y-11800786D02*
X4745308Y-11838882D01*
X4745308Y-11838882D02*
X4735784Y-11857929D01*
X4735784Y-11857929D02*
X4726261Y-11867453D01*
X4726261Y-11867453D02*
X4707213Y-11876977D01*
X4707213Y-11876977D02*
X4688165Y-11876977D01*
X4688165Y-11876977D02*
X4669118Y-11867453D01*
X4669118Y-11867453D02*
X4659594Y-11857929D01*
X4659594Y-11857929D02*
X4650070Y-11838882D01*
X4650070Y-11838882D02*
X4640546Y-11800786D01*
X4640546Y-11800786D02*
X4640546Y-11753167D01*
X4640546Y-11753167D02*
X4650070Y-11715072D01*
X4650070Y-11715072D02*
X4659594Y-11696024D01*
X4659594Y-11696024D02*
X4669118Y-11686501D01*
X4669118Y-11686501D02*
X4688165Y-11676977D01*
X4926261Y-11676977D02*
X4888165Y-11676977D01*
X4888165Y-11676977D02*
X4869118Y-11686501D01*
X4869118Y-11686501D02*
X4859594Y-11696024D01*
X4859594Y-11696024D02*
X4840546Y-11724596D01*
X4840546Y-11724596D02*
X4831022Y-11762691D01*
X4831022Y-11762691D02*
X4831022Y-11838882D01*
X4831022Y-11838882D02*
X4840546Y-11857929D01*
X4840546Y-11857929D02*
X4850070Y-11867453D01*
X4850070Y-11867453D02*
X4869118Y-11876977D01*
X4869118Y-11876977D02*
X4907213Y-11876977D01*
X4907213Y-11876977D02*
X4926261Y-11867453D01*
X4926261Y-11867453D02*
X4935784Y-11857929D01*
X4935784Y-11857929D02*
X4945308Y-11838882D01*
X4945308Y-11838882D02*
X4945308Y-11791263D01*
X4945308Y-11791263D02*
X4935784Y-11772215D01*
X4935784Y-11772215D02*
X4926261Y-11762691D01*
X4926261Y-11762691D02*
X4907213Y-11753167D01*
X4907213Y-11753167D02*
X4869118Y-11753167D01*
X4869118Y-11753167D02*
X4850070Y-11762691D01*
X4850070Y-11762691D02*
X4840546Y-11772215D01*
X4840546Y-11772215D02*
X4831022Y-11791263D01*
X5059594Y-11762691D02*
X5040546Y-11753167D01*
X5040546Y-11753167D02*
X5031022Y-11743643D01*
X5031022Y-11743643D02*
X5021499Y-11724596D01*
X5021499Y-11724596D02*
X5021499Y-11715072D01*
X5021499Y-11715072D02*
X5031022Y-11696024D01*
X5031022Y-11696024D02*
X5040546Y-11686501D01*
X5040546Y-11686501D02*
X5059594Y-11676977D01*
X5059594Y-11676977D02*
X5097689Y-11676977D01*
X5097689Y-11676977D02*
X5116737Y-11686501D01*
X5116737Y-11686501D02*
X5126261Y-11696024D01*
X5126261Y-11696024D02*
X5135784Y-11715072D01*
X5135784Y-11715072D02*
X5135784Y-11724596D01*
X5135784Y-11724596D02*
X5126261Y-11743643D01*
X5126261Y-11743643D02*
X5116737Y-11753167D01*
X5116737Y-11753167D02*
X5097689Y-11762691D01*
X5097689Y-11762691D02*
X5059594Y-11762691D01*
X5059594Y-11762691D02*
X5040546Y-11772215D01*
X5040546Y-11772215D02*
X5031022Y-11781739D01*
X5031022Y-11781739D02*
X5021499Y-11800786D01*
X5021499Y-11800786D02*
X5021499Y-11838882D01*
X5021499Y-11838882D02*
X5031022Y-11857929D01*
X5031022Y-11857929D02*
X5040546Y-11867453D01*
X5040546Y-11867453D02*
X5059594Y-11876977D01*
X5059594Y-11876977D02*
X5097689Y-11876977D01*
X5097689Y-11876977D02*
X5116737Y-11867453D01*
X5116737Y-11867453D02*
X5126261Y-11857929D01*
X5126261Y-11857929D02*
X5135784Y-11838882D01*
X5135784Y-11838882D02*
X5135784Y-11800786D01*
X5135784Y-11800786D02*
X5126261Y-11781739D01*
X5126261Y-11781739D02*
X5116737Y-11772215D01*
X5116737Y-11772215D02*
X5097689Y-11762691D01*
X5231022Y-11876977D02*
X5269118Y-11876977D01*
X5269118Y-11876977D02*
X5288165Y-11867453D01*
X5288165Y-11867453D02*
X5297689Y-11857929D01*
X5297689Y-11857929D02*
X5316737Y-11829358D01*
X5316737Y-11829358D02*
X5326261Y-11791263D01*
X5326261Y-11791263D02*
X5326261Y-11715072D01*
X5326261Y-11715072D02*
X5316737Y-11696024D01*
X5316737Y-11696024D02*
X5307213Y-11686501D01*
X5307213Y-11686501D02*
X5288165Y-11676977D01*
X5288165Y-11676977D02*
X5250070Y-11676977D01*
X5250070Y-11676977D02*
X5231022Y-11686501D01*
X5231022Y-11686501D02*
X5221499Y-11696024D01*
X5221499Y-11696024D02*
X5211975Y-11715072D01*
X5211975Y-11715072D02*
X5211975Y-11762691D01*
X5211975Y-11762691D02*
X5221499Y-11781739D01*
X5221499Y-11781739D02*
X5231022Y-11791263D01*
X5231022Y-11791263D02*
X5250070Y-11800786D01*
X5250070Y-11800786D02*
X5288165Y-11800786D01*
X5288165Y-11800786D02*
X5307213Y-11791263D01*
X5307213Y-11791263D02*
X5316737Y-11781739D01*
X5316737Y-11781739D02*
X5326261Y-11762691D01*
X5402451Y-11676977D02*
X5402451Y-11715072D01*
X5478642Y-11676977D02*
X5478642Y-11715072D01*
X5741499Y-11953167D02*
X5731975Y-11943643D01*
X5731975Y-11943643D02*
X5712927Y-11915072D01*
X5712927Y-11915072D02*
X5703403Y-11896024D01*
X5703403Y-11896024D02*
X5693880Y-11867453D01*
X5693880Y-11867453D02*
X5684356Y-11819834D01*
X5684356Y-11819834D02*
X5684356Y-11781739D01*
X5684356Y-11781739D02*
X5693880Y-11734120D01*
X5693880Y-11734120D02*
X5703403Y-11705548D01*
X5703403Y-11705548D02*
X5712927Y-11686501D01*
X5712927Y-11686501D02*
X5731975Y-11657929D01*
X5731975Y-11657929D02*
X5741499Y-11648405D01*
X5903403Y-11676977D02*
X5865308Y-11676977D01*
X5865308Y-11676977D02*
X5846260Y-11686501D01*
X5846260Y-11686501D02*
X5836737Y-11696024D01*
X5836737Y-11696024D02*
X5817689Y-11724596D01*
X5817689Y-11724596D02*
X5808165Y-11762691D01*
X5808165Y-11762691D02*
X5808165Y-11838882D01*
X5808165Y-11838882D02*
X5817689Y-11857929D01*
X5817689Y-11857929D02*
X5827213Y-11867453D01*
X5827213Y-11867453D02*
X5846260Y-11876977D01*
X5846260Y-11876977D02*
X5884356Y-11876977D01*
X5884356Y-11876977D02*
X5903403Y-11867453D01*
X5903403Y-11867453D02*
X5912927Y-11857929D01*
X5912927Y-11857929D02*
X5922451Y-11838882D01*
X5922451Y-11838882D02*
X5922451Y-11791263D01*
X5922451Y-11791263D02*
X5912927Y-11772215D01*
X5912927Y-11772215D02*
X5903403Y-11762691D01*
X5903403Y-11762691D02*
X5884356Y-11753167D01*
X5884356Y-11753167D02*
X5846260Y-11753167D01*
X5846260Y-11753167D02*
X5827213Y-11762691D01*
X5827213Y-11762691D02*
X5817689Y-11772215D01*
X5817689Y-11772215D02*
X5808165Y-11791263D01*
X6036737Y-11762691D02*
X6017689Y-11753167D01*
X6017689Y-11753167D02*
X6008165Y-11743643D01*
X6008165Y-11743643D02*
X5998641Y-11724596D01*
X5998641Y-11724596D02*
X5998641Y-11715072D01*
X5998641Y-11715072D02*
X6008165Y-11696024D01*
X6008165Y-11696024D02*
X6017689Y-11686501D01*
X6017689Y-11686501D02*
X6036737Y-11676977D01*
X6036737Y-11676977D02*
X6074832Y-11676977D01*
X6074832Y-11676977D02*
X6093880Y-11686501D01*
X6093880Y-11686501D02*
X6103403Y-11696024D01*
X6103403Y-11696024D02*
X6112927Y-11715072D01*
X6112927Y-11715072D02*
X6112927Y-11724596D01*
X6112927Y-11724596D02*
X6103403Y-11743643D01*
X6103403Y-11743643D02*
X6093880Y-11753167D01*
X6093880Y-11753167D02*
X6074832Y-11762691D01*
X6074832Y-11762691D02*
X6036737Y-11762691D01*
X6036737Y-11762691D02*
X6017689Y-11772215D01*
X6017689Y-11772215D02*
X6008165Y-11781739D01*
X6008165Y-11781739D02*
X5998641Y-11800786D01*
X5998641Y-11800786D02*
X5998641Y-11838882D01*
X5998641Y-11838882D02*
X6008165Y-11857929D01*
X6008165Y-11857929D02*
X6017689Y-11867453D01*
X6017689Y-11867453D02*
X6036737Y-11876977D01*
X6036737Y-11876977D02*
X6074832Y-11876977D01*
X6074832Y-11876977D02*
X6093880Y-11867453D01*
X6093880Y-11867453D02*
X6103403Y-11857929D01*
X6103403Y-11857929D02*
X6112927Y-11838882D01*
X6112927Y-11838882D02*
X6112927Y-11800786D01*
X6112927Y-11800786D02*
X6103403Y-11781739D01*
X6103403Y-11781739D02*
X6093880Y-11772215D01*
X6093880Y-11772215D02*
X6074832Y-11762691D01*
X6318641Y-11876977D02*
X6318641Y-11676977D01*
X6404356Y-11876977D02*
X6404356Y-11772215D01*
X6404356Y-11772215D02*
X6394832Y-11753167D01*
X6394832Y-11753167D02*
X6375784Y-11743643D01*
X6375784Y-11743643D02*
X6347213Y-11743643D01*
X6347213Y-11743643D02*
X6328165Y-11753167D01*
X6328165Y-11753167D02*
X6318641Y-11762691D01*
X6528165Y-11876977D02*
X6509118Y-11867453D01*
X6509118Y-11867453D02*
X6499594Y-11857929D01*
X6499594Y-11857929D02*
X6490070Y-11838882D01*
X6490070Y-11838882D02*
X6490070Y-11781739D01*
X6490070Y-11781739D02*
X6499594Y-11762691D01*
X6499594Y-11762691D02*
X6509118Y-11753167D01*
X6509118Y-11753167D02*
X6528165Y-11743643D01*
X6528165Y-11743643D02*
X6556737Y-11743643D01*
X6556737Y-11743643D02*
X6575784Y-11753167D01*
X6575784Y-11753167D02*
X6585308Y-11762691D01*
X6585308Y-11762691D02*
X6594832Y-11781739D01*
X6594832Y-11781739D02*
X6594832Y-11838882D01*
X6594832Y-11838882D02*
X6585308Y-11857929D01*
X6585308Y-11857929D02*
X6575784Y-11867453D01*
X6575784Y-11867453D02*
X6556737Y-11876977D01*
X6556737Y-11876977D02*
X6528165Y-11876977D01*
X6709118Y-11876977D02*
X6690070Y-11867453D01*
X6690070Y-11867453D02*
X6680546Y-11848405D01*
X6680546Y-11848405D02*
X6680546Y-11676977D01*
X6861499Y-11867453D02*
X6842451Y-11876977D01*
X6842451Y-11876977D02*
X6804356Y-11876977D01*
X6804356Y-11876977D02*
X6785308Y-11867453D01*
X6785308Y-11867453D02*
X6775784Y-11848405D01*
X6775784Y-11848405D02*
X6775784Y-11772215D01*
X6775784Y-11772215D02*
X6785308Y-11753167D01*
X6785308Y-11753167D02*
X6804356Y-11743643D01*
X6804356Y-11743643D02*
X6842451Y-11743643D01*
X6842451Y-11743643D02*
X6861499Y-11753167D01*
X6861499Y-11753167D02*
X6871022Y-11772215D01*
X6871022Y-11772215D02*
X6871022Y-11791263D01*
X6871022Y-11791263D02*
X6775784Y-11810310D01*
X6947213Y-11867453D02*
X6966261Y-11876977D01*
X6966261Y-11876977D02*
X7004356Y-11876977D01*
X7004356Y-11876977D02*
X7023403Y-11867453D01*
X7023403Y-11867453D02*
X7032927Y-11848405D01*
X7032927Y-11848405D02*
X7032927Y-11838882D01*
X7032927Y-11838882D02*
X7023403Y-11819834D01*
X7023403Y-11819834D02*
X7004356Y-11810310D01*
X7004356Y-11810310D02*
X6975784Y-11810310D01*
X6975784Y-11810310D02*
X6956737Y-11800786D01*
X6956737Y-11800786D02*
X6947213Y-11781739D01*
X6947213Y-11781739D02*
X6947213Y-11772215D01*
X6947213Y-11772215D02*
X6956737Y-11753167D01*
X6956737Y-11753167D02*
X6975784Y-11743643D01*
X6975784Y-11743643D02*
X7004356Y-11743643D01*
X7004356Y-11743643D02*
X7023403Y-11753167D01*
X7099594Y-11953167D02*
X7109118Y-11943643D01*
X7109118Y-11943643D02*
X7128165Y-11915072D01*
X7128165Y-11915072D02*
X7137689Y-11896024D01*
X7137689Y-11896024D02*
X7147213Y-11867453D01*
X7147213Y-11867453D02*
X7156737Y-11819834D01*
X7156737Y-11819834D02*
X7156737Y-11781739D01*
X7156737Y-11781739D02*
X7147213Y-11734120D01*
X7147213Y-11734120D02*
X7137689Y-11705548D01*
X7137689Y-11705548D02*
X7128165Y-11686501D01*
X7128165Y-11686501D02*
X7109118Y-11657929D01*
X7109118Y-11657929D02*
X7099594Y-11648405D01*
X7429118Y-11953167D02*
X7419594Y-11943643D01*
X7419594Y-11943643D02*
X7400546Y-11915072D01*
X7400546Y-11915072D02*
X7391022Y-11896024D01*
X7391022Y-11896024D02*
X7381499Y-11867453D01*
X7381499Y-11867453D02*
X7371975Y-11819834D01*
X7371975Y-11819834D02*
X7371975Y-11781739D01*
X7371975Y-11781739D02*
X7381499Y-11734120D01*
X7381499Y-11734120D02*
X7391022Y-11705548D01*
X7391022Y-11705548D02*
X7400546Y-11686501D01*
X7400546Y-11686501D02*
X7419594Y-11657929D01*
X7419594Y-11657929D02*
X7429118Y-11648405D01*
X7505308Y-11743643D02*
X7505308Y-11876977D01*
X7505308Y-11762691D02*
X7514832Y-11753167D01*
X7514832Y-11753167D02*
X7533880Y-11743643D01*
X7533880Y-11743643D02*
X7562451Y-11743643D01*
X7562451Y-11743643D02*
X7581499Y-11753167D01*
X7581499Y-11753167D02*
X7591022Y-11772215D01*
X7591022Y-11772215D02*
X7591022Y-11876977D01*
X7714832Y-11876977D02*
X7695784Y-11867453D01*
X7695784Y-11867453D02*
X7686261Y-11857929D01*
X7686261Y-11857929D02*
X7676737Y-11838882D01*
X7676737Y-11838882D02*
X7676737Y-11781739D01*
X7676737Y-11781739D02*
X7686261Y-11762691D01*
X7686261Y-11762691D02*
X7695784Y-11753167D01*
X7695784Y-11753167D02*
X7714832Y-11743643D01*
X7714832Y-11743643D02*
X7743403Y-11743643D01*
X7743403Y-11743643D02*
X7762451Y-11753167D01*
X7762451Y-11753167D02*
X7771975Y-11762691D01*
X7771975Y-11762691D02*
X7781499Y-11781739D01*
X7781499Y-11781739D02*
X7781499Y-11838882D01*
X7781499Y-11838882D02*
X7771975Y-11857929D01*
X7771975Y-11857929D02*
X7762451Y-11867453D01*
X7762451Y-11867453D02*
X7743403Y-11876977D01*
X7743403Y-11876977D02*
X7714832Y-11876977D01*
X7838642Y-11743643D02*
X7914832Y-11743643D01*
X7867213Y-11676977D02*
X7867213Y-11848405D01*
X7867213Y-11848405D02*
X7876737Y-11867453D01*
X7876737Y-11867453D02*
X7895784Y-11876977D01*
X7895784Y-11876977D02*
X7914832Y-11876977D01*
X8101499Y-11743643D02*
X8101499Y-11943643D01*
X8101499Y-11753167D02*
X8120546Y-11743643D01*
X8120546Y-11743643D02*
X8158642Y-11743643D01*
X8158642Y-11743643D02*
X8177689Y-11753167D01*
X8177689Y-11753167D02*
X8187213Y-11762691D01*
X8187213Y-11762691D02*
X8196737Y-11781739D01*
X8196737Y-11781739D02*
X8196737Y-11838882D01*
X8196737Y-11838882D02*
X8187213Y-11857929D01*
X8187213Y-11857929D02*
X8177689Y-11867453D01*
X8177689Y-11867453D02*
X8158642Y-11876977D01*
X8158642Y-11876977D02*
X8120546Y-11876977D01*
X8120546Y-11876977D02*
X8101499Y-11867453D01*
X8311022Y-11876977D02*
X8291975Y-11867453D01*
X8291975Y-11867453D02*
X8282451Y-11848405D01*
X8282451Y-11848405D02*
X8282451Y-11676977D01*
X8472927Y-11876977D02*
X8472927Y-11772215D01*
X8472927Y-11772215D02*
X8463404Y-11753167D01*
X8463404Y-11753167D02*
X8444356Y-11743643D01*
X8444356Y-11743643D02*
X8406261Y-11743643D01*
X8406261Y-11743643D02*
X8387213Y-11753167D01*
X8472927Y-11867453D02*
X8453880Y-11876977D01*
X8453880Y-11876977D02*
X8406261Y-11876977D01*
X8406261Y-11876977D02*
X8387213Y-11867453D01*
X8387213Y-11867453D02*
X8377689Y-11848405D01*
X8377689Y-11848405D02*
X8377689Y-11829358D01*
X8377689Y-11829358D02*
X8387213Y-11810310D01*
X8387213Y-11810310D02*
X8406261Y-11800786D01*
X8406261Y-11800786D02*
X8453880Y-11800786D01*
X8453880Y-11800786D02*
X8472927Y-11791263D01*
X8539594Y-11743643D02*
X8615784Y-11743643D01*
X8568165Y-11676977D02*
X8568165Y-11848405D01*
X8568165Y-11848405D02*
X8577689Y-11867453D01*
X8577689Y-11867453D02*
X8596737Y-11876977D01*
X8596737Y-11876977D02*
X8615784Y-11876977D01*
X8758642Y-11867453D02*
X8739594Y-11876977D01*
X8739594Y-11876977D02*
X8701499Y-11876977D01*
X8701499Y-11876977D02*
X8682451Y-11867453D01*
X8682451Y-11867453D02*
X8672927Y-11848405D01*
X8672927Y-11848405D02*
X8672927Y-11772215D01*
X8672927Y-11772215D02*
X8682451Y-11753167D01*
X8682451Y-11753167D02*
X8701499Y-11743643D01*
X8701499Y-11743643D02*
X8739594Y-11743643D01*
X8739594Y-11743643D02*
X8758642Y-11753167D01*
X8758642Y-11753167D02*
X8768165Y-11772215D01*
X8768165Y-11772215D02*
X8768165Y-11791263D01*
X8768165Y-11791263D02*
X8672927Y-11810310D01*
X8939594Y-11876977D02*
X8939594Y-11676977D01*
X8939594Y-11867453D02*
X8920546Y-11876977D01*
X8920546Y-11876977D02*
X8882451Y-11876977D01*
X8882451Y-11876977D02*
X8863404Y-11867453D01*
X8863404Y-11867453D02*
X8853880Y-11857929D01*
X8853880Y-11857929D02*
X8844356Y-11838882D01*
X8844356Y-11838882D02*
X8844356Y-11781739D01*
X8844356Y-11781739D02*
X8853880Y-11762691D01*
X8853880Y-11762691D02*
X8863404Y-11753167D01*
X8863404Y-11753167D02*
X8882451Y-11743643D01*
X8882451Y-11743643D02*
X8920546Y-11743643D01*
X8920546Y-11743643D02*
X8939594Y-11753167D01*
X9015785Y-11953167D02*
X9025308Y-11943643D01*
X9025308Y-11943643D02*
X9044356Y-11915072D01*
X9044356Y-11915072D02*
X9053880Y-11896024D01*
X9053880Y-11896024D02*
X9063404Y-11867453D01*
X9063404Y-11867453D02*
X9072927Y-11819834D01*
X9072927Y-11819834D02*
X9072927Y-11781739D01*
X9072927Y-11781739D02*
X9063404Y-11734120D01*
X9063404Y-11734120D02*
X9053880Y-11705548D01*
X9053880Y-11705548D02*
X9044356Y-11686501D01*
X9044356Y-11686501D02*
X9025308Y-11657929D01*
X9025308Y-11657929D02*
X9015785Y-11648405D01*
X2247448Y-12169212D02*
X2247448Y-12027789D01*
X2106025Y-12027789D01*
X2106025Y-12169212D01*
X2247448Y-12169212D01*
X2505308Y-11971977D02*
X2629118Y-11971977D01*
X2629118Y-11971977D02*
X2562451Y-12048167D01*
X2562451Y-12048167D02*
X2591022Y-12048167D01*
X2591022Y-12048167D02*
X2610070Y-12057691D01*
X2610070Y-12057691D02*
X2619594Y-12067215D01*
X2619594Y-12067215D02*
X2629118Y-12086263D01*
X2629118Y-12086263D02*
X2629118Y-12133882D01*
X2629118Y-12133882D02*
X2619594Y-12152929D01*
X2619594Y-12152929D02*
X2610070Y-12162453D01*
X2610070Y-12162453D02*
X2591022Y-12171977D01*
X2591022Y-12171977D02*
X2533879Y-12171977D01*
X2533879Y-12171977D02*
X2514832Y-12162453D01*
X2514832Y-12162453D02*
X2505308Y-12152929D01*
X2714832Y-12152929D02*
X2724356Y-12162453D01*
X2724356Y-12162453D02*
X2714832Y-12171977D01*
X2714832Y-12171977D02*
X2705308Y-12162453D01*
X2705308Y-12162453D02*
X2714832Y-12152929D01*
X2714832Y-12152929D02*
X2714832Y-12171977D01*
X2848165Y-11971977D02*
X2867213Y-11971977D01*
X2867213Y-11971977D02*
X2886260Y-11981501D01*
X2886260Y-11981501D02*
X2895784Y-11991024D01*
X2895784Y-11991024D02*
X2905308Y-12010072D01*
X2905308Y-12010072D02*
X2914832Y-12048167D01*
X2914832Y-12048167D02*
X2914832Y-12095786D01*
X2914832Y-12095786D02*
X2905308Y-12133882D01*
X2905308Y-12133882D02*
X2895784Y-12152929D01*
X2895784Y-12152929D02*
X2886260Y-12162453D01*
X2886260Y-12162453D02*
X2867213Y-12171977D01*
X2867213Y-12171977D02*
X2848165Y-12171977D01*
X2848165Y-12171977D02*
X2829117Y-12162453D01*
X2829117Y-12162453D02*
X2819594Y-12152929D01*
X2819594Y-12152929D02*
X2810070Y-12133882D01*
X2810070Y-12133882D02*
X2800546Y-12095786D01*
X2800546Y-12095786D02*
X2800546Y-12048167D01*
X2800546Y-12048167D02*
X2810070Y-12010072D01*
X2810070Y-12010072D02*
X2819594Y-11991024D01*
X2819594Y-11991024D02*
X2829117Y-11981501D01*
X2829117Y-11981501D02*
X2848165Y-11971977D01*
X3038641Y-11971977D02*
X3057689Y-11971977D01*
X3057689Y-11971977D02*
X3076737Y-11981501D01*
X3076737Y-11981501D02*
X3086260Y-11991024D01*
X3086260Y-11991024D02*
X3095784Y-12010072D01*
X3095784Y-12010072D02*
X3105308Y-12048167D01*
X3105308Y-12048167D02*
X3105308Y-12095786D01*
X3105308Y-12095786D02*
X3095784Y-12133882D01*
X3095784Y-12133882D02*
X3086260Y-12152929D01*
X3086260Y-12152929D02*
X3076737Y-12162453D01*
X3076737Y-12162453D02*
X3057689Y-12171977D01*
X3057689Y-12171977D02*
X3038641Y-12171977D01*
X3038641Y-12171977D02*
X3019594Y-12162453D01*
X3019594Y-12162453D02*
X3010070Y-12152929D01*
X3010070Y-12152929D02*
X3000546Y-12133882D01*
X3000546Y-12133882D02*
X2991022Y-12095786D01*
X2991022Y-12095786D02*
X2991022Y-12048167D01*
X2991022Y-12048167D02*
X3000546Y-12010072D01*
X3000546Y-12010072D02*
X3010070Y-11991024D01*
X3010070Y-11991024D02*
X3019594Y-11981501D01*
X3019594Y-11981501D02*
X3038641Y-11971977D01*
X3229117Y-11971977D02*
X3248165Y-11971977D01*
X3248165Y-11971977D02*
X3267213Y-11981501D01*
X3267213Y-11981501D02*
X3276737Y-11991024D01*
X3276737Y-11991024D02*
X3286260Y-12010072D01*
X3286260Y-12010072D02*
X3295784Y-12048167D01*
X3295784Y-12048167D02*
X3295784Y-12095786D01*
X3295784Y-12095786D02*
X3286260Y-12133882D01*
X3286260Y-12133882D02*
X3276737Y-12152929D01*
X3276737Y-12152929D02*
X3267213Y-12162453D01*
X3267213Y-12162453D02*
X3248165Y-12171977D01*
X3248165Y-12171977D02*
X3229117Y-12171977D01*
X3229117Y-12171977D02*
X3210070Y-12162453D01*
X3210070Y-12162453D02*
X3200546Y-12152929D01*
X3200546Y-12152929D02*
X3191022Y-12133882D01*
X3191022Y-12133882D02*
X3181498Y-12095786D01*
X3181498Y-12095786D02*
X3181498Y-12048167D01*
X3181498Y-12048167D02*
X3191022Y-12010072D01*
X3191022Y-12010072D02*
X3200546Y-11991024D01*
X3200546Y-11991024D02*
X3210070Y-11981501D01*
X3210070Y-11981501D02*
X3229117Y-11971977D01*
X3381498Y-12171977D02*
X3381498Y-12038643D01*
X3381498Y-12057691D02*
X3391022Y-12048167D01*
X3391022Y-12048167D02*
X3410070Y-12038643D01*
X3410070Y-12038643D02*
X3438641Y-12038643D01*
X3438641Y-12038643D02*
X3457689Y-12048167D01*
X3457689Y-12048167D02*
X3467213Y-12067215D01*
X3467213Y-12067215D02*
X3467213Y-12171977D01*
X3467213Y-12067215D02*
X3476737Y-12048167D01*
X3476737Y-12048167D02*
X3495784Y-12038643D01*
X3495784Y-12038643D02*
X3524356Y-12038643D01*
X3524356Y-12038643D02*
X3543403Y-12048167D01*
X3543403Y-12048167D02*
X3552927Y-12067215D01*
X3552927Y-12067215D02*
X3552927Y-12171977D01*
X3648165Y-12171977D02*
X3648165Y-12038643D01*
X3648165Y-12057691D02*
X3657689Y-12048167D01*
X3657689Y-12048167D02*
X3676737Y-12038643D01*
X3676737Y-12038643D02*
X3705308Y-12038643D01*
X3705308Y-12038643D02*
X3724356Y-12048167D01*
X3724356Y-12048167D02*
X3733879Y-12067215D01*
X3733879Y-12067215D02*
X3733879Y-12171977D01*
X3733879Y-12067215D02*
X3743403Y-12048167D01*
X3743403Y-12048167D02*
X3762451Y-12038643D01*
X3762451Y-12038643D02*
X3791022Y-12038643D01*
X3791022Y-12038643D02*
X3810070Y-12048167D01*
X3810070Y-12048167D02*
X3819594Y-12067215D01*
X3819594Y-12067215D02*
X3819594Y-12171977D01*
X4177689Y-11962453D02*
X4006260Y-12219596D01*
X4402451Y-11971977D02*
X4421499Y-11971977D01*
X4421499Y-11971977D02*
X4440546Y-11981501D01*
X4440546Y-11981501D02*
X4450070Y-11991024D01*
X4450070Y-11991024D02*
X4459594Y-12010072D01*
X4459594Y-12010072D02*
X4469118Y-12048167D01*
X4469118Y-12048167D02*
X4469118Y-12095786D01*
X4469118Y-12095786D02*
X4459594Y-12133882D01*
X4459594Y-12133882D02*
X4450070Y-12152929D01*
X4450070Y-12152929D02*
X4440546Y-12162453D01*
X4440546Y-12162453D02*
X4421499Y-12171977D01*
X4421499Y-12171977D02*
X4402451Y-12171977D01*
X4402451Y-12171977D02*
X4383403Y-12162453D01*
X4383403Y-12162453D02*
X4373880Y-12152929D01*
X4373880Y-12152929D02*
X4364356Y-12133882D01*
X4364356Y-12133882D02*
X4354832Y-12095786D01*
X4354832Y-12095786D02*
X4354832Y-12048167D01*
X4354832Y-12048167D02*
X4364356Y-12010072D01*
X4364356Y-12010072D02*
X4373880Y-11991024D01*
X4373880Y-11991024D02*
X4383403Y-11981501D01*
X4383403Y-11981501D02*
X4402451Y-11971977D01*
X4554832Y-12152929D02*
X4564356Y-12162453D01*
X4564356Y-12162453D02*
X4554832Y-12171977D01*
X4554832Y-12171977D02*
X4545308Y-12162453D01*
X4545308Y-12162453D02*
X4554832Y-12152929D01*
X4554832Y-12152929D02*
X4554832Y-12171977D01*
X4754832Y-12171977D02*
X4640546Y-12171977D01*
X4697689Y-12171977D02*
X4697689Y-11971977D01*
X4697689Y-11971977D02*
X4678641Y-12000548D01*
X4678641Y-12000548D02*
X4659594Y-12019596D01*
X4659594Y-12019596D02*
X4640546Y-12029120D01*
X4945308Y-12171977D02*
X4831022Y-12171977D01*
X4888165Y-12171977D02*
X4888165Y-11971977D01*
X4888165Y-11971977D02*
X4869118Y-12000548D01*
X4869118Y-12000548D02*
X4850070Y-12019596D01*
X4850070Y-12019596D02*
X4831022Y-12029120D01*
X5059594Y-12057691D02*
X5040546Y-12048167D01*
X5040546Y-12048167D02*
X5031022Y-12038643D01*
X5031022Y-12038643D02*
X5021499Y-12019596D01*
X5021499Y-12019596D02*
X5021499Y-12010072D01*
X5021499Y-12010072D02*
X5031022Y-11991024D01*
X5031022Y-11991024D02*
X5040546Y-11981501D01*
X5040546Y-11981501D02*
X5059594Y-11971977D01*
X5059594Y-11971977D02*
X5097689Y-11971977D01*
X5097689Y-11971977D02*
X5116737Y-11981501D01*
X5116737Y-11981501D02*
X5126261Y-11991024D01*
X5126261Y-11991024D02*
X5135784Y-12010072D01*
X5135784Y-12010072D02*
X5135784Y-12019596D01*
X5135784Y-12019596D02*
X5126261Y-12038643D01*
X5126261Y-12038643D02*
X5116737Y-12048167D01*
X5116737Y-12048167D02*
X5097689Y-12057691D01*
X5097689Y-12057691D02*
X5059594Y-12057691D01*
X5059594Y-12057691D02*
X5040546Y-12067215D01*
X5040546Y-12067215D02*
X5031022Y-12076739D01*
X5031022Y-12076739D02*
X5021499Y-12095786D01*
X5021499Y-12095786D02*
X5021499Y-12133882D01*
X5021499Y-12133882D02*
X5031022Y-12152929D01*
X5031022Y-12152929D02*
X5040546Y-12162453D01*
X5040546Y-12162453D02*
X5059594Y-12171977D01*
X5059594Y-12171977D02*
X5097689Y-12171977D01*
X5097689Y-12171977D02*
X5116737Y-12162453D01*
X5116737Y-12162453D02*
X5126261Y-12152929D01*
X5126261Y-12152929D02*
X5135784Y-12133882D01*
X5135784Y-12133882D02*
X5135784Y-12095786D01*
X5135784Y-12095786D02*
X5126261Y-12076739D01*
X5126261Y-12076739D02*
X5116737Y-12067215D01*
X5116737Y-12067215D02*
X5097689Y-12057691D01*
X5326261Y-12171977D02*
X5211975Y-12171977D01*
X5269118Y-12171977D02*
X5269118Y-11971977D01*
X5269118Y-11971977D02*
X5250070Y-12000548D01*
X5250070Y-12000548D02*
X5231022Y-12019596D01*
X5231022Y-12019596D02*
X5211975Y-12029120D01*
X5402451Y-11971977D02*
X5402451Y-12010072D01*
X5478642Y-11971977D02*
X5478642Y-12010072D01*
X5741499Y-12248167D02*
X5731975Y-12238643D01*
X5731975Y-12238643D02*
X5712927Y-12210072D01*
X5712927Y-12210072D02*
X5703403Y-12191024D01*
X5703403Y-12191024D02*
X5693880Y-12162453D01*
X5693880Y-12162453D02*
X5684356Y-12114834D01*
X5684356Y-12114834D02*
X5684356Y-12076739D01*
X5684356Y-12076739D02*
X5693880Y-12029120D01*
X5693880Y-12029120D02*
X5703403Y-12000548D01*
X5703403Y-12000548D02*
X5712927Y-11981501D01*
X5712927Y-11981501D02*
X5731975Y-11952929D01*
X5731975Y-11952929D02*
X5741499Y-11943405D01*
X5903403Y-11971977D02*
X5865308Y-11971977D01*
X5865308Y-11971977D02*
X5846260Y-11981501D01*
X5846260Y-11981501D02*
X5836737Y-11991024D01*
X5836737Y-11991024D02*
X5817689Y-12019596D01*
X5817689Y-12019596D02*
X5808165Y-12057691D01*
X5808165Y-12057691D02*
X5808165Y-12133882D01*
X5808165Y-12133882D02*
X5817689Y-12152929D01*
X5817689Y-12152929D02*
X5827213Y-12162453D01*
X5827213Y-12162453D02*
X5846260Y-12171977D01*
X5846260Y-12171977D02*
X5884356Y-12171977D01*
X5884356Y-12171977D02*
X5903403Y-12162453D01*
X5903403Y-12162453D02*
X5912927Y-12152929D01*
X5912927Y-12152929D02*
X5922451Y-12133882D01*
X5922451Y-12133882D02*
X5922451Y-12086263D01*
X5922451Y-12086263D02*
X5912927Y-12067215D01*
X5912927Y-12067215D02*
X5903403Y-12057691D01*
X5903403Y-12057691D02*
X5884356Y-12048167D01*
X5884356Y-12048167D02*
X5846260Y-12048167D01*
X5846260Y-12048167D02*
X5827213Y-12057691D01*
X5827213Y-12057691D02*
X5817689Y-12067215D01*
X5817689Y-12067215D02*
X5808165Y-12086263D01*
X6036737Y-12057691D02*
X6017689Y-12048167D01*
X6017689Y-12048167D02*
X6008165Y-12038643D01*
X6008165Y-12038643D02*
X5998641Y-12019596D01*
X5998641Y-12019596D02*
X5998641Y-12010072D01*
X5998641Y-12010072D02*
X6008165Y-11991024D01*
X6008165Y-11991024D02*
X6017689Y-11981501D01*
X6017689Y-11981501D02*
X6036737Y-11971977D01*
X6036737Y-11971977D02*
X6074832Y-11971977D01*
X6074832Y-11971977D02*
X6093880Y-11981501D01*
X6093880Y-11981501D02*
X6103403Y-11991024D01*
X6103403Y-11991024D02*
X6112927Y-12010072D01*
X6112927Y-12010072D02*
X6112927Y-12019596D01*
X6112927Y-12019596D02*
X6103403Y-12038643D01*
X6103403Y-12038643D02*
X6093880Y-12048167D01*
X6093880Y-12048167D02*
X6074832Y-12057691D01*
X6074832Y-12057691D02*
X6036737Y-12057691D01*
X6036737Y-12057691D02*
X6017689Y-12067215D01*
X6017689Y-12067215D02*
X6008165Y-12076739D01*
X6008165Y-12076739D02*
X5998641Y-12095786D01*
X5998641Y-12095786D02*
X5998641Y-12133882D01*
X5998641Y-12133882D02*
X6008165Y-12152929D01*
X6008165Y-12152929D02*
X6017689Y-12162453D01*
X6017689Y-12162453D02*
X6036737Y-12171977D01*
X6036737Y-12171977D02*
X6074832Y-12171977D01*
X6074832Y-12171977D02*
X6093880Y-12162453D01*
X6093880Y-12162453D02*
X6103403Y-12152929D01*
X6103403Y-12152929D02*
X6112927Y-12133882D01*
X6112927Y-12133882D02*
X6112927Y-12095786D01*
X6112927Y-12095786D02*
X6103403Y-12076739D01*
X6103403Y-12076739D02*
X6093880Y-12067215D01*
X6093880Y-12067215D02*
X6074832Y-12057691D01*
X6318641Y-12171977D02*
X6318641Y-11971977D01*
X6404356Y-12171977D02*
X6404356Y-12067215D01*
X6404356Y-12067215D02*
X6394832Y-12048167D01*
X6394832Y-12048167D02*
X6375784Y-12038643D01*
X6375784Y-12038643D02*
X6347213Y-12038643D01*
X6347213Y-12038643D02*
X6328165Y-12048167D01*
X6328165Y-12048167D02*
X6318641Y-12057691D01*
X6528165Y-12171977D02*
X6509118Y-12162453D01*
X6509118Y-12162453D02*
X6499594Y-12152929D01*
X6499594Y-12152929D02*
X6490070Y-12133882D01*
X6490070Y-12133882D02*
X6490070Y-12076739D01*
X6490070Y-12076739D02*
X6499594Y-12057691D01*
X6499594Y-12057691D02*
X6509118Y-12048167D01*
X6509118Y-12048167D02*
X6528165Y-12038643D01*
X6528165Y-12038643D02*
X6556737Y-12038643D01*
X6556737Y-12038643D02*
X6575784Y-12048167D01*
X6575784Y-12048167D02*
X6585308Y-12057691D01*
X6585308Y-12057691D02*
X6594832Y-12076739D01*
X6594832Y-12076739D02*
X6594832Y-12133882D01*
X6594832Y-12133882D02*
X6585308Y-12152929D01*
X6585308Y-12152929D02*
X6575784Y-12162453D01*
X6575784Y-12162453D02*
X6556737Y-12171977D01*
X6556737Y-12171977D02*
X6528165Y-12171977D01*
X6709118Y-12171977D02*
X6690070Y-12162453D01*
X6690070Y-12162453D02*
X6680546Y-12143405D01*
X6680546Y-12143405D02*
X6680546Y-11971977D01*
X6861499Y-12162453D02*
X6842451Y-12171977D01*
X6842451Y-12171977D02*
X6804356Y-12171977D01*
X6804356Y-12171977D02*
X6785308Y-12162453D01*
X6785308Y-12162453D02*
X6775784Y-12143405D01*
X6775784Y-12143405D02*
X6775784Y-12067215D01*
X6775784Y-12067215D02*
X6785308Y-12048167D01*
X6785308Y-12048167D02*
X6804356Y-12038643D01*
X6804356Y-12038643D02*
X6842451Y-12038643D01*
X6842451Y-12038643D02*
X6861499Y-12048167D01*
X6861499Y-12048167D02*
X6871022Y-12067215D01*
X6871022Y-12067215D02*
X6871022Y-12086263D01*
X6871022Y-12086263D02*
X6775784Y-12105310D01*
X6947213Y-12162453D02*
X6966261Y-12171977D01*
X6966261Y-12171977D02*
X7004356Y-12171977D01*
X7004356Y-12171977D02*
X7023403Y-12162453D01*
X7023403Y-12162453D02*
X7032927Y-12143405D01*
X7032927Y-12143405D02*
X7032927Y-12133882D01*
X7032927Y-12133882D02*
X7023403Y-12114834D01*
X7023403Y-12114834D02*
X7004356Y-12105310D01*
X7004356Y-12105310D02*
X6975784Y-12105310D01*
X6975784Y-12105310D02*
X6956737Y-12095786D01*
X6956737Y-12095786D02*
X6947213Y-12076739D01*
X6947213Y-12076739D02*
X6947213Y-12067215D01*
X6947213Y-12067215D02*
X6956737Y-12048167D01*
X6956737Y-12048167D02*
X6975784Y-12038643D01*
X6975784Y-12038643D02*
X7004356Y-12038643D01*
X7004356Y-12038643D02*
X7023403Y-12048167D01*
X7099594Y-12248167D02*
X7109118Y-12238643D01*
X7109118Y-12238643D02*
X7128165Y-12210072D01*
X7128165Y-12210072D02*
X7137689Y-12191024D01*
X7137689Y-12191024D02*
X7147213Y-12162453D01*
X7147213Y-12162453D02*
X7156737Y-12114834D01*
X7156737Y-12114834D02*
X7156737Y-12076739D01*
X7156737Y-12076739D02*
X7147213Y-12029120D01*
X7147213Y-12029120D02*
X7137689Y-12000548D01*
X7137689Y-12000548D02*
X7128165Y-11981501D01*
X7128165Y-11981501D02*
X7109118Y-11952929D01*
X7109118Y-11952929D02*
X7099594Y-11943405D01*
X7429118Y-12248167D02*
X7419594Y-12238643D01*
X7419594Y-12238643D02*
X7400546Y-12210072D01*
X7400546Y-12210072D02*
X7391022Y-12191024D01*
X7391022Y-12191024D02*
X7381499Y-12162453D01*
X7381499Y-12162453D02*
X7371975Y-12114834D01*
X7371975Y-12114834D02*
X7371975Y-12076739D01*
X7371975Y-12076739D02*
X7381499Y-12029120D01*
X7381499Y-12029120D02*
X7391022Y-12000548D01*
X7391022Y-12000548D02*
X7400546Y-11981501D01*
X7400546Y-11981501D02*
X7419594Y-11952929D01*
X7419594Y-11952929D02*
X7429118Y-11943405D01*
X7505308Y-12038643D02*
X7505308Y-12171977D01*
X7505308Y-12057691D02*
X7514832Y-12048167D01*
X7514832Y-12048167D02*
X7533880Y-12038643D01*
X7533880Y-12038643D02*
X7562451Y-12038643D01*
X7562451Y-12038643D02*
X7581499Y-12048167D01*
X7581499Y-12048167D02*
X7591022Y-12067215D01*
X7591022Y-12067215D02*
X7591022Y-12171977D01*
X7714832Y-12171977D02*
X7695784Y-12162453D01*
X7695784Y-12162453D02*
X7686261Y-12152929D01*
X7686261Y-12152929D02*
X7676737Y-12133882D01*
X7676737Y-12133882D02*
X7676737Y-12076739D01*
X7676737Y-12076739D02*
X7686261Y-12057691D01*
X7686261Y-12057691D02*
X7695784Y-12048167D01*
X7695784Y-12048167D02*
X7714832Y-12038643D01*
X7714832Y-12038643D02*
X7743403Y-12038643D01*
X7743403Y-12038643D02*
X7762451Y-12048167D01*
X7762451Y-12048167D02*
X7771975Y-12057691D01*
X7771975Y-12057691D02*
X7781499Y-12076739D01*
X7781499Y-12076739D02*
X7781499Y-12133882D01*
X7781499Y-12133882D02*
X7771975Y-12152929D01*
X7771975Y-12152929D02*
X7762451Y-12162453D01*
X7762451Y-12162453D02*
X7743403Y-12171977D01*
X7743403Y-12171977D02*
X7714832Y-12171977D01*
X7838642Y-12038643D02*
X7914832Y-12038643D01*
X7867213Y-11971977D02*
X7867213Y-12143405D01*
X7867213Y-12143405D02*
X7876737Y-12162453D01*
X7876737Y-12162453D02*
X7895784Y-12171977D01*
X7895784Y-12171977D02*
X7914832Y-12171977D01*
X8101499Y-12038643D02*
X8101499Y-12238643D01*
X8101499Y-12048167D02*
X8120546Y-12038643D01*
X8120546Y-12038643D02*
X8158642Y-12038643D01*
X8158642Y-12038643D02*
X8177689Y-12048167D01*
X8177689Y-12048167D02*
X8187213Y-12057691D01*
X8187213Y-12057691D02*
X8196737Y-12076739D01*
X8196737Y-12076739D02*
X8196737Y-12133882D01*
X8196737Y-12133882D02*
X8187213Y-12152929D01*
X8187213Y-12152929D02*
X8177689Y-12162453D01*
X8177689Y-12162453D02*
X8158642Y-12171977D01*
X8158642Y-12171977D02*
X8120546Y-12171977D01*
X8120546Y-12171977D02*
X8101499Y-12162453D01*
X8311022Y-12171977D02*
X8291975Y-12162453D01*
X8291975Y-12162453D02*
X8282451Y-12143405D01*
X8282451Y-12143405D02*
X8282451Y-11971977D01*
X8472927Y-12171977D02*
X8472927Y-12067215D01*
X8472927Y-12067215D02*
X8463404Y-12048167D01*
X8463404Y-12048167D02*
X8444356Y-12038643D01*
X8444356Y-12038643D02*
X8406261Y-12038643D01*
X8406261Y-12038643D02*
X8387213Y-12048167D01*
X8472927Y-12162453D02*
X8453880Y-12171977D01*
X8453880Y-12171977D02*
X8406261Y-12171977D01*
X8406261Y-12171977D02*
X8387213Y-12162453D01*
X8387213Y-12162453D02*
X8377689Y-12143405D01*
X8377689Y-12143405D02*
X8377689Y-12124358D01*
X8377689Y-12124358D02*
X8387213Y-12105310D01*
X8387213Y-12105310D02*
X8406261Y-12095786D01*
X8406261Y-12095786D02*
X8453880Y-12095786D01*
X8453880Y-12095786D02*
X8472927Y-12086263D01*
X8539594Y-12038643D02*
X8615784Y-12038643D01*
X8568165Y-11971977D02*
X8568165Y-12143405D01*
X8568165Y-12143405D02*
X8577689Y-12162453D01*
X8577689Y-12162453D02*
X8596737Y-12171977D01*
X8596737Y-12171977D02*
X8615784Y-12171977D01*
X8758642Y-12162453D02*
X8739594Y-12171977D01*
X8739594Y-12171977D02*
X8701499Y-12171977D01*
X8701499Y-12171977D02*
X8682451Y-12162453D01*
X8682451Y-12162453D02*
X8672927Y-12143405D01*
X8672927Y-12143405D02*
X8672927Y-12067215D01*
X8672927Y-12067215D02*
X8682451Y-12048167D01*
X8682451Y-12048167D02*
X8701499Y-12038643D01*
X8701499Y-12038643D02*
X8739594Y-12038643D01*
X8739594Y-12038643D02*
X8758642Y-12048167D01*
X8758642Y-12048167D02*
X8768165Y-12067215D01*
X8768165Y-12067215D02*
X8768165Y-12086263D01*
X8768165Y-12086263D02*
X8672927Y-12105310D01*
X8939594Y-12171977D02*
X8939594Y-11971977D01*
X8939594Y-12162453D02*
X8920546Y-12171977D01*
X8920546Y-12171977D02*
X8882451Y-12171977D01*
X8882451Y-12171977D02*
X8863404Y-12162453D01*
X8863404Y-12162453D02*
X8853880Y-12152929D01*
X8853880Y-12152929D02*
X8844356Y-12133882D01*
X8844356Y-12133882D02*
X8844356Y-12076739D01*
X8844356Y-12076739D02*
X8853880Y-12057691D01*
X8853880Y-12057691D02*
X8863404Y-12048167D01*
X8863404Y-12048167D02*
X8882451Y-12038643D01*
X8882451Y-12038643D02*
X8920546Y-12038643D01*
X8920546Y-12038643D02*
X8939594Y-12048167D01*
X9015785Y-12248167D02*
X9025308Y-12238643D01*
X9025308Y-12238643D02*
X9044356Y-12210072D01*
X9044356Y-12210072D02*
X9053880Y-12191024D01*
X9053880Y-12191024D02*
X9063404Y-12162453D01*
X9063404Y-12162453D02*
X9072927Y-12114834D01*
X9072927Y-12114834D02*
X9072927Y-12076739D01*
X9072927Y-12076739D02*
X9063404Y-12029120D01*
X9063404Y-12029120D02*
X9053880Y-12000548D01*
X9053880Y-12000548D02*
X9044356Y-11981501D01*
X9044356Y-11981501D02*
X9025308Y-11952929D01*
X9025308Y-11952929D02*
X9015785Y-11943405D01*
X2176737Y-12518501D02*
X2276737Y-12418501D01*
X2176737Y-12318501D01*
X2076737Y-12418501D01*
X2176737Y-12518501D01*
X2505308Y-12291977D02*
X2629118Y-12291977D01*
X2629118Y-12291977D02*
X2562451Y-12368167D01*
X2562451Y-12368167D02*
X2591022Y-12368167D01*
X2591022Y-12368167D02*
X2610070Y-12377691D01*
X2610070Y-12377691D02*
X2619594Y-12387215D01*
X2619594Y-12387215D02*
X2629118Y-12406263D01*
X2629118Y-12406263D02*
X2629118Y-12453882D01*
X2629118Y-12453882D02*
X2619594Y-12472929D01*
X2619594Y-12472929D02*
X2610070Y-12482453D01*
X2610070Y-12482453D02*
X2591022Y-12491977D01*
X2591022Y-12491977D02*
X2533879Y-12491977D01*
X2533879Y-12491977D02*
X2514832Y-12482453D01*
X2514832Y-12482453D02*
X2505308Y-12472929D01*
X2714832Y-12472929D02*
X2724356Y-12482453D01*
X2724356Y-12482453D02*
X2714832Y-12491977D01*
X2714832Y-12491977D02*
X2705308Y-12482453D01*
X2705308Y-12482453D02*
X2714832Y-12472929D01*
X2714832Y-12472929D02*
X2714832Y-12491977D01*
X2819594Y-12491977D02*
X2857689Y-12491977D01*
X2857689Y-12491977D02*
X2876737Y-12482453D01*
X2876737Y-12482453D02*
X2886260Y-12472929D01*
X2886260Y-12472929D02*
X2905308Y-12444358D01*
X2905308Y-12444358D02*
X2914832Y-12406263D01*
X2914832Y-12406263D02*
X2914832Y-12330072D01*
X2914832Y-12330072D02*
X2905308Y-12311024D01*
X2905308Y-12311024D02*
X2895784Y-12301501D01*
X2895784Y-12301501D02*
X2876737Y-12291977D01*
X2876737Y-12291977D02*
X2838641Y-12291977D01*
X2838641Y-12291977D02*
X2819594Y-12301501D01*
X2819594Y-12301501D02*
X2810070Y-12311024D01*
X2810070Y-12311024D02*
X2800546Y-12330072D01*
X2800546Y-12330072D02*
X2800546Y-12377691D01*
X2800546Y-12377691D02*
X2810070Y-12396739D01*
X2810070Y-12396739D02*
X2819594Y-12406263D01*
X2819594Y-12406263D02*
X2838641Y-12415786D01*
X2838641Y-12415786D02*
X2876737Y-12415786D01*
X2876737Y-12415786D02*
X2895784Y-12406263D01*
X2895784Y-12406263D02*
X2905308Y-12396739D01*
X2905308Y-12396739D02*
X2914832Y-12377691D01*
X3029117Y-12377691D02*
X3010070Y-12368167D01*
X3010070Y-12368167D02*
X3000546Y-12358643D01*
X3000546Y-12358643D02*
X2991022Y-12339596D01*
X2991022Y-12339596D02*
X2991022Y-12330072D01*
X2991022Y-12330072D02*
X3000546Y-12311024D01*
X3000546Y-12311024D02*
X3010070Y-12301501D01*
X3010070Y-12301501D02*
X3029117Y-12291977D01*
X3029117Y-12291977D02*
X3067213Y-12291977D01*
X3067213Y-12291977D02*
X3086260Y-12301501D01*
X3086260Y-12301501D02*
X3095784Y-12311024D01*
X3095784Y-12311024D02*
X3105308Y-12330072D01*
X3105308Y-12330072D02*
X3105308Y-12339596D01*
X3105308Y-12339596D02*
X3095784Y-12358643D01*
X3095784Y-12358643D02*
X3086260Y-12368167D01*
X3086260Y-12368167D02*
X3067213Y-12377691D01*
X3067213Y-12377691D02*
X3029117Y-12377691D01*
X3029117Y-12377691D02*
X3010070Y-12387215D01*
X3010070Y-12387215D02*
X3000546Y-12396739D01*
X3000546Y-12396739D02*
X2991022Y-12415786D01*
X2991022Y-12415786D02*
X2991022Y-12453882D01*
X2991022Y-12453882D02*
X3000546Y-12472929D01*
X3000546Y-12472929D02*
X3010070Y-12482453D01*
X3010070Y-12482453D02*
X3029117Y-12491977D01*
X3029117Y-12491977D02*
X3067213Y-12491977D01*
X3067213Y-12491977D02*
X3086260Y-12482453D01*
X3086260Y-12482453D02*
X3095784Y-12472929D01*
X3095784Y-12472929D02*
X3105308Y-12453882D01*
X3105308Y-12453882D02*
X3105308Y-12415786D01*
X3105308Y-12415786D02*
X3095784Y-12396739D01*
X3095784Y-12396739D02*
X3086260Y-12387215D01*
X3086260Y-12387215D02*
X3067213Y-12377691D01*
X3219594Y-12377691D02*
X3200546Y-12368167D01*
X3200546Y-12368167D02*
X3191022Y-12358643D01*
X3191022Y-12358643D02*
X3181498Y-12339596D01*
X3181498Y-12339596D02*
X3181498Y-12330072D01*
X3181498Y-12330072D02*
X3191022Y-12311024D01*
X3191022Y-12311024D02*
X3200546Y-12301501D01*
X3200546Y-12301501D02*
X3219594Y-12291977D01*
X3219594Y-12291977D02*
X3257689Y-12291977D01*
X3257689Y-12291977D02*
X3276737Y-12301501D01*
X3276737Y-12301501D02*
X3286260Y-12311024D01*
X3286260Y-12311024D02*
X3295784Y-12330072D01*
X3295784Y-12330072D02*
X3295784Y-12339596D01*
X3295784Y-12339596D02*
X3286260Y-12358643D01*
X3286260Y-12358643D02*
X3276737Y-12368167D01*
X3276737Y-12368167D02*
X3257689Y-12377691D01*
X3257689Y-12377691D02*
X3219594Y-12377691D01*
X3219594Y-12377691D02*
X3200546Y-12387215D01*
X3200546Y-12387215D02*
X3191022Y-12396739D01*
X3191022Y-12396739D02*
X3181498Y-12415786D01*
X3181498Y-12415786D02*
X3181498Y-12453882D01*
X3181498Y-12453882D02*
X3191022Y-12472929D01*
X3191022Y-12472929D02*
X3200546Y-12482453D01*
X3200546Y-12482453D02*
X3219594Y-12491977D01*
X3219594Y-12491977D02*
X3257689Y-12491977D01*
X3257689Y-12491977D02*
X3276737Y-12482453D01*
X3276737Y-12482453D02*
X3286260Y-12472929D01*
X3286260Y-12472929D02*
X3295784Y-12453882D01*
X3295784Y-12453882D02*
X3295784Y-12415786D01*
X3295784Y-12415786D02*
X3286260Y-12396739D01*
X3286260Y-12396739D02*
X3276737Y-12387215D01*
X3276737Y-12387215D02*
X3257689Y-12377691D01*
X3381498Y-12491977D02*
X3381498Y-12358643D01*
X3381498Y-12377691D02*
X3391022Y-12368167D01*
X3391022Y-12368167D02*
X3410070Y-12358643D01*
X3410070Y-12358643D02*
X3438641Y-12358643D01*
X3438641Y-12358643D02*
X3457689Y-12368167D01*
X3457689Y-12368167D02*
X3467213Y-12387215D01*
X3467213Y-12387215D02*
X3467213Y-12491977D01*
X3467213Y-12387215D02*
X3476737Y-12368167D01*
X3476737Y-12368167D02*
X3495784Y-12358643D01*
X3495784Y-12358643D02*
X3524356Y-12358643D01*
X3524356Y-12358643D02*
X3543403Y-12368167D01*
X3543403Y-12368167D02*
X3552927Y-12387215D01*
X3552927Y-12387215D02*
X3552927Y-12491977D01*
X3648165Y-12491977D02*
X3648165Y-12358643D01*
X3648165Y-12377691D02*
X3657689Y-12368167D01*
X3657689Y-12368167D02*
X3676737Y-12358643D01*
X3676737Y-12358643D02*
X3705308Y-12358643D01*
X3705308Y-12358643D02*
X3724356Y-12368167D01*
X3724356Y-12368167D02*
X3733879Y-12387215D01*
X3733879Y-12387215D02*
X3733879Y-12491977D01*
X3733879Y-12387215D02*
X3743403Y-12368167D01*
X3743403Y-12368167D02*
X3762451Y-12358643D01*
X3762451Y-12358643D02*
X3791022Y-12358643D01*
X3791022Y-12358643D02*
X3810070Y-12368167D01*
X3810070Y-12368167D02*
X3819594Y-12387215D01*
X3819594Y-12387215D02*
X3819594Y-12491977D01*
X4177689Y-12282453D02*
X4006260Y-12539596D01*
X4402451Y-12291977D02*
X4421499Y-12291977D01*
X4421499Y-12291977D02*
X4440546Y-12301501D01*
X4440546Y-12301501D02*
X4450070Y-12311024D01*
X4450070Y-12311024D02*
X4459594Y-12330072D01*
X4459594Y-12330072D02*
X4469118Y-12368167D01*
X4469118Y-12368167D02*
X4469118Y-12415786D01*
X4469118Y-12415786D02*
X4459594Y-12453882D01*
X4459594Y-12453882D02*
X4450070Y-12472929D01*
X4450070Y-12472929D02*
X4440546Y-12482453D01*
X4440546Y-12482453D02*
X4421499Y-12491977D01*
X4421499Y-12491977D02*
X4402451Y-12491977D01*
X4402451Y-12491977D02*
X4383403Y-12482453D01*
X4383403Y-12482453D02*
X4373880Y-12472929D01*
X4373880Y-12472929D02*
X4364356Y-12453882D01*
X4364356Y-12453882D02*
X4354832Y-12415786D01*
X4354832Y-12415786D02*
X4354832Y-12368167D01*
X4354832Y-12368167D02*
X4364356Y-12330072D01*
X4364356Y-12330072D02*
X4373880Y-12311024D01*
X4373880Y-12311024D02*
X4383403Y-12301501D01*
X4383403Y-12301501D02*
X4402451Y-12291977D01*
X4554832Y-12472929D02*
X4564356Y-12482453D01*
X4564356Y-12482453D02*
X4554832Y-12491977D01*
X4554832Y-12491977D02*
X4545308Y-12482453D01*
X4545308Y-12482453D02*
X4554832Y-12472929D01*
X4554832Y-12472929D02*
X4554832Y-12491977D01*
X4754832Y-12491977D02*
X4640546Y-12491977D01*
X4697689Y-12491977D02*
X4697689Y-12291977D01*
X4697689Y-12291977D02*
X4678641Y-12320548D01*
X4678641Y-12320548D02*
X4659594Y-12339596D01*
X4659594Y-12339596D02*
X4640546Y-12349120D01*
X4935784Y-12291977D02*
X4840546Y-12291977D01*
X4840546Y-12291977D02*
X4831022Y-12387215D01*
X4831022Y-12387215D02*
X4840546Y-12377691D01*
X4840546Y-12377691D02*
X4859594Y-12368167D01*
X4859594Y-12368167D02*
X4907213Y-12368167D01*
X4907213Y-12368167D02*
X4926261Y-12377691D01*
X4926261Y-12377691D02*
X4935784Y-12387215D01*
X4935784Y-12387215D02*
X4945308Y-12406263D01*
X4945308Y-12406263D02*
X4945308Y-12453882D01*
X4945308Y-12453882D02*
X4935784Y-12472929D01*
X4935784Y-12472929D02*
X4926261Y-12482453D01*
X4926261Y-12482453D02*
X4907213Y-12491977D01*
X4907213Y-12491977D02*
X4859594Y-12491977D01*
X4859594Y-12491977D02*
X4840546Y-12482453D01*
X4840546Y-12482453D02*
X4831022Y-12472929D01*
X5011975Y-12291977D02*
X5145308Y-12291977D01*
X5145308Y-12291977D02*
X5059594Y-12491977D01*
X5259594Y-12291977D02*
X5278642Y-12291977D01*
X5278642Y-12291977D02*
X5297689Y-12301501D01*
X5297689Y-12301501D02*
X5307213Y-12311024D01*
X5307213Y-12311024D02*
X5316737Y-12330072D01*
X5316737Y-12330072D02*
X5326261Y-12368167D01*
X5326261Y-12368167D02*
X5326261Y-12415786D01*
X5326261Y-12415786D02*
X5316737Y-12453882D01*
X5316737Y-12453882D02*
X5307213Y-12472929D01*
X5307213Y-12472929D02*
X5297689Y-12482453D01*
X5297689Y-12482453D02*
X5278642Y-12491977D01*
X5278642Y-12491977D02*
X5259594Y-12491977D01*
X5259594Y-12491977D02*
X5240546Y-12482453D01*
X5240546Y-12482453D02*
X5231022Y-12472929D01*
X5231022Y-12472929D02*
X5221499Y-12453882D01*
X5221499Y-12453882D02*
X5211975Y-12415786D01*
X5211975Y-12415786D02*
X5211975Y-12368167D01*
X5211975Y-12368167D02*
X5221499Y-12330072D01*
X5221499Y-12330072D02*
X5231022Y-12311024D01*
X5231022Y-12311024D02*
X5240546Y-12301501D01*
X5240546Y-12301501D02*
X5259594Y-12291977D01*
X5402451Y-12291977D02*
X5402451Y-12330072D01*
X5478642Y-12291977D02*
X5478642Y-12330072D01*
X5741499Y-12568167D02*
X5731975Y-12558643D01*
X5731975Y-12558643D02*
X5712927Y-12530072D01*
X5712927Y-12530072D02*
X5703403Y-12511024D01*
X5703403Y-12511024D02*
X5693880Y-12482453D01*
X5693880Y-12482453D02*
X5684356Y-12434834D01*
X5684356Y-12434834D02*
X5684356Y-12396739D01*
X5684356Y-12396739D02*
X5693880Y-12349120D01*
X5693880Y-12349120D02*
X5703403Y-12320548D01*
X5703403Y-12320548D02*
X5712927Y-12301501D01*
X5712927Y-12301501D02*
X5731975Y-12272929D01*
X5731975Y-12272929D02*
X5741499Y-12263405D01*
X5798641Y-12291977D02*
X5922451Y-12291977D01*
X5922451Y-12291977D02*
X5855784Y-12368167D01*
X5855784Y-12368167D02*
X5884356Y-12368167D01*
X5884356Y-12368167D02*
X5903403Y-12377691D01*
X5903403Y-12377691D02*
X5912927Y-12387215D01*
X5912927Y-12387215D02*
X5922451Y-12406263D01*
X5922451Y-12406263D02*
X5922451Y-12453882D01*
X5922451Y-12453882D02*
X5912927Y-12472929D01*
X5912927Y-12472929D02*
X5903403Y-12482453D01*
X5903403Y-12482453D02*
X5884356Y-12491977D01*
X5884356Y-12491977D02*
X5827213Y-12491977D01*
X5827213Y-12491977D02*
X5808165Y-12482453D01*
X5808165Y-12482453D02*
X5798641Y-12472929D01*
X6093880Y-12358643D02*
X6093880Y-12491977D01*
X6046260Y-12282453D02*
X5998641Y-12425310D01*
X5998641Y-12425310D02*
X6122451Y-12425310D01*
X6318641Y-12491977D02*
X6318641Y-12291977D01*
X6404356Y-12491977D02*
X6404356Y-12387215D01*
X6404356Y-12387215D02*
X6394832Y-12368167D01*
X6394832Y-12368167D02*
X6375784Y-12358643D01*
X6375784Y-12358643D02*
X6347213Y-12358643D01*
X6347213Y-12358643D02*
X6328165Y-12368167D01*
X6328165Y-12368167D02*
X6318641Y-12377691D01*
X6528165Y-12491977D02*
X6509118Y-12482453D01*
X6509118Y-12482453D02*
X6499594Y-12472929D01*
X6499594Y-12472929D02*
X6490070Y-12453882D01*
X6490070Y-12453882D02*
X6490070Y-12396739D01*
X6490070Y-12396739D02*
X6499594Y-12377691D01*
X6499594Y-12377691D02*
X6509118Y-12368167D01*
X6509118Y-12368167D02*
X6528165Y-12358643D01*
X6528165Y-12358643D02*
X6556737Y-12358643D01*
X6556737Y-12358643D02*
X6575784Y-12368167D01*
X6575784Y-12368167D02*
X6585308Y-12377691D01*
X6585308Y-12377691D02*
X6594832Y-12396739D01*
X6594832Y-12396739D02*
X6594832Y-12453882D01*
X6594832Y-12453882D02*
X6585308Y-12472929D01*
X6585308Y-12472929D02*
X6575784Y-12482453D01*
X6575784Y-12482453D02*
X6556737Y-12491977D01*
X6556737Y-12491977D02*
X6528165Y-12491977D01*
X6709118Y-12491977D02*
X6690070Y-12482453D01*
X6690070Y-12482453D02*
X6680546Y-12463405D01*
X6680546Y-12463405D02*
X6680546Y-12291977D01*
X6861499Y-12482453D02*
X6842451Y-12491977D01*
X6842451Y-12491977D02*
X6804356Y-12491977D01*
X6804356Y-12491977D02*
X6785308Y-12482453D01*
X6785308Y-12482453D02*
X6775784Y-12463405D01*
X6775784Y-12463405D02*
X6775784Y-12387215D01*
X6775784Y-12387215D02*
X6785308Y-12368167D01*
X6785308Y-12368167D02*
X6804356Y-12358643D01*
X6804356Y-12358643D02*
X6842451Y-12358643D01*
X6842451Y-12358643D02*
X6861499Y-12368167D01*
X6861499Y-12368167D02*
X6871022Y-12387215D01*
X6871022Y-12387215D02*
X6871022Y-12406263D01*
X6871022Y-12406263D02*
X6775784Y-12425310D01*
X6947213Y-12482453D02*
X6966261Y-12491977D01*
X6966261Y-12491977D02*
X7004356Y-12491977D01*
X7004356Y-12491977D02*
X7023403Y-12482453D01*
X7023403Y-12482453D02*
X7032927Y-12463405D01*
X7032927Y-12463405D02*
X7032927Y-12453882D01*
X7032927Y-12453882D02*
X7023403Y-12434834D01*
X7023403Y-12434834D02*
X7004356Y-12425310D01*
X7004356Y-12425310D02*
X6975784Y-12425310D01*
X6975784Y-12425310D02*
X6956737Y-12415786D01*
X6956737Y-12415786D02*
X6947213Y-12396739D01*
X6947213Y-12396739D02*
X6947213Y-12387215D01*
X6947213Y-12387215D02*
X6956737Y-12368167D01*
X6956737Y-12368167D02*
X6975784Y-12358643D01*
X6975784Y-12358643D02*
X7004356Y-12358643D01*
X7004356Y-12358643D02*
X7023403Y-12368167D01*
X7099594Y-12568167D02*
X7109118Y-12558643D01*
X7109118Y-12558643D02*
X7128165Y-12530072D01*
X7128165Y-12530072D02*
X7137689Y-12511024D01*
X7137689Y-12511024D02*
X7147213Y-12482453D01*
X7147213Y-12482453D02*
X7156737Y-12434834D01*
X7156737Y-12434834D02*
X7156737Y-12396739D01*
X7156737Y-12396739D02*
X7147213Y-12349120D01*
X7147213Y-12349120D02*
X7137689Y-12320548D01*
X7137689Y-12320548D02*
X7128165Y-12301501D01*
X7128165Y-12301501D02*
X7109118Y-12272929D01*
X7109118Y-12272929D02*
X7099594Y-12263405D01*
X7429118Y-12568167D02*
X7419594Y-12558643D01*
X7419594Y-12558643D02*
X7400546Y-12530072D01*
X7400546Y-12530072D02*
X7391022Y-12511024D01*
X7391022Y-12511024D02*
X7381499Y-12482453D01*
X7381499Y-12482453D02*
X7371975Y-12434834D01*
X7371975Y-12434834D02*
X7371975Y-12396739D01*
X7371975Y-12396739D02*
X7381499Y-12349120D01*
X7381499Y-12349120D02*
X7391022Y-12320548D01*
X7391022Y-12320548D02*
X7400546Y-12301501D01*
X7400546Y-12301501D02*
X7419594Y-12272929D01*
X7419594Y-12272929D02*
X7429118Y-12263405D01*
X7505308Y-12358643D02*
X7505308Y-12491977D01*
X7505308Y-12377691D02*
X7514832Y-12368167D01*
X7514832Y-12368167D02*
X7533880Y-12358643D01*
X7533880Y-12358643D02*
X7562451Y-12358643D01*
X7562451Y-12358643D02*
X7581499Y-12368167D01*
X7581499Y-12368167D02*
X7591022Y-12387215D01*
X7591022Y-12387215D02*
X7591022Y-12491977D01*
X7714832Y-12491977D02*
X7695784Y-12482453D01*
X7695784Y-12482453D02*
X7686261Y-12472929D01*
X7686261Y-12472929D02*
X7676737Y-12453882D01*
X7676737Y-12453882D02*
X7676737Y-12396739D01*
X7676737Y-12396739D02*
X7686261Y-12377691D01*
X7686261Y-12377691D02*
X7695784Y-12368167D01*
X7695784Y-12368167D02*
X7714832Y-12358643D01*
X7714832Y-12358643D02*
X7743403Y-12358643D01*
X7743403Y-12358643D02*
X7762451Y-12368167D01*
X7762451Y-12368167D02*
X7771975Y-12377691D01*
X7771975Y-12377691D02*
X7781499Y-12396739D01*
X7781499Y-12396739D02*
X7781499Y-12453882D01*
X7781499Y-12453882D02*
X7771975Y-12472929D01*
X7771975Y-12472929D02*
X7762451Y-12482453D01*
X7762451Y-12482453D02*
X7743403Y-12491977D01*
X7743403Y-12491977D02*
X7714832Y-12491977D01*
X7838642Y-12358643D02*
X7914832Y-12358643D01*
X7867213Y-12291977D02*
X7867213Y-12463405D01*
X7867213Y-12463405D02*
X7876737Y-12482453D01*
X7876737Y-12482453D02*
X7895784Y-12491977D01*
X7895784Y-12491977D02*
X7914832Y-12491977D01*
X8101499Y-12358643D02*
X8101499Y-12558643D01*
X8101499Y-12368167D02*
X8120546Y-12358643D01*
X8120546Y-12358643D02*
X8158642Y-12358643D01*
X8158642Y-12358643D02*
X8177689Y-12368167D01*
X8177689Y-12368167D02*
X8187213Y-12377691D01*
X8187213Y-12377691D02*
X8196737Y-12396739D01*
X8196737Y-12396739D02*
X8196737Y-12453882D01*
X8196737Y-12453882D02*
X8187213Y-12472929D01*
X8187213Y-12472929D02*
X8177689Y-12482453D01*
X8177689Y-12482453D02*
X8158642Y-12491977D01*
X8158642Y-12491977D02*
X8120546Y-12491977D01*
X8120546Y-12491977D02*
X8101499Y-12482453D01*
X8311022Y-12491977D02*
X8291975Y-12482453D01*
X8291975Y-12482453D02*
X8282451Y-12463405D01*
X8282451Y-12463405D02*
X8282451Y-12291977D01*
X8472927Y-12491977D02*
X8472927Y-12387215D01*
X8472927Y-12387215D02*
X8463404Y-12368167D01*
X8463404Y-12368167D02*
X8444356Y-12358643D01*
X8444356Y-12358643D02*
X8406261Y-12358643D01*
X8406261Y-12358643D02*
X8387213Y-12368167D01*
X8472927Y-12482453D02*
X8453880Y-12491977D01*
X8453880Y-12491977D02*
X8406261Y-12491977D01*
X8406261Y-12491977D02*
X8387213Y-12482453D01*
X8387213Y-12482453D02*
X8377689Y-12463405D01*
X8377689Y-12463405D02*
X8377689Y-12444358D01*
X8377689Y-12444358D02*
X8387213Y-12425310D01*
X8387213Y-12425310D02*
X8406261Y-12415786D01*
X8406261Y-12415786D02*
X8453880Y-12415786D01*
X8453880Y-12415786D02*
X8472927Y-12406263D01*
X8539594Y-12358643D02*
X8615784Y-12358643D01*
X8568165Y-12291977D02*
X8568165Y-12463405D01*
X8568165Y-12463405D02*
X8577689Y-12482453D01*
X8577689Y-12482453D02*
X8596737Y-12491977D01*
X8596737Y-12491977D02*
X8615784Y-12491977D01*
X8758642Y-12482453D02*
X8739594Y-12491977D01*
X8739594Y-12491977D02*
X8701499Y-12491977D01*
X8701499Y-12491977D02*
X8682451Y-12482453D01*
X8682451Y-12482453D02*
X8672927Y-12463405D01*
X8672927Y-12463405D02*
X8672927Y-12387215D01*
X8672927Y-12387215D02*
X8682451Y-12368167D01*
X8682451Y-12368167D02*
X8701499Y-12358643D01*
X8701499Y-12358643D02*
X8739594Y-12358643D01*
X8739594Y-12358643D02*
X8758642Y-12368167D01*
X8758642Y-12368167D02*
X8768165Y-12387215D01*
X8768165Y-12387215D02*
X8768165Y-12406263D01*
X8768165Y-12406263D02*
X8672927Y-12425310D01*
X8939594Y-12491977D02*
X8939594Y-12291977D01*
X8939594Y-12482453D02*
X8920546Y-12491977D01*
X8920546Y-12491977D02*
X8882451Y-12491977D01*
X8882451Y-12491977D02*
X8863404Y-12482453D01*
X8863404Y-12482453D02*
X8853880Y-12472929D01*
X8853880Y-12472929D02*
X8844356Y-12453882D01*
X8844356Y-12453882D02*
X8844356Y-12396739D01*
X8844356Y-12396739D02*
X8853880Y-12377691D01*
X8853880Y-12377691D02*
X8863404Y-12368167D01*
X8863404Y-12368167D02*
X8882451Y-12358643D01*
X8882451Y-12358643D02*
X8920546Y-12358643D01*
X8920546Y-12358643D02*
X8939594Y-12368167D01*
X9015785Y-12568167D02*
X9025308Y-12558643D01*
X9025308Y-12558643D02*
X9044356Y-12530072D01*
X9044356Y-12530072D02*
X9053880Y-12511024D01*
X9053880Y-12511024D02*
X9063404Y-12482453D01*
X9063404Y-12482453D02*
X9072927Y-12434834D01*
X9072927Y-12434834D02*
X9072927Y-12396739D01*
X9072927Y-12396739D02*
X9063404Y-12349120D01*
X9063404Y-12349120D02*
X9053880Y-12320548D01*
X9053880Y-12320548D02*
X9044356Y-12301501D01*
X9044356Y-12301501D02*
X9025308Y-12272929D01*
X9025308Y-12272929D02*
X9015785Y-12263405D01*
M02*
