M48
; DRILL file {KiCad (7.0.0)} date Sat Mar 18 22:03:22 2023
; FORMAT={-:-/ absolute / inch / decimal}
; #@! TF.CreationDate,2023-03-18T22:03:22+08:00
; #@! TF.GenerationSoftware,Kicad,Pcbnew,(7.0.0)
; #@! TF.FileFunction,NonPlated,1,2,NPTH
FMAT,2
INCH
; #@! TA.AperFunction,NonPlated,NPTH,ComponentDrill
T1C0.0118
; #@! TA.AperFunction,NonPlated,NPTH,ComponentDrill
T2C0.0354
; #@! TA.AperFunction,NonPlated,NPTH,ComponentDrill
T3C0.0689
; #@! TA.AperFunction,NonPlated,NPTH,ComponentDrill
T4C0.1181
; #@! TA.AperFunction,NonPlated,NPTH,ComponentDrill
T5C0.1570
%
G90
G05
T1
X5.4886Y-0.9243
X5.4886Y-0.9476
X5.4886Y-0.971
X5.4886Y-0.9944
X5.4886Y-1.0178
X5.4886Y-1.0411
X5.4886Y-1.0645
X5.4886Y-1.0879
X5.4886Y-1.1113
X5.4886Y-2.2463
X5.4886Y-2.2697
X5.4886Y-2.2931
X5.4886Y-2.3164
X5.4886Y-2.3398
X5.4886Y-2.3632
X5.4886Y-2.3866
X5.4886Y-2.4099
X5.4886Y-2.4333
X5.4886Y-3.9424
X5.4886Y-3.9657
X5.4886Y-3.9891
X5.4886Y-4.0125
X5.4886Y-4.0359
X5.4886Y-4.0593
X5.4886Y-4.0826
X5.4886Y-4.106
X5.4886Y-4.1294
X5.7Y-0.9246
X5.7Y-0.948
X5.7Y-0.9714
X5.7Y-0.9947
X5.7Y-1.0181
X5.7Y-1.0415
X5.7Y-1.0649
X5.7Y-1.0882
X5.7Y-1.1116
X5.7Y-2.2467
X5.7Y-2.27
X5.7Y-2.2934
X5.7Y-2.3168
X5.7Y-2.3402
X5.7Y-2.3635
X5.7Y-2.3869
X5.7Y-2.4103
X5.7Y-2.4337
X5.7Y-3.9427
X5.7Y-3.9661
X5.7Y-3.9895
X5.7Y-4.0128
X5.7Y-4.0362
X5.7Y-4.0596
X5.7Y-4.083
X5.7Y-4.1063
X5.7Y-4.1297
T2
X4.665Y-4.1096
X4.7831Y-4.1096
X6.4016Y-4.1092
X6.5197Y-4.1092
T3
X1.171Y-3.7117
X1.571Y-3.7117
X1.8392Y-1.3082
X1.8392Y-2.057
X1.8392Y-2.8062
X2.2023Y-3.7113
X2.2392Y-1.3082
X2.2392Y-2.057
X2.2392Y-2.8062
X2.5871Y-2.057
X2.5884Y-1.3082
X2.5884Y-2.8062
X2.6023Y-3.7113
X2.9871Y-2.057
X2.9884Y-1.3082
X2.9884Y-2.8062
X3.3384Y-2.057
X3.3388Y-1.3082
X3.3388Y-2.8062
X3.7384Y-2.057
X3.7388Y-1.3082
X3.7388Y-2.8062
X4.0887Y-1.3085
X4.0888Y-2.057
X4.0892Y-2.8062
X4.4887Y-1.3085
X4.4888Y-2.057
X4.4892Y-2.8062
X4.8364Y-2.057
X4.8378Y-2.8059
X4.8379Y-1.3085
X5.2364Y-2.057
X5.2378Y-2.8059
X5.2379Y-1.3085
X5.9456Y-2.0592
X5.9458Y-2.8096
X5.946Y-1.3093
X6.3456Y-2.0592
X6.3458Y-2.8096
X6.346Y-1.3093
X6.6952Y-2.0596
X6.6954Y-2.8096
X6.6958Y-1.3104
X7.0952Y-2.0596
X7.0954Y-2.8096
X7.0958Y-1.3104
X7.4456Y-1.3104
X7.4464Y-2.06
X7.4468Y-2.8104
X7.8456Y-1.3104
X7.8464Y-2.06
X7.8468Y-2.8104
X8.1956Y-1.3104
X8.1958Y-2.0596
X8.1964Y-2.8108
X8.5862Y-3.7118
X8.5956Y-1.3104
X8.5958Y-2.0596
X8.5964Y-2.8108
X8.9464Y-1.3104
X8.9464Y-2.0612
X8.9464Y-2.8108
X8.9862Y-3.7118
X9.3464Y-1.3104
X9.3464Y-2.0612
X9.3464Y-2.8108
X9.6169Y-3.7118
X10.0169Y-3.7118
T4
X1.221Y-3.6117
X1.471Y-3.5117
X1.8892Y-1.2082
X1.8892Y-1.957
X1.8892Y-2.7062
X2.1392Y-1.1082
X2.1392Y-1.857
X2.1392Y-2.6062
X2.2523Y-3.6113
X2.5023Y-3.5113
X2.6371Y-1.957
X2.6384Y-1.2082
X2.6384Y-2.7062
X2.8871Y-1.857
X2.8884Y-1.1082
X2.8884Y-2.6062
X3.3884Y-1.957
X3.3888Y-1.2082
X3.3888Y-2.7062
X3.6384Y-1.857
X3.6388Y-1.1082
X3.6388Y-2.6062
X4.1387Y-1.2085
X4.1388Y-1.957
X4.1392Y-2.7062
X4.3887Y-1.1085
X4.3888Y-1.857
X4.3892Y-2.6062
X4.8864Y-1.957
X4.8878Y-2.7059
X4.8879Y-1.2085
X5.1364Y-1.857
X5.1378Y-2.6059
X5.1379Y-1.1085
X5.9956Y-1.9592
X5.9958Y-2.7096
X5.996Y-1.2093
X6.2456Y-1.8592
X6.2458Y-2.6096
X6.246Y-1.1093
X6.7452Y-1.9596
X6.7454Y-2.7096
X6.7458Y-1.2104
X6.9952Y-1.8596
X6.9954Y-2.6096
X6.9958Y-1.1104
X7.4956Y-1.2104
X7.4964Y-1.96
X7.4968Y-2.7104
X7.7456Y-1.1104
X7.7464Y-1.86
X7.7468Y-2.6104
X8.2456Y-1.2104
X8.2458Y-1.9596
X8.2464Y-2.7108
X8.4956Y-1.1104
X8.4958Y-1.8596
X8.4964Y-2.6108
X8.6362Y-3.6118
X8.8862Y-3.5118
X8.9964Y-1.2104
X8.9964Y-1.9612
X8.9964Y-2.7108
X9.2464Y-1.1104
X9.2464Y-1.8612
X9.2464Y-2.6108
X9.6669Y-3.6118
X9.9169Y-3.5118
T5
X1.371Y-3.7117
X2.0392Y-1.3082
X2.0392Y-2.057
X2.0392Y-2.8062
X2.4023Y-3.7113
X2.7871Y-2.057
X2.7884Y-1.3082
X2.7884Y-2.8062
X3.5384Y-2.057
X3.5388Y-1.3082
X3.5388Y-2.8062
X4.2887Y-1.3085
X4.2888Y-2.057
X4.2892Y-2.8062
X5.0364Y-2.057
X5.0378Y-2.8059
X5.0379Y-1.3085
X6.1456Y-2.0592
X6.1458Y-2.8096
X6.146Y-1.3093
X6.8952Y-2.0596
X6.8954Y-2.8096
X6.8958Y-1.3104
X7.6456Y-1.3104
X7.6464Y-2.06
X7.6468Y-2.8104
X8.3956Y-1.3104
X8.3958Y-2.0596
X8.3964Y-2.8108
X8.7862Y-3.7118
X9.1464Y-1.3104
X9.1464Y-2.0612
X9.1464Y-2.8108
X9.8169Y-3.7118
T0
M30
